<?xml version="1.0" encoding="UTF-8"?>
<svg id="Layer_1" xmlns="http://www.w3.org/2000/svg" version="1.1" viewBox="0 0 141.73 141.73">
  <!-- Generator: Adobe Illustrator 30.0.0, SVG Export Plug-In . SVG Version: 2.1.1 Build 123)  -->
  <defs>
    <style>
      .st0 {
        fill: #d2d3d4;
      }
    </style>
  </defs>
  <g id="Z6ZCHb">
    <g>
      <path d="M275.57,160.23c-.72-.16-1.73-1.35-1.21-2.16l11.39-25.57.84-.36c3.83.32,8.26-.4,12.02,0,1.47.16,2.07,1.88.97,2.66-1.22.87-10.71-.41-11.8.44l-9.7,21.86h98.4l-9.76-22.09-63.21-.34c-.69-.69-.5-1.86.31-2.36l64.58-.12.94.98,11.01,25.48c.1.69-.7,1.57-1.34,1.57h-5.88v12.84c0,1.05-2.88,1.05-2.88,0v-12.84h-85.92v7.92c2.15-.59,4.96-4.71,7.21-3.97l20.4,15.36c.36.27.42.54.48.96.41,3.11-.24,7.26-.12,10.47-1.39,2.39-3.08-.53-4.69-.97v28.56h10.56v-26.28c0-.15.96-1,1.31-.85,4.76.5,10.78-.63,15.38,0,.52.07,1.31.61,1.31,1.09v23.88c.84-.09,1.73-.78,2.48-1.24.63-.4,4.09-2.66,4.2-3l.17-19.99,1.18-.74c6.44.58,14.13-.74,20.42,0,.72.09,1.56.53,1.56,1.32v15.96h4.08v-30.84c0-.99,2.88-1.24,2.88.24v30.6l3.36.12c3.09,3.83,4.92,8.48,7.56,12.6.52,1.53.65,5.48-.02,6.93-1.11,2.41-5.91,2.77-8.26,3.02-2.12,5.94-9.74,6.07-11.91.11l-19,.06c-1.51,5.87-9.89,5.72-11.6,0-6.16-.05-9.39.76-8.85-6.65.1-1.33.41-2.29.97-3.47h-42.96v12.36c0,.48-.79,1.02-1.31,1.09-5.05.69-11.43-.74-16.58.24l-1.68-.72v-26.4c.14-.15.66-.72.72-.72h10.08l.31-.36c0-.1-.19-.18-.19-.24v-16.68c-1.53.98-4.25,3.64-4.57.13-.29-3.17.2-6.82.06-10.04,3.71-3.6,8.31-6.21,12.19-9.65v-10.2c-1.69-.25-4.33.34-5.88,0h-.01ZM309.53,187.11v-5.64l-18.8-13.99-18.64,13.99v5.64l18.62-13.44,18.82,13.44h0ZM304.73,218.55v-30.84l-13.81-10.45c-.48-.05-.79.31-1.15.53-4.35,2.82-8.38,6.92-12.88,9.56v19.92h4.44c.24,0,1.08.84,1.08,1.08v10.2h2.88v-26.28c0-.16.77-.77,1.09-.83,1.17-.22,7.37-.19,8.65-.02.52.07,1.31.61,1.31,1.09v26.04h8.4,0ZM293.45,194.31h-5.28v24.24h5.28v-24.24ZM321.05,218.55h7.56c.11,0,1.56-.7,2.04-.84.87-.26,1.97-.15,2.64-.72v-22.32l-.36-.36h-11.88v24.24h0ZM352.97,194.31h-7.2v15.84c2.34-1.15,4.55-1.68,7.2-1.44v-14.4ZM363.05,194.31h-6.84l-.36.36v14.04h7.2v-14.4h0ZM265.61,231.99h13.56l.36-.36v-21.12l-.36-.36h-13.56v21.84ZM327.53,223.95c-.26,1.18.19,3.16,0,4.44h5.76c1.76-6.24,9.83-5.88,11.92,0h18.2c.75-.15.99-1.51,1.45-2.15,2.93-4.09,9.68-2.75,10.81,2.16.7.19,5.27-.84,5.64-1.31.4-1.36.35-3.34-.15-4.7-.36-.96-1.12-1.6-1.59-2.49-1.48-2.79-2.73-5.74-4.76-8.2h-24.49c-4.02.62-9.02,6.26-12.78,7.61-2.9,1.04-6.52.51-8.82,2.94-.24.25-1.14,1.46-1.19,1.69h0ZM338.99,226.77c-3.75.21-3.83,5.66-.53,6.17,4.88.75,4.81-6.41.53-6.17ZM372.09,227.75c-2.79-2.88-7.34,1.26-4.61,4.25s7.37-1.4,4.61-4.25Z"/>
      <path d="M475.13,155.67c-1.43-.13-3.6.62-3.85-1.31l5.06-18.97.88-1.04,74.13.17c.96,1.02.39,2.5-.97,2.67l-71.25-.02-4.24,15.61h102.48l-4.11-15.57-16.89-.03c-1.92,0-2.1-2.65-.25-2.9l19.23.23c.44.32.76,1.62.94,2.18,1.87,5.76,2.94,11.85,4.69,17.65-.26,1.93-2.42,1.18-3.85,1.31v28.56c.82-.11,1.41.3,1.69,1.07,1.4,5.28,3.27,10.46,4.67,15.73.16.6.77,2.49.72,2.91-.06.49-.76,1.41-1.2,1.41h-5.88v29.16c0,.13-.43.95-.59,1.09-.74.66-1.58.21-2.4.22-32.57.21-65.14-.14-97.7.02-.36,0-.6-.09-.84-.36-.68-.76-.59-6.41-.4-7.63.12-.8.38-1.66,1.27-1.87.6-.32,1.78.96,1.78,1.33v5.64h6v-22.2c0-.68.96-1.03,1.55-1.09,3.39-.34,7.36.28,10.81.02.37-.06,1.08.87,1.08,1.08v22.2h76.32v-27.6h-95.76v16.2c0,1.79-3.12,1.79-3.12,0v-16.2h-5.88c-.42,0-1.31-1.03-1.21-1.56l5.57-19.02c.22-.56.98-.53,1.51-.54v-28.56h.01ZM574.01,155.67h-95.76v28.56h95.76v-28.56ZM580.73,202.23l-4.36-14.72-.56-.4-99.73.11-4.55,15.01h109.2ZM494.81,212.55h-7.68v20.4h7.08c.08,0,.2.43.49,0-.13-6.74-.32-13.63.11-20.4h0Z"/>
      <path d="M447.17,309.75c-.74-.21-1.42-1.88-.6-2.52,7.85-7.98,14.86-16.84,22.68-24.84.46-.47,1.09-1.24,1.73-1.39l65.96-.06c1.75-.16,2.7,1.56,1.31,2.77l-64.45.11c-1.93-.16-2.87,1.17-4.07,2.41-6.22,6.41-11.79,13.49-18.13,19.79l-.23.85h32.52c1.05,0,1.09,2.88-.24,2.88h-24.84v30.96h11.64l.36-.36v-21.24c0-.09,1.33-.7,1.55-.73l35.49.24c.12.08.4.52.4.62v21.48h13.68v-21.48c0-.49,1.35-.81,1.79-.85,2.94-.27,9.86-.33,12.74,0,.54.06.95.18,1.32.6v21.36l.36.36h10.92c.3,1.09-.26,2.88-1.56,2.88h-92.76v6.36l.36.36h35.04c.58,0,1.77,2.59-.72,2.88l-36.19-.06c-.82-.3-1.22-.35-1.35-1.28-.21-1.47-.26-8.7.03-10.02.39-1.76,2.47-.98,3.79-1.13v-30.96h-8.53ZM534.89,321.27h-10.08v19.44h10.08v-19.44ZM505.37,321.27h-31.68v19.44h31.32l.36-.36v-19.08h0Z"/>
      <path d="M595.13,306.87l-1.8-2.4-19.07-20.53c-9.72-.24-19.46-.05-29.18-.12-.49,0-.97.18-1.39.16-2.26-.1-2.27-2.86-.04-3.04l32.04.13,24.36,26.53c.5.62-.31,2.15-.95,2.15h-8.52v30.96h3.48c.24.15.31.33.36.6.36,1.98-.04,5.92-.01,8.17.02,1.31.81,2.82-.94,3.6l-22.44.09c-1.12-.23-1.9-1.2-1.82-2.38-.59-.04-1.2.01-1.79,0-.29-.01-.89.18-.84-.24,1.26.2,2.53-.2,3.71-.25,6.62-.28,14.22.64,20.66.02.27-.03.55.01.73-.25.14-.17-.14-.3-.14-.36v-6.12h-34.68c-.23,0-1.14-.83-1.29-1.11-1.39-2.65,1.98-1.41,3.18-1.8l.36-.36.03-20.61.3-1.02c.23-.17.51-.24.8-.27,2.73-.38,7.15-.03,10.08-.01.42,0,.82-.21,1.19-.2.88.01,3.01.1,3.36.92l.36,21.6h12.12l.36-.36v-30.6h-99c-1.05,0-1.05-2.88,0-2.88h106.44l-.02-.02ZM562.01,321.27v19.08l.36.36h9.6l.36-.36v-18.72c-1-1.13-2.3-.37-3.47-.35-1.48.02-3.03-.23-4.36-.23-.76,0-1.65.41-2.49.22h0Z"/>
      <path d="M492.17,376.95l1.44,7.68c2.97-.65.9-1.44.71-2.99-.56-4.54,4.67-7.34,8.7-6.79,3.74.51,8.2,5,5.22,8.7-1.22,1.51-4.5,2.28-6.37,2.29-.92,0-2.76-.57-3.54-.45-.3.05-3.83,2.43-4.03,2.7s-.19.42-.23.73c-.46,3.35.54,7.98,0,11.28-.31,1.88-2.77,2.02-3.08-.25-.2-1.43.27-9.31-.05-9.67-1.08.02-3.11-1.67-3.93-1.69-.33-.01-1.72.76-2.46.89-3.96.7-11.53-.4-9.83-5.99,1.9-6.27,12.54-6.32,14.5,0,.57,1.83-.75,3.27,1.75,3.65l-1.79-9.61c-2.26-.36-6.22-1.02-6.79-3.77-1.13-5.47,5.67-8.45,10.22-6.86,5.85,2.05,6.44,9.6-.43,10.15h-.01ZM488.99,369.33c-3.37.41-5.95,4.38-.52,4.95,1.23.13,5.37-.02,5.62-1.55.38-2.33-3.23-3.64-5.1-3.41h0ZM505.77,381.92c1.99-1.77-2.09-4.18-3.9-4.25-2.04-.08-4.95,1.57-4.56,3.85.78,1.6,7.16,1.56,8.45.4h0ZM486.1,385.53c1.48-1.77-2.31-3.91-3.92-4-1.74-.09-5.23,1.6-4.61,3.66.54,1.79,7.34,1.76,8.53.34Z"/>
      <path d="M556.49,363.51l1.41-1.11c-2.78-4.25,1.26-8.66,5.67-8.96,3.73-.25,8.79,2.56,8.28,6.84-.34,2.89-4.4,4.1-6.85,4.19-1.26.05-3.19-.56-4.03-.43-.24.04-3.88,2.5-4.03,2.7-.2.27-.19.42-.24.72-.46,3.35.54,7.98,0,11.28-.29,1.77-2.61,1.81-2.86.49-.5-2.67.36-6.78,0-9.61-.03-.26.02-.53-.25-.71l-3.76-1.74c-3.4,1.56-10.43,1.85-12.29-2.12-1.01-2.15.11-4.38,1.77-5.86,4.82-4.3,13.68-1.07,12.7,5.77l1.82.71-2.03-9.61c-2.39-.54-4.29-.37-6.01-2.39-3.67-4.32,2.09-8.81,6.48-8.9,5.9-.12,11,6.95,4.57,10.34-.57.3-1.91.48-2.03.86l1.67,7.53h.01ZM556.66,351.68c1.25-1.49-1.77-3.55-3.19-3.75-1.97-.28-6.13.53-5.62,3.21.43,2.21,7.49,2.1,8.8.54h.01ZM563.39,356.62c-3.21.47-5.47,4.14-.76,4.71,1.43.17,6.9.28,6.29-2.19-.52-2.12-3.68-2.79-5.53-2.52h0ZM543.95,360.21c-1.54.19-4.29,1.78-3.75,3.61.57,1.92,8.49,1.94,8.85-.2.38-2.29-3.22-3.64-5.1-3.41h0Z"/>
      <path d="M542.56,391.59c3.79-6.07,13.7-5.98,17.48.17,1.89,3.07,2.52,8.3-1.4,10.03-2.59,1.15-11.16,1.24-13.87.44-.66-.19-2.33-1.28-2.57-1.28-.26,0-1.22.86-1.8,1.08-2.51.95-11.17.92-13.73.06-5.66-1.9-3.92-9.61-.06-12.65,4.9-3.85,12-2.89,15.6,2.15h.35ZM526.55,398.73c1.33,1.44,10.14,1.11,12.19.67,3.17-.68,2.09-4.87.47-6.74-3.03-3.51-8.88-3.43-11.76.25-1,1.28-2.16,4.46-.91,5.82h.01ZM558.11,398.73c.75-.81.45-2.98.13-3.97-2.15-6.79-13.55-5.92-14.41,1.09-.39,3.24,1.28,3.7,4.13,3.91,1.82.13,9.02.19,10.15-1.03h0Z"/>
      <path d="M589.61,380.07v3.48c0,.78-1.49,2.64-2.18,3.1-2.55,1.73-10.66,1.62-13.68.99s-4.65-2.21-4.8-5.28c-.26-5.52,4.68-10.03,10.07-9.99,1.76-8.79,14.5-10.52,19.03-3.02,1.72,2.85,2.39,7.54-.83,9.59-1.84,1.17-4.67,1.25-6.81,1.37-.33.02-.52-.13-.81-.22v-.02ZM588.22,377.14c4.25.26,10.52.59,7.67-5.63-2.55-5.57-12.46-5.15-13.7,1.1,2.41.82,4.81,2.21,6.03,4.53ZM578.27,375.34c-2.67.31-5.08,2.02-5.99,4.57-.54,1.51-.91,3.7.87,4.5,1.55.69,8.4.65,10.33.46,2.31-.23,3.46-.97,3.22-3.45-.4-4.13-4.55-6.53-8.43-6.08Z"/>
      <path d="M512.49,298.04l60.69-.06c1.84.25,1.44,2.74-.24,2.9h-59.78c-1.51-.2-2.03-2.03-.66-2.85h-.01Z"/>
      <path d="M476.97,289.88l57.09-.06c1.73.21,1.71,2.71,0,2.9h-56.18c-1.83.08-2.45-1.87-.9-2.85h-.01Z"/>
      <path d="M457.79,366.46c5.96-.81,12.23,3,12.32,9.41.07,4.88-3.77,5.89-7.81,6.13-3.73.23-12.15.51-12.83-4.47-.72-5.32,2.99-10.36,8.32-11.08h0ZM459,369.34c-3.12.3-6.24,2.56-6.65,5.83-.34,2.75.94,3.49,3.45,3.71,1.84.16,8.88.22,10.2-.62,1.55-.99,1.06-3.55.42-4.96-1.23-2.7-4.53-4.24-7.42-3.96h0Z"/>
      <path d="M319.3,167.24c1.12-.25,7.58-.23,8.81-.04,1.15.18,1.49.96,1.59,2.01.45,4.88-.36,10.42,0,15.38.02.54-.49,1.46-.97,1.67-.53.24-8,.25-9,.13-.59-.07-1.07-.23-1.44-.72l.1-17.9c.26-.24.56-.45.91-.53h0ZM326.57,183.51v-13.08l-.36-.36h-4.8l-.36.36v13.08h5.52,0Z"/>
      <path d="M347.38,167.74c.29.36.31.8.32,1.24l-.14,16.44c-.44.53-.71.88-1.42.98-.95.13-8.74.09-9.25-.14-.39-.17-.76-.74-.74-1.18.38-5.19-.47-10.99,0-16.1.13-1.37.43-1.67,1.8-1.8,1.87-.17,6.37-.22,8.18,0,.36.05,1.02.29,1.24.56h.01ZM339.41,170.07l-.36.36v12.72l.36.36h5.04l.36-.36v-12.72l-.36-.36h-5.04Z"/>
      <path d="M355.3,167.24c2.78.15,6.13-.37,8.83-.05,1.24.15,1.46.62,1.57,1.79.46,5.03-.37,10.75,0,15.86-.15,1.24-.62,1.46-1.79,1.57s-8.11.14-8.77-.14c-.15-.06-.78-.69-.84-.84l-.14-16.69c.01-.69.61-1.16,1.14-1.5ZM362.81,170.31c0-.29-5.16-.4-5.76,0v12.84l.36.36h5.04l.36-.36v-12.84h0Z"/>
      <path d="M472.89,298.04l34.53-.06c1.8.18,1.71,2.68,0,2.9h-33.86c-1.7-.09-2.1-1.98-.67-2.85h0Z"/>
      <path d="M569.87,290.13c.73.74.24,2.65-1.01,2.6l-30.03-.23c-.81-.89-.63-2.57.73-2.67h29.06c.37.03.99.04,1.25.31h0Z"/>
      <path d="M550.9,213.32c.75-.22,7.09-.19,8.12-.06s1.23,1.12,1.32,2.04c.15,1.53.17,5,0,6.5-.13,1.11-.7,1.67-1.8,1.8s-6.69.16-7.58-.11-1.1-1.12-1.19-1.93c-.16-1.45-.18-5.05,0-6.49.07-.63.49-1.56,1.14-1.74h-.01ZM557.21,216.15h-4.32v4.56h4.32v-4.56Z"/>
      <path d="M510.58,213.32c.75-.21,7.12-.19,8.12-.06.8.1,1.21.51,1.32,1.32.14,1.04.13,7.29-.12,8.07-.22.69-.78.87-1.45.95-1.11.13-6.99.16-7.82-.11-.69-.22-.87-.78-.95-1.45-.18-1.52-.2-5.97,0-7.46.07-.52.36-1.1.9-1.26h0ZM517.13,216.15h-4.56v4.2l.36.36h3.84l.36-.36v-4.2Z"/>
      <path d="M530.74,213.32c.81-.23,6.79-.18,7.87-.06s1.44.51,1.56,1.56c.13,1.12.16,6.99-.11,7.82-.22.69-.78.87-1.45.95-1.17.14-6.9.17-7.82-.11-.63-.19-.88-.57-.96-1.2-.19-1.42-.19-6.27,0-7.7.07-.52.36-1.1.9-1.26h.01ZM532.73,220.71h4.2l.36-.36v-3.84l-.36-.36h-4.2v4.56Z"/>
      <path d="M514.9,350.36l26.83-.06,1.2.48c.44,1.37.02,2.24-1.44,2.41h-26.42c-1.69-.12-1.76-2.47-.18-2.83h0Z"/>
      <path d="M508.91,359.38c-.55.26-1.13.48-1.74.54-1.58.16-5.4.19-6.94-.02-2.27-.31-2.12-2.78-.25-3.08,1.26-.21,6.62-.2,7.89,0s1.67,1.48,1.04,2.57h0Z"/>
      <path d="M518.92,376.11c2.45.55,5.84-.31,8.16.13,1.38.26,1.55,2.58-.25,2.86-1.18.19-7.02.22-8.14,0-1.49-.28-1.63-2.85.22-3h.01Z"/>
      <path d="M506.63,373.06c-.69-.69-.32-2.37.79-2.58s6.96-.18,8.14,0c1.73.27,1.77,2.57.25,2.86-1.39.26-6.35.15-7.92.02-.37-.03-.99-.04-1.25-.31h0Z"/>
      <path d="M509.14,362.6c2.57.25,6.42-.5,8.83-.04,1.55.3,1.3,2.58-.49,2.86-1.25.2-6.42.2-7.65,0-1.71-.28-1.77-2.5-.69-2.82h0Z"/>
      <path d="M356.75,214.53c.45.45.74,4.94-.65,5.12-2.02-.15-9.86.66-11.15-.16-.46-.29-.72-.95-.59-1.48.16-.58,4.34-3.41,5.05-3.61.91-.26,6.86-.35,7.34.14h0Z"/>
      <path d="M359.76,219.44c-.84-.61-.87-4.59.17-5.09.45-.21,5.81-.23,6.61-.13.87.1.98.53,1.07,1.33.11.99.26,3.43-.63,3.94-.76.43-6.53.45-7.22-.05Z"/>
      <path d="M370.17,214.27c1.36-.47,3.33,2.14,3.89,3.24,1.45,2.84-3.83,2.73-4.41,1.53-.3-.64-.35-4.46.52-4.76h0Z"/>
      <path d="M267.94,212.84c.91-.21,7.62-.23,8.58-.05,1.49.28,1.47,2.59,0,2.87-.97.18-7.67.16-8.58-.05-1.49-.34-1.49-2.43,0-2.78h0Z"/>
      <path d="M561.71,172.18c-.37.27-.81.27-1.25.31-1.84.15-4.88.13-6.74,0-1.58-.11-1.89-.36-2.04-2.04-.1-1.13-.12-7.12.33-7.74.19-.27.88-.52,1.24-.56,1.12-.14,6.95-.15,7.82.12.63.19.88.57.96,1.2.22,1.63.14,5.75,0,7.46-.04.44-.04.88-.31,1.25h-.01ZM559.13,165.03h-4.32v4.56h4.32v-4.56Z"/>
      <path d="M500.03,172.18c-.45.46-9.01.47-9.49,0-.27-.37-.27-.81-.31-1.25-.14-1.72-.22-5.83,0-7.46.08-.63.33-1.01.96-1.2.92-.28,6.63-.25,7.82-.11.39.05.76.1,1.08.36.75.78.71,8.87-.06,9.67h0ZM497.45,165.03h-4.32v4.56h4.32v-4.56Z"/>
      <path d="M532.42,162.2c1.15-.25,6.33-.21,7.63-.06,1.06.12,1.44.51,1.56,1.56.13,1.12.16,6.99-.11,7.82-.22.69-.78.87-1.45.95-.97.11-7.49.11-8.04-.13-.46-.2-.68-.71-.74-1.18-.16-1.22-.19-6.82.02-7.93.11-.55.6-.92,1.13-1.03h0ZM534.17,169.59h4.2l.36-.36v-3.84l-.36-.36h-4.2v4.56Z"/>
      <path d="M511.78,162.2c1.09-.25,6.37-.2,7.63-.06.9.1,1.44.39,1.57,1.31s.08,7.78-.14,8.29c-.2.46-.71.68-1.18.74-1.04.14-7.29.13-8.07-.12-.69-.22-.87-.78-.95-1.45-.18-1.56-.18-5.65,0-7.21.09-.77.33-1.32,1.14-1.5h0ZM518.09,165.03h-4.2l-.36.36v4.2h4.56v-4.56Z"/>
    </g>
  </g>
  <g id="WETxoe">
    <g>
      <path d="M121.37,128.08c-1.25-4.5,3.77-2.34,5.17-6.13,1.61-4.33.49-5.84-.19-9.94-.49-2.99.36-4.6-2.1-7.26-4.7-5.08-16.84-4.8-23.35-5.68-3.42-.46-4.96-3.94-7.04-6.07-6.16-6.29-9.74-9.44-18.88-9.84-10.13-.44-20.72.14-30.92.03-3.58-.04-7.29-.64-10.92-.34-3.97.33-2.73,2.01-4.04,5.01-.98,2.24-2.79,4.19-3.97,6.33-.41.75-.47,1.8-.92,2.51-.71,1.12-3.54,2.99-4.63,4.42-2.79,3.63-1.4,5.75-1.91,9.64-.45,3.39-3.04,4.18-2.48,8.77.39,3.18,3.88,2.79,4.33,5.06.73,3.67-5.24.08-6.33-1.5-1.29-1.86-1.39-5.1-1.09-7.29.26-1.87,1.95-3.33,2.33-5.16.9-4.32-.56-7.4,2.79-11.57,3.13-3.91,7.14-7.84,9.18-12.67,1.62-3.84-.2-6.02,5.17-6.38,15.21-1.01,31.84.54,47.14.33,9.56,1.19,15.46,8.69,21.61,15.22,6.13,1.1,12.77.93,18.81,2.73,4.52,1.34,9.45,4.78,10.23,9.75.19,1.21-.04,2.43.11,3.64.21,1.64,1.07,3.29,1.21,5.03.44,5.67-3.15,11.51-9.31,11.34v.02Z"/>
      <path class="st0" d="M59.21,98.32c-.27.45-.62.43-1.08.48-3.45.41-7.19-.24-10.61-.34-3.03-.09-7.18.44-10-.31-.43-.11-.51.26-.48-.47.06-1.62,3.7-7.37,5.01-8.41,3.2-2.53,12.03-.96,16.06-1.42l.64.29c-.07.57.45,1.72.45,2.05v8.13Z"/>
      <path class="st0" d="M88.47,98.71l-21.15.23c-.91-.43-1.04-2.52-1.2-3.48-.22-1.33-.98-6.57-.38-7.4s2.48-.19,3.29-.19c1.42,0,2.98-.13,4.38,0s7.15,1.27,8.2,1.79c.27.13,2.87,2.65,3.2,3.05,1.26,1.54,2.17,3.84,3.91,5.14l-.24.87h-.01Z"/>
      <path d="M42.22,129.55c-8.89,9.5-25.05-3.14-16.22-14.51,8.69-11.19,26.87,3.13,16.22,14.51ZM34.5,113.84c-8.28.3-11.07,11.43-3.9,14.96,8.65,4.26,15.79-6.34,9.27-12.71-1.31-1.28-3.5-2.32-5.37-2.25Z"/>
      <path d="M104.39,111.35c2.98-.43,5.2-.05,7.73,1.47,9.58,5.76,4.31,21.02-6.53,19.95-13.07-1.29-12.68-19.75-1.2-21.42ZM105.65,113.83c-2.75.27-6.52,3.35-7.04,6.09-1.56,8.33,8.57,13.66,13.98,6.8,4.46-5.66-.42-13.54-6.94-12.89Z"/>
      <path d="M49.31,126.02c.4-.44,1.62-.67,2.24-.72,11.09-1,24.78.18,36.23.03.65,0,1.29-.35,1.85-.32,1.3.08,2.72,1.77,1.76,2.99-.82,1.03-3.63.12-4.85.11-7.7-.09-15.42.4-23.12.34-3.59-.03-8.53.31-11.86,0-1.26-.12-3.73-.81-2.24-2.43h0Z"/>
    </g>
  </g>
</svg>