<?xml version="1.0" encoding="UTF-8"?>
<svg id="Layer_1" xmlns="http://www.w3.org/2000/svg" version="1.1" viewBox="0 0 141.73 141.73">
  <!-- Generator: Adobe Illustrator 30.0.0, SVG Export Plug-In . SVG Version: 2.1.1 Build 123)  -->
  <defs>
    <style>
      .st0 {
        fill: #231f20;
      }
    </style>
  </defs>
  <g id="IEU8Zf">
    <g>
      <path class="st0" d="M52.03,53.14v56.4h-7.5c-.08-.22.3-.36.3-.45v-55.95s7.2,0,7.2,0Z"/>
      <polygon class="st0" points="71.53 53.14 71.53 109.54 64.63 109.54 64.33 53.14 71.53 53.14"/>
      <rect class="st0" x="89.53" y="53.14" width="6.9" height="56.4"/>
      <rect class="st0" x="54.43" y="53.14" width="5.1" height="56.4"/>
      <rect class="st0" x="82.33" y="53.14" width="4.8" height="56.4"/>
      <polygon class="st0" points="103.63 53.14 103.63 123.05 100.03 123.35 100.03 53.14 103.63 53.14"/>
      <path class="st0" d="M41.53,53.14v69.9c-1.24.4-2.47-.19-3.6.3V53.14h3.6Z"/>
      <rect class="st0" x="73.93" y="53.14" width="2.4" height="56.4"/>
      <path class="st0" d="M28.55,112.62c2.55-.41,5.16.96,5.49,3.67.19,1.59.21,8.08-.15,9.47-1.08,4.14-8.3,4.18-8.86-1.06-.18-1.72-.25-7.37.07-8.93s1.97-2.91,3.45-3.15ZM28.85,114.7c-1.19.26-1.48,1.19-1.64,2.27-.25,1.7-.38,7.87.68,9.06,1.11,1.25,3.6.59,3.98-1.1.24-1.07.2-8.17-.16-9.01-.47-1.1-1.76-1.45-2.86-1.22Z"/>
      <path class="st0" d="M115.93,112.84v1.8h-6.6v4.2c5.36-2.75,7.65,1.47,6.88,6.43-.76,4.91-9.38,4.5-8.98-.73,2.64-.88,2.1,1.62,3.51,2.04,4.58,1.37,4.82-8.11-.23-6.41-.9.3-1.02,1.72-2.98,1.07v-8.4h8.4Z"/>
      <path class="st0" d="M72.43,124.25l2.11.13c.52.35.15,1.95,1.95,2.25,4.33.71,4.63-5.48.43-5.08l-.02-1.93c3.75-.18,3.6-5.4-.14-4.99-2.2.24-.9,2.55-3.6,2.12-.98-.16-.17-1.75.16-2.25,3.45-5.32,12.24.85,6.92,5.74.65,1.23,1.53,1.43,1.75,2.99.98,6.87-9.37,7.59-9.57,1.03h0Z"/>
      <path class="st0" d="M62.23,126.65h6.3v1.8h-9.3c.03-.69-.15-1.43.16-2.1.88-1.93,5.05-5.37,6.28-7.52,2.45-4.26-3.83-6.22-4.05-1.8h-2.39c-.26-4.5,6.64-6.16,8.66-2.5,2.61,4.72-3.94,8.31-5.66,12.11h0Z"/>
      <path class="st0" d="M85.93,126.05l.23-2.62c1.92-2.67,3.02-7.67,4.9-10.1.58-.75,1.86-.58,2.67-.33l-5.4,11.25h3.9v-3.9h2.1l.13,3.62,1.68.45v1.63l-1.68.28-.13,2.12h-2.1v-2.4s-6.3,0-6.3,0Z"/>
      <path class="st0" d="M52.33,112.84v14.55c0,.08-.36,1.03-.49,1.07l-1.91-.02v-13.2l-3,2.4c-.62-3.06,2.52-5.34,5.4-4.8Z"/>
    </g>
  </g>
</svg>