<?xml version="1.0" encoding="UTF-8"?>
<svg id="Layer_1" xmlns="http://www.w3.org/2000/svg" version="1.1" viewBox="0 0 141.73 141.73">
  <!-- Generator: Adobe Illustrator 30.0.0, SVG Export Plug-In . SVG Version: 2.1.1 Build 123)  -->
  <defs>
    <style>
      .st0 {
        fill: #d2d3d4;
      }
    </style>
  </defs>
  <polygon class="st0" points="18.63 67.05 124.34 65.96 109.08 48.8 35.25 48.52 18.63 67.05"/>
  <ellipse class="st0" cx="48.33" cy="112.27" rx="4.36" ry="2.45"/>
  <ellipse class="st0" cx="57.33" cy="118.28" rx="4.36" ry="2.45"/>
  <rect class="st0" x="72.57" y="74.95" width="8.17" height="15.8"/>
  <ellipse class="st0" cx="56.33" cy="118.28" rx="4.36" ry="2.45"/>
  <ellipse class="st0" cx="42.32" cy="120.28" rx="4.36" ry="2.45"/>
  <path d="M18.06,67.97c-.53-.15-1.01-1.33-.43-1.79,5.57-5.67,10.55-11.96,16.1-17.64.32-.33.77-.88,1.23-.98l46.83-.04c1.25-.12,1.92,1.11.93,1.97l-45.76.08c-1.37-.11-2.04.83-2.89,1.71-4.42,4.55-8.37,9.58-12.87,14.05l-.16.6h23.09c.75,0,.78,2.04-.17,2.04h-17.64v21.98h8.27l.26-.26v-15.08c0-.06.94-.5,1.1-.52l25.2.17c.09.05.29.37.29.44v15.25h9.71v-15.25c0-.35.96-.58,1.27-.6,2.09-.19,7-.23,9.04,0,.38.04.67.13.93.43v15.17l.26.26h7.75c.21.77-.19,2.04-1.11,2.04H23.42v4.52l.26.26h24.88c.41,0,1.26,1.84-.51,2.05l-25.7-.04c-.58-.22-.87-.25-.96-.91-.15-1.05-.18-6.18.02-7.11.28-1.25,1.76-.7,2.69-.8v-21.98h-6.05v-.02h.01ZM80.34,76.15h-7.16v13.8h7.16v-13.8ZM59.38,76.15h-22.49v13.8h22.24l.26-.26v-13.55h0Z"/>
  <path d="M123.12,65.92l-1.28-1.71-13.54-14.58c-6.9-.17-13.82-.03-20.72-.08-.35,0-.69.13-.99.12-1.6-.07-1.61-2.03-.03-2.16l22.75.09,17.3,18.84c.35.44-.22,1.53-.68,1.53h-6.05v21.98h2.47c.17.11.22.24.26.43.26,1.4-.03,4.2,0,5.8.01.93.58,2.01-.67,2.56l-15.93.07c-.79-.16-1.35-.86-1.29-1.69-.42-.03-.85,0-1.27,0-.21,0-.63.13-.59-.17.89.14,1.8-.14,2.63-.18,4.7-.2,10.1.45,14.67.02.19-.02.39,0,.52-.18.1-.12-.1-.21-.1-.26v-4.35h-24.63c-.16,0-.81-.59-.92-.79-.99-1.88,1.41-1,2.25-1.28l.26-.26.02-14.63.21-.72c.16-.12.37-.17.57-.19,1.94-.27,5.08-.02,7.15,0,.3,0,.58-.15.85-.14.62,0,2.13.07,2.38.65l.26,15.33h8.61l.26-.26v-21.73H47.54c-.75,0-.75-2.04,0-2.04h75.58s0-.02,0-.02ZM99.6,76.15v13.55l.26.26h6.82l.26-.26v-13.29c-.71-.8-1.64-.26-2.46-.25-1.05.02-2.15-.16-3.09-.16-.54,0-1.17.29-1.77.15h-.02Z"/>
  <path d="M50.01,115.69l1.02,5.45c2.11-.46.64-1.02.51-2.13-.4-3.22,3.32-5.21,6.18-4.82,2.66.36,5.82,3.55,3.71,6.18-.86,1.07-3.2,1.62-4.52,1.63-.65,0-1.96-.4-2.51-.32-.21.03-2.72,1.72-2.86,1.92s-.14.3-.17.51c-.33,2.38.38,5.67,0,8.01-.22,1.33-1.97,1.44-2.19-.18-.14-1.01.19-6.61-.04-6.87-.77.01-2.21-1.18-2.79-1.2-.23,0-1.22.54-1.75.63-2.81.5-8.19-.28-6.98-4.25,1.35-4.45,8.9-4.49,10.3,0,.4,1.3-.53,2.32,1.24,2.59l-1.27-6.82c-1.61-.26-4.42-.73-4.82-2.68-.8-3.89,4.02-6,7.25-4.87,4.15,1.46,4.57,6.81-.31,7.21h0ZM47.75,110.28c-2.4.29-4.23,3.11-.37,3.52.87.09,3.81-.01,3.99-1.1.27-1.66-2.29-2.58-3.62-2.42ZM59.67,119.21c1.41-1.26-1.48-2.97-2.77-3.02-1.45-.06-3.52,1.11-3.24,2.73.56,1.14,5.08,1.11,6,.29,0,0,0,0,.01,0ZM45.7,121.77c1.05-1.26-1.64-2.78-2.78-2.84-1.24-.06-3.71,1.13-3.27,2.6.38,1.27,5.21,1.25,6.06.24h-.01Z"/>
  <path d="M95.68,106.14l1-.79c-1.97-3.02.89-6.15,4.03-6.36,2.65-.18,6.24,1.82,5.88,4.86-.24,2.05-3.12,2.91-4.86,2.98-.89.03-2.27-.4-2.86-.31-.17.03-2.76,1.78-2.86,1.92-.14.19-.14.3-.17.51-.33,2.38.38,5.67,0,8.01-.21,1.26-1.85,1.29-2.03.35-.35-1.89.25-4.81,0-6.82-.02-.19.01-.38-.18-.5l-2.67-1.24c-2.41,1.11-7.4,1.31-8.73-1.5-.72-1.53.08-3.11,1.26-4.16,3.42-3.05,9.71-.76,9.02,4.1l1.29.5-1.44-6.82c-1.69-.38-3.04-.26-4.27-1.7-2.61-3.07,1.48-6.25,4.6-6.32,4.19-.09,7.81,4.94,3.24,7.34-.4.21-1.36.34-1.44.61l1.18,5.35h.01ZM95.8,97.74c.89-1.05-1.26-2.52-2.26-2.66-1.4-.2-4.36.38-3.99,2.28.3,1.57,5.32,1.49,6.25.38ZM100.58,101.25c-2.28.33-3.89,2.94-.54,3.34,1.01.12,4.9.2,4.47-1.56-.37-1.5-2.61-1.98-3.93-1.79h0ZM86.78,103.8c-1.09.13-3.05,1.27-2.66,2.56.41,1.36,6.03,1.38,6.28-.14.27-1.63-2.29-2.58-3.62-2.42Z"/>
  <path d="M85.79,126.08c2.69-4.31,9.73-4.24,12.41.12,1.34,2.18,1.79,5.89-.99,7.12-1.84.81-7.92.88-9.85.31-.47-.14-1.65-.91-1.82-.91-.18,0-.87.61-1.28.77-1.78.67-7.93.65-9.75.04-4.02-1.35-2.78-6.82-.04-8.98,3.48-2.74,8.52-2.05,11.07,1.53h.25ZM74.42,131.15c.94,1.02,7.2.79,8.66.48,2.25-.48,1.48-3.46.33-4.79-2.15-2.49-6.3-2.44-8.35.18-.71.91-1.53,3.17-.64,4.13ZM96.83,131.15c.53-.58.32-2.12.09-2.82-1.53-4.82-9.62-4.2-10.23.78-.28,2.3.91,2.63,2.93,2.77,1.29.09,6.4.14,7.21-.73Z"/>
  <path d="M119.2,117.9v2.47c0,.55-1.06,1.87-1.54,2.2-1.81,1.23-7.57,1.15-9.71.7s-3.3-1.57-3.41-3.75c-.19-3.92,3.32-7.12,7.15-7.1,1.25-6.24,10.3-7.47,13.51-2.15,1.22,2.02,1.7,5.35-.59,6.81-1.3.83-3.32.89-4.84.97-.24.01-.37-.1-.57-.16h0ZM118.21,115.82c3.02.18,7.47.42,5.45-4-1.81-3.96-8.85-3.65-9.73.78,1.71.58,3.42,1.57,4.28,3.21h0ZM111.15,114.54c-1.9.22-3.61,1.43-4.25,3.24-.38,1.07-.65,2.63.62,3.19,1.1.49,5.96.46,7.34.33,1.64-.16,2.46-.69,2.29-2.45-.28-2.93-3.23-4.63-5.99-4.32h-.01Z"/>
  <path d="M64.44,59.65l43.09-.04c1.31.18,1.03,1.94-.17,2.06h-42.45c-1.08-.14-1.44-1.44-.47-2.02Z"/>
  <path d="M39.22,53.86l40.53-.04c1.23.15,1.21,1.92,0,2.06h-39.89c-1.3.06-1.74-1.33-.64-2.02Z"/>
  <path d="M25.6,108.23c4.23-.57,8.68,2.13,8.74,6.68.05,3.46-2.67,4.18-5.54,4.36-2.65.16-8.63.37-9.11-3.17-.51-3.78,2.12-7.35,5.91-7.87ZM26.45,110.28c-2.22.22-4.43,1.82-4.72,4.14-.24,1.95.66,2.48,2.45,2.63,1.31.11,6.31.16,7.24-.44,1.1-.7.75-2.52.3-3.52-.88-1.92-3.22-3.01-5.27-2.81Z"/>
  <path d="M36.32,59.65l24.52-.04c1.28.12,1.22,1.9,0,2.06h-24.04c-1.21-.06-1.49-1.41-.48-2.02Z"/>
  <path d="M105.18,54.04c.52.52.17,1.88-.72,1.84l-21.33-.16c-.58-.63-.44-1.83.52-1.9h20.64c.26.02.7.03.89.22Z"/>
  <path d="M66.15,96.81l19.05-.04.85.34c.31.97.01,1.59-1.02,1.71h-18.76c-1.2-.09-1.25-1.75-.13-2.01,0,0,.01,0,.01,0Z"/>
  <path d="M61.9,103.21c-.39.18-.8.34-1.24.38-1.12.11-3.84.13-4.93-.02-1.61-.22-1.51-1.97-.18-2.19.9-.15,4.7-.14,5.6,0s1.18,1.05.74,1.82h.01Z"/>
  <path d="M69,115.09c1.74.39,4.15-.22,5.8.09.98.19,1.1,1.83-.18,2.03-.84.13-4.99.15-5.78,0-1.06-.2-1.16-2.02.16-2.13h0Z"/>
  <path d="M60.27,112.92c-.49-.49-.23-1.68.56-1.83s4.94-.13,5.78,0c1.23.19,1.26,1.83.18,2.03-.99.18-4.51.11-5.63.01-.26-.02-.7-.03-.89-.22h0Z"/>
  <path d="M62.06,105.5c1.83.18,4.56-.36,6.27-.03,1.1.21.93,1.83-.35,2.03-.89.14-4.56.14-5.43,0-1.21-.2-1.26-1.78-.49-2Z"/>
</svg>