<?xml version="1.0" encoding="UTF-8"?>
<svg id="Layer_1" xmlns="http://www.w3.org/2000/svg" version="1.1" viewBox="0 0 141.73 141.73">
  <!-- Generator: Adobe Illustrator 30.0.0, SVG Export Plug-In . SVG Version: 2.1.1 Build 123)  -->
  <defs>
    <style>
      .st0 {
        fill: #d2d3d4;
      }
    </style>
  </defs>
  <rect class="st0" x="91.1" y="63.34" width="19.62" height="36.51"/>
  <rect class="st0" x="36.34" y="119.91" width="9.14" height="11.72"/>
  <rect class="st0" x="51.35" y="119.91" width="20.54" height="11.72"/>
  <rect class="st0" x="106.65" y="106.56" width="7.3" height="16.23"/>
  <g id="Z6ZCHb">
    <g>
      <path d="M32.97,71.05c-.22,1.04-2.11,1.32-2.31-.18v-26.45l.33-1.06,59.73-.18c.42-.06,1.24.2,1.24.68v17.62l.29.29h19.15c.19,0,.86.67.86.86v36.87h8.33c.24,0,.64.73.68,1.04.18,1.37.19,6.7-.02,8.04-.26,1.66-2.29,1.01-2.29.2v-6.99h-27v29.3l2.47-.02c1.42-7.15,11.68-7.19,13.05,0h.75v-6.02c-.47-.4-1.09-.37-1.66-.64-1.56-.73-2.24-2.52-2.37-4.14-.18-2.34-.31-11.07.25-12.98,1.29-4.39,9.15-4.14,9.89.54-.39,4.17.59,9.51-.03,13.54-.28,1.79-1.93,3.44-3.78,3.4v4.4c1.99-2.98,4.88-4.04,8.43-3.26v-13.12c0-.77,1.95-1.04,2.26.04l.04,14.51c.79,1.14,1.62,2.23,1.89,3.62.22.31,6.2-.05,7.31.21,1.5.34,1.19,2.28-.31,2.38l-115.29.02c-2.53-.21-1.66-2.5-.57-2.5h5.08v-7.28c-2.73-.1-4.2-1.86-4.41-4.49-.37-4.73.28-9.95.03-14.73.61-4.15,3.88-4.21,7.36-3.95,2.17.16,3.37,1.58,3.87,3.6-.24,4.93.47,10.42.05,15.28-.22,2.53-1.85,4.23-4.41,4.3v7.28h8.81v-56.02c0-.99,2.3-.74,2.3,0v56.02h3.06v-11.01c0-.8.67-1.35,1.43-1.44,2.43-.28,5.36.21,7.85,0,.33-.03,1.06.87,1.06,1.05v11.4h3.64v-11.4c0-.36.96-1.17,1.43-1.06,6.3.43,13.33-.56,19.55,0,.7.06,1.62.45,1.62,1.25v11.2h3.64v-11.4c0-.63,1.07-1.01,1.62-1.06,1.59-.14,5.98-.21,7.47.02.43.07,1.26.64,1.26,1.04v11.4h3.06V45.49h-56.69v25.57h0ZM92.25,64.06l-.29.29v34.86l.29.29h17.43l.29-.29v-34.86l-.29-.29s-17.43,0-17.43,0ZM21.86,121.52c1.02-.26,1.82-.7,1.93-1.81.48-4.81-.37-10.43-.02-15.32-.24-.98-.86-1.37-1.8-1.46-1.38-.13-4.22-.33-4.5,1.46v15.49c.21.98.98,1.44,1.9,1.64v-6.03c0-1.15,2.49-1.15,2.49,0v6.03ZM110.54,117.4c.27,1.3-.2,3.48,0,4.88.94.13,1.41-.86,1.52-1.64.26-1.84.28-10.66-.07-12.35-.51-2.43-5.03-2.43-5.29.29-.27,2.92-.27,8.97,0,11.89.08.9.27,1.51,1.15,1.92l.39-.21c-.26-.95-.39-4.73.19-5.36s1.92-.31,2.11.58ZM43.89,121.14h-5.36v9.96h5.36v-9.96ZM70.13,121.14h-17.62v9.96h17.62v-9.96ZM84.3,121.14h-5.55v9.67c0,.06-.24.15-.19.29h5.55v-9.67s.29-.22.19-.29ZM104.98,131.1c-.82-4.1-7.23-4.1-8.04,0h8.04ZM120.69,131.1c-1.09-4.11-7.02-4.09-8.24,0h8.24Z"/>
      <path d="M82.33,86.9c.46.49.27,1.63-.38,1.92l-40.28.15c-2.22.04-2.19-2.52,0-2.51h39.28c.36,0,1.15.2,1.38.44Z"/>
      <path d="M40.77,65.64l41.23.06c.99.64.74,2.07-.46,2.21h-40.43c-1.26-.15-1.47-1.72-.33-2.27h0Z"/>
      <path d="M82.34,57.12c-.21.21-.7.22-1,.24l-40.7-.11c-1.08-.77-.67-2.13.66-2.2l40.52.09c.83.15,1.01,1.48.52,1.97h0Z"/>
      <path d="M82.33,99.06c-.55.58-1.31.22-1.95.23-13.09.16-26.19-.1-39.28.02-1.57-.2-1.29-2.29.2-2.31l40.66.15c.65.28.84,1.43.38,1.92h-.01Z"/>
      <path d="M40.96,107.58l40.37-.05c1.59.02,1.74,2.11.2,2.31h-40.43c-1.34-.15-1.49-1.97-.14-2.27h0Z"/>
      <path d="M40.77,76.17l40.76-.05c1.57.2,1.29,2.29-.2,2.31l-40.65-.15c-.97-.41-.82-1.72.09-2.11Z"/>
      <path d="M98.62,79.82c1.24-.07,7.33-.34,7.91.4.69.87,0,1.91-1.07,2.03-1.45.17-8.1.23-9.35-.05-.98-.22-1.23-1.46-.62-2.07.21-.21,2.54-.29,3.13-.32h0Z"/>
      <path d="M106.47,89.68c-.21.21-.7.22-1,.24-2.15.18-7.33.26-9.38-.03-1.32-.18-1.19-2.11.17-2.29,2.89-.38,6.6.3,9.58.01.88.11,1.16,1.52.63,2.06h0Z"/>
      <path d="M106.47,74.17c-.21.21-.7.22-1,.24-3,.25-6.35-.2-9.39,0-1.17-.22-1.2-2.02,0-2.29l10.16.17c.57.31.63,1.48.23,1.88h0Z"/>
    </g>
  </g>
</svg>