<?xml version="1.0" encoding="UTF-8"?>
<svg id="Layer_1" xmlns="http://www.w3.org/2000/svg" version="1.1" viewBox="0 0 141.73 141.73">
  <!-- Generator: Adobe Illustrator 30.0.0, SVG Export Plug-In . SVG Version: 2.1.1 Build 123)  -->
  <path d="M51,72.4c-.96-.95-.9-4.2.28-4.48,13.32.65,26.85-.66,40.13-.26,1.96.06,5.28-.22,5.64,1.95.45,2.68-1.38,3.37-3.65,3.62-9.07,1.03-29.67.81-38.96.01-1.04-.09-2.69-.11-3.44-.84Z"/>
  <path d="M133.3,67.94l.4,3.33c-.24.98-.7,1.39-1.66,1.66-2.16.59-15.26.64-17.25,0-.62-.2-1.19-.51-1.63-1.01-.77-.88-.3-3.97.67-3.97h19.46Z"/>
  <path d="M9.43,72.4c-1.29-1.28-1.06-4.26,1.25-4.67,1.56-.28,9.02-.14,10.13.88,4.81,4.43-8.97,6.17-11.38,3.79Z"/>
  <path d="M26.52,68.04c2.25.02,11.45-1.37,10.39,2.75-.97,3.75-14.64,3.95-10.39-2.75Z"/>
</svg>