<?xml version="1.0" encoding="UTF-8"?>
<svg id="Layer_1" xmlns="http://www.w3.org/2000/svg" version="1.1" viewBox="0 0 141.73 141.73">
  <!-- Generator: Adobe Illustrator 30.0.0, SVG Export Plug-In . SVG Version: 2.1.1 Build 123)  -->
  <path d="M118.1,76.39l4.08.48c2.82,4.44-4.75,3.76-7.3,2.97-.9-.72-.92-4.87-1.29-6.39-1.72-7.2-7.56-13.48-15.48-12.85-1.74.14-4.26,1.62-5.39,1.1-1.51-.71-2.65-6.48-3.89-8.63-6.62-11.49-21.53-10.09-26.6,1.93-.97,2.3-1.11,4.71-2.31,6.81-4.94.5-8.95,1.61-12.02,5.76-2.81,3.8-2.79,7.65-3.81,12.03-.48.34-10.65.41-11.79.19-2.69-.52-1.74-3.4.48-3.82,1.62-.3,7.09.4,7.85-.08,1.28-8.96,6.89-16.48,16.29-17.81,5.41-21.78,31.58-22.53,38.06-1.04,12.57-2.62,22,7.56,23.12,19.35Z"/>
  <path d="M128.96,76.54c1.25-.37,5.03-.42,5.68.86,1.36,3.27-3.62,3.4-5.68,2.79-1.8-.53-1.71-3.14,0-3.65Z"/>
  <path d="M21.33,76.54c.93-.28,2.52-.27,3.31.34l.7,1.27-.46,1.46c-.79.96-3.22.98-4.17.24l-.7-1.7c.07-.73.62-1.39,1.32-1.61Z"/>
  <path d="M16.12,76.98c1.36,4.4-5.66,4.29-4.67.76l.89-1.06,3.78.3Z"/>
</svg>