<?xml version="1.0" encoding="UTF-8"?>
<svg id="Layer_1" xmlns="http://www.w3.org/2000/svg" version="1.1" viewBox="0 0 141.73 141.73">
  <!-- Generator: Adobe Illustrator 30.0.0, SVG Export Plug-In . SVG Version: 2.1.1 Build 123)  -->
  <path d="M44.67,66.27h50.08c.4,0,2.07,1.99,2.03,2.82.42,1.01-1.44,3.53-2.03,3.53h-50.08c-.4,0-2.07-1.99-2.03-2.82l2.03-3.53Z"/>
  <path d="M110.64,66.27h16.69c.4,0,2.07,1.99,2.03,2.82.42,1.01-1.44,3.53-2.03,3.53h-16.69c-1.68,0-2.56-5.35,0-6.35Z"/>
  <path d="M32.15,71.63c-2.04,1.95-11.27.68-14.39.88l-1.19-1.19-.15-3.73c.67-2.8,22.07-2.05,15.73,4.04Z"/>
</svg>