<?xml version="1.0" encoding="UTF-8"?>
<svg id="Layer_1" xmlns="http://www.w3.org/2000/svg" version="1.1" viewBox="0 0 475.74 190.23">
  <!-- Generator: Adobe Illustrator 30.0.0, SVG Export Plug-In . SVG Version: 2.1.1 Build 123)  -->
  <g id="_x39_CGNOX.tif">
    <g>
      <path d="M97.79,89.07c-.43-.09-1.25-.81-.91-1.34l7.69-20.76c.4-.3.74-.3,1.21-.35,6.5-.58,13.87.46,20.47,0,2.06.24,1.82,2.14-.22,2.01l-20.32.02-6.48,18.4h59.8l-6.44-18.33c-.66-.44-8.7.13-10.36-.09-1.56-.21-1.57-1.82,0-2.02,2.07-.27,8.36-.24,10.46,0,.49.06.89.17,1.22.55l7.46,20.55c.23.48-.2,1.34-.69,1.34h-5c-.34,1.98.48,5.89-.04,7.62-.35,1.17-1.96.74-1.96-.18v-7.44h-49.13v19.99h9.34c-.57-4.67,2.61-4.75,2,0h7.56v-15.33h-7.56v4.33c0,.6-1.6,1.13-1.96-.04-.17-.57-.11-5.08.12-5.57.09-.2.2-.38.43-.46l28.31.19v16.55l.33.33h10.56v-4.55c0-.13.59-.93.81-.97.39-.08,1.19.66,1.19.97v13.66h3.89c.09,0,.5.26.57.37.3.49.32,5.95.21,6.85-.06.5-.17.88-.56,1.22h-4.11v32.65h7.89l.33-.33v-11.77c0-.16.7-.68.99-.57.23-.01.79.46.79.57v4.78h19.9c.39,0,1.39,1.68-.69,1.98-6.25.2-12.51-.13-18.75-.11-.26,0-.29.01-.45.24v5.22h52.02v-5.22c-.17-.23-.19-.24-.45-.24-6.62-.02-13.26.29-19.88.13-1.9.37-2.16-2-.89-2h21.23v-20.22c0-.09.26-.5.37-.57l14.96-.09c.32.23.59.48.67.89.16.86.13,9.85,0,10.76-.25,1.65-1.76.88-1.76.46v-10.11c0-.11-.37-.37-.55-.34l-11.9.34v25.88l.33.33h11.78l.33-.33v-7.33c0-.06.45-.49.6-.53.93-.02,1.32.91,1.18,1.75h7.34v-34h-42.79c-1.03,0-1.03-2,0-2h59.69v-6c-.22.07-.48-.22-.56-.22h-33.34c-.58,0-.34-1.78.22-1.78h5.89v-28.87h-39.01c-.52,0-.75-1.78.22-1.78h36.12c.08-.42-.21-.54-.46-.76-.73-.64-6.68-4.62-7.38-4.84-.35-.12-.56-.15-.93-.18-1.89-.18-5.79.42-7.3-.03-.32-.1-.57-.38-.59-.73-.04-.38.4-1,.77-1h4.78c-.33-.52-.98-.94-1.49-1.29-1.26-.89-5.64-3.93-6.84-4.05-6.56-.63-14.19.46-20.86.06-.41.09-6.52,4.13-7.12,4.66-.23.2-.46.21-.37.63h22.34c.59,0,.94,1.78.22,1.78h-25.79c-2.15,1.82-5.62,3.23-7.65,5.02-.25.22-.55.34-.46.76h8.78c.11,0,.58.56.57.79.12.28-.4.99-.57.99h-11.45v28.87h49.68l.5.28c.34.31.08,1.49-.28,1.49h-49.57l-.33.33v5.89h22.56c.13,0,.93.59.97.81.08.39-.67,1.19-.97,1.19h-22.56v18.56c0,.16-.7.68-.99.57-.23.01-.79-.46-.79-.57v-58.65l33.27-22.29,1.02-.22,33.68,22.22c-.06,1.07.23,2.12.28,3.17.27,5.59.17,12.16,0,17.79-.01.38-.5,1.88.1,1.88h26.9c.28,0,.53.7.57.99.62,4.61-.5,10.59,0,15.35.14.33-.65,1.21-.79,1.21h-15.78l-.33.33v39.77l.33.33h51.49v-15.77c-3.07,1.2-6.53,1.43-9.62.17-1.08-.44-2.63-1.03-1.74-2.47.42-.68,2.28.65,3.08.9,2.84.88,5.34.52,8.02-.63-.1-2.54.46-5.08.25-7.63-.14-1.68-1.21-4.34-1.13-5.78.03-.63.49-1.23,1.13-.9.91.48.75,2.89,1.32,3.74.24.35,1.05.48,1.13.76.2.78-.6,3.93-.67,5.06-.06.95-.23,3.89.46,4.43.64.51,3.68,1.34,4.57,1.43,6.41.66,13.07-4.92,10.99-11.64-.31-1-1.49-2.59-1.57-3.34-.06-.65.56-1.82.64-2.67.26-2.89-1.61-6.13-3.86-7.86-.66-.51-2.47-1.15-2.72-1.39-.29-.27-1.16-2.43-1.65-3.13-3.6-5.15-10.99-5.27-14.68-.09-.65.91-1.16,2.73-1.62,3.26-.42.48-2.31,1.14-3.1,1.79-1.79,1.45-3.35,4.51-3.43,6.81-.05,1.26.88,3.06.81,3.71-.05.52-.99,1.84-1.23,2.53-.66,1.93-.56,3.7-.26,5.69-2.92,1.68-2.07-4.48-1.58-5.97.21-.64.84-1.45.89-2.01.07-.7-.38-1.67-.44-2.43-.27-3.46.93-7,3.55-9.33.79-.71,2.81-1.59,3.21-2.13.98-1.31,1.34-3.02,2.82-4.51,5.2-5.26,13.67-3.44,17.36,2.6.35.57.43,1.36.84,1.83.45.51,1.93,1.02,2.66,1.57,1.66,1.26,3.68,4.06,4.1,6.12s-.32,4.24-.07,5.84c.09.55.85,1.73,1.11,2.45,2.66,7.47-4.77,14.72-12.13,14.34-2.04-.11-3.75-.98-5.66-1.56l.22,11.33c.73-.74.79-1.75,1.54-2.56.98-1.05,1.91-.88,2.74-1.42.88-.58,1.74-2.29,3.57-3.38,3.54-2.11,6.95-3.88,10.8-1.39.83.54,1.17,1.07,1.89,1.64,5.01-6.53,14.39-4.06,16.63,3.51l2.77.9,2.74,1.93v-12.33c-8.13,3.7-17.94.95-21.56-7.45,0-.49,1.23-1.1,1.56-.89.79,1.09,1.29,2.38,2.13,3.44,3.93,4.96,12.55,5.9,17.76,2.46.29-2.09,0-4.23.12-6.32.04-.67.35-1.37.41-2.03.22-2.48-.84-6.88-1.37-9.46-.25-1.2-1.61-5.53-1.5-6.28.14-.95,1.57-.54,1.97.04l2.04,10.51c.59.07.35-.01.45-.33,1.03-3.42,2.21-6.76,3.44-10.11.37-.44,1.72-.29,1.81.33l-4.59,13.56.11,1c.52-.81,4.29-3.74,3.9-1.23-.18,1.17-3.82,2.82-4.33,3.69-.45.77-.48,4.87-.36,5.89.11.94,1.82,1.47,2.69,1.76,10.25,3.42,22.18-4.96,17.44-15.87-.39-.91-1.79-2.42-1.88-3.02-.13-.84.58-2.27.67-3.31.36-4.22-1.59-8.12-4.92-10.65-.83-.63-2.58-1.21-3.1-1.79-.47-.52-.94-2.33-1.46-3.21-4.43-7.58-16.02-7.54-20.36.06-.39.68-1.39,3.49-1.58,3.64s-1.2.42-1.65.69c-1.07.64-2.83,2.52-3.75,1.37-.81-1.6,3.35-2.81,4-3.56.35-.41.94-2.18,1.34-2.88,5.24-9.29,18.57-8.99,23.79.22.3.52.87,2.2,1.05,2.39.19.2,1.17.5,1.57.77,4.56,3.04,7.51,7.5,7.05,13.18-.05.59-.6,2.43-.58,2.56.08.36.88,1.26,1.13,1.76,3.21,6.53,1.21,13.66-4.71,17.73-5.16,3.55-11.16,3.43-16.74.93v17.66c0,.12.34.49.22.78h30.45v-6.77c0-.98,1.78-.74,1.78-.22v6.66l.33.33h4.11v-27.21c0-.73,3.46-.65,4.12-.57,1.37.18,1.38,1.56-.02,1.77-.79.12-1.77-.27-2.32.35v25.32l.33.33h13v-4.78c0-.98,1.78-.74,1.78-.22v4.66l.33.33h29.9v-4.11c0-.16.7-.68.99-.57.23-.01.79.46.79.57v3.78l.33.33h12.23l.33-.33v-8.66l-.33-.33h-7.56c-.3,0-1.48-1.58-.63-2.01h8.3s.13-6.67.13-6.67l-12.25-.45-.29.05c-.03.16-.26.44-.26.52v10.66c0,.11-.56.58-.79.57-.28.12-.99-.4-.99-.57v-25.76l-.33-.33h-50.91l-.33.33v18.66c0,.52-1.41.28-1.78.11v-43.31c-.84-.14-2.99.43-3.29-.6l.18-12.5h6.78l.33-.33v-4.78h-6.78c-.56,0-.8-1.78-.22-1.78h62.02c.75,0,.51,1.78,0,1.78h-6.78v5.11h6.78c.48.4.51.86.57,1.43.22,2.43.27,8.08,0,10.45-.06.5-.17.88-.56,1.22h-3.89l.22,7.55h14.12l.33.33v10.88c0,.44-1.21.67-1.63.57-.93-.22.07-8.5-.15-9.78h-12.56l-.33.33v27.21l12.68.12v-13.32c.01-1.33,1.99-1.35,1.99-.01v33.65h13.45c.58,0,.58,1.78,0,1.78H12.65c-.11,0-.58-.56-.57-.79-.12-.28.4-.99.57-.99h21.45v-3.44c0-.08.23-.36.26-.52h1.26c.03.16.26.44.26.52v3.44h9.78v-2.89c-.8-.1-2.56.38-2.85-.6-.14-.47-.15-4.28-.04-4.84.05-.24.38-.78.55-.78h5.22v-3.11c-.89-.02-2.52.31-2.84-.82-.14-.5-.15-4.25-.04-4.83.27-1.42,2.05-.91,3.08-1.03.27-.68.13-1.54,1.03-1.67,1.03,0,.93,1.68,1.13,1.71h10.99c-.24-2.12,2.19-2.36,1.78-.01.93.14,2.87-.5,3.11.78.11.59.11,4.79-.04,5.28-.32,1.09-2.04.26-2.75.81-.21.3-.26,2.59.24,2.9h5.11c.17,0,.5.54.55.78.09.49.09,4.49-.03,4.84-.28.83-2.15.56-2.85.59v2.89h12.01c-.5-2.5-2.4-5.41-4.21-7.23-.63-.63-3.54-2.52-3.56-3.09.17-1.55,1.88-.91,2.93-.72,1.48.27,2.75.87,4.18,1.27.16-.15-1.52-2-.06-2.41,1.03-.29,1.89,1.52,2.32,2.26,1.8,3.08,2.69,6.53,3.67,9.93l2.29-.02c-.08-1.47,1.03-3.49,1.05-4.8.02-.84-1.33-3.45-1.82-4.3-2.35-4.11-5.78-6.68-10.56-7.32-.21.88.97,1,1.43,1.57.69.85.24,2.03-.83,1.73-.19-.05-2.54-1.99-3.2-2.37-.99-.56-3.42-.89-2.63-2.27.37-.63,4.67-.53,5.57-.45,1.97.17,4.73,1.2,6.4,2.27.65.42,2.31,2.12,2.71,2.19.43.07.28-.11.39-.29.51-.86,1.16-3.44,2.58-2.57,1.09.67-1.44,3.62-1.51,4.52l2.54,4.1c1.97-2.48,2.27-5.66,3.51-8.49,1-2.28,2.53-4.25,3.94-6.28-1.77.13-3.51,1.61-4.79,2.77-.68.63-.97,1.71-1.98,1.57-2.17-.31.98-3.1,1.65-3.67,1.95-1.65,4.82-3.13,7.46-3.01.97.05,2.19.28,1.55,1.57-.09.18-2.53,2.21-3.01,2.77-1.42,1.64-2.71,3.8-3.33,5.89,2.97-2.19,6.19-3.44,9.93-3.47.65,0,3.15.1,3.43.45,1.16,1.45-1.18,1.7-1.95,2.09-1.79.91-5.51,3.91-6.25,5.75-.06.15-.15.49.07.51.92-.51,1.99-.94,3-1.22.82-.22,3.26-.91,3.8-.24.99,1.22-1.23,2-1.91,2.58-2.55,2.19-4.82,5.14-5.67,8.44h11.45l.33-.33v-6.44c0-.52,1.78-.75,1.78.22v6.55h13.89l.33-.33v-24.43l-.33-.33h-13.89v9.88c0,.57-1.35.64-1.78.33v-11.66l.33-.33h16.89s.56.52.56.56v26.32h26.01v-32.65h-25.23c-.58,0-.34-1.78.22-1.78h29.57l.33-.33v-4.22l-.33-.33h-58.35v4.89h17.89c.11,0,.58.56.57.79.12.28-.4.99-.57.99h-13.23v11.22c0,.12-.4.68-.59.75-.3.16-1.19-.01-1.19-.3v-11.11c0-.07-.29-.34-.22-.56h-4.11c-.32-.28-.47-.6-.53-1.02-.2-1.26-.13-4.42-.03-5.76.04-.49.13-1.66.79-1.66h3.78l.33-.33v-28.43l-.33-.33c-1.35-.2-3.42.27-4.67,0ZM205.71,63.51l-7.85-5.3-7.71,5.3h15.56ZM377.8,83.52v4.78l.33.33h5.34l.23-.22c-.18-.38.1-.83.1-1v-3.55l-.33-.33h-5.67ZM391.36,83.52h-5.78v4.78l.33.33h5.11l.33-.33v-4.78ZM399.14,83.52h-6v4.78l.33.33h5.67v-5.11ZM406.92,83.52h-6v4.78l.33.33h5.34l.33-.33v-4.78ZM408.7,83.52v4.78l.33.33h5.34l.33-.33v-4.44l-.33-.33h-5.67ZM422.26,83.52h-5.78v5.11h5.78v-5.11ZM429.59,99.95c-.07-.22.22-.48.22-.56v-8.66l-.33-.33h-59.02v9.55h10.56l.3.37c.14.5.15,1.41-.52,1.41h-7v22.1l.33.33h50.91l.33-.33v-22.1h-31.45c-.16,0-.68-.7-.57-.99-.01-.23.46-.79.57-.79h35.68ZM125.24,93.73v14.99l.33.33h5.56l.33-.33v-14.66l-.33-.33h-5.89ZM141.02,93.73h-7.45l-.33.33v14.66l.33.33h7.11l.33-.33v-14.99ZM109.68,110.84h-5.11v7.33h5l.33-.33v-6.44c0-.07-.29-.34-.22-.56ZM118.57,110.84h-6.89v7.33h6.89v-7.33ZM127.46,118.17v-7l-.33-.33h-6.45l-.33.33v6.66l.33.33h6.78ZM136.35,118.17v-7l-.33-.33h-6.45l-.33.33v7h7.11ZM145.02,110.84h-6.89v7.33h6.89v-7.33ZM153.69,111.06c-.22.07-.48-.22-.56-.22h-5.78l-.33.33v7h6.67v-7.11ZM237.28,103.05h-5.11v5.77h5.11v-5.77ZM243.95,103.05h-4.56l-.33.33v5.44h4.89v-5.77ZM250.84,108.82v-5.44l-.33-.33h-4.56v5.77h4.89ZM257.95,108.82v-5.44l-.33-.33h-4.67l-.33.33v5.44h5.34ZM65,142.15h-17.23c-.53.66-.54,2.43,0,3.11h17.23v-3.11ZM90.56,159.25c.61-.09,2.22.24,2.56-.21.22-.3,1.11-4.32,1.44-5.23,1.49-4.14,3.9-7.9,7.45-10.55l-.23-.45c-3.88.58-6.85,2.39-9.18,5.48-.91,1.21-2.75,4.33-2.92,5.76s1.08,3.65.89,5.2ZM318,159.26h21.23c.75,0,.05-1.82-.07-2.15-.72-1.97-2.45-3.55-4.42-4.24-.7-.25-1.82-.21-2.28-.61-.37-.32-.88-2.47-1.51-3.38-2.58-3.73-7.21-4.92-10.84-1.84-1,.84-1.57,2.09-2.67,2.68-1.15.12-2.17-2-3.1-2.67-1.12-.81-2.39-1.05-3.76-.87-.26.03-2.05.57-2.13.65-.38.39.14.37.32.46,1.14.58,2.1.81,3.02,1.86.52.59,1.14,2.28,1.25,2.36.26.18,1.15.27,1.65.52,2.54,1.3,3.98,4.47,3.32,7.23ZM62.11,147.04h-11.56c.13.65-.34,2.85.36,3.08l10.99-.07.21-3.01ZM296.66,159.26h19.23c1.02-1.86,0-4.47-1.81-5.52-.69-.4-2.18-.47-2.47-.75-.24-.24-.43-1.42-.67-1.88-1.54-2.97-5.7-3.27-7.83-.78-.34.4-.63,1.38-.98,1.62-.65.47-1.62.14-2.58,1.2-.81.88-.54,1.6-1,2.33-.41.65-1.42.67-1.75,1.57-.24.66-.34,1.54-.13,2.21ZM95.01,159.26c1.73.41,1.51-1.73,2.18-2.82l3.6-5.62c-3.66,1.35-5.42,4.68-5.78,8.44ZM82.12,159.26c-.16-3.43-2.03-7.28-5.56-8.22,1.85,2.56,3.71,5.04,4.48,8.18l1.08.03ZM65,156.37h-5.67c-.16,0-.68-.7-.57-.99-.01-.23.46-.79.57-.79h8.45c.45-.34.39-1.13.34-1.68-.02-.21.02-.42-.05-.62l-.3-.37h-23.23c.12.86-.32,2.02.33,2.67h8.22c.58,0,.34,1.78-.22,1.78h-5.22l-.17,2.56.28.32h17.23v-2.89ZM241.06,154.59h-7l-.33.33v4.33h7l.33-.33v-4.33Z"/>
      <path d="M151.03,153.26c-.61.18-.98.39-1.66.46-4.32.41-13.24.38-17.58,0-.71-.06-1.46-.12-1.45-1v-18.9c0-.88.74-.93,1.45-1,5.59-.5,11.91.4,17.58,0,.4-.16,1.66.5,1.66.79v19.66ZM149.25,142.38v-7.44l-.33-.33h-6.89c-.07,0-.34.29-.56.22v7.55c4.18-.58,4.17,2.34,0,1.78v7.77h7.45l.33-.33v-7.44c-.93-.11-3.48.51-3.34-.99.1-1.41,3.07-.51,3.34-.79ZM139.69,134.82h-7.56v7.55h7.56v-7.55ZM139.69,144.15h-7.56v7.55h7.56v-7.55Z"/>
      <path d="M149.19,169.75c.53.52.19,1.28-.39,1.61l-91.7.12c-2.1.11-2.4-1.96-.22-2.02h91.16c.35.03.9.04,1.16.29Z"/>
      <path d="M171.31,105.88l.04-19.29,22.16.11-.11,19.26-22.09-.07ZM191.93,88.17h-18.9v7.55h18.56l.33-.33v-7.22ZM181.48,97.49h-8.34l-.33.33v6.22l.33.33h8.34v-6.89ZM191.93,97.49h-8.34l-.33.33v6.22l.33.33h8l.33-.33v-6.55Z"/>
      <path d="M222.83,105.93h-22.45v-19.21l.33-.33h21.79l.33.33v19.21ZM221.05,88.17h-18.9v7.55h3.22c.16,0,.68.7.57.99.01.23-.46.79-.57.79h-3.22v6.89h8.45v-6.89l-2.96-.2c-.61-.39-.22-1.57.41-1.57h13v-7.55ZM221.05,97.49h-8.34c-.51.31-.11.48-.11.56v6.33h8.34c.51-.31.11-.48.11-.56v-6.33Z"/>
      <path d="M294.55,175.69l-.45-1.1.57-.56h89.36c.69.33.5,1.66.11,1.66h-89.59Z"/>
      <path d="M211.05,127.93h-35.9l-.33.33v19.11l.33.33h18.9c.68,0,.74.97.35,1.47l-.58.3-20.33-.1c-.46-.26-.41-.65-.46-1.1-.23-2.4-.3-18.81,0-21.13.05-.38.08-.67.45-.88l38.56-.1c.61.12.72.42.79.98.27,2.02.27,19.34,0,21.36-.04.29-.28.99-.57.99h-7.56c-.11,0-.58-.56-.57-.79-.12-.28.4-.99.57-.99h6l.33-.33v-19.45Z"/>
      <path d="M45.05,119c.24.24,1.41.69,1.92,1.08,2.01,1.54,3.69,4.12,4,6.67.26,2.14.05,1.83.8,3.86.37,1.01,2.25,6.64-.18,5.97-.76-.21-.7-2.6-.93-3.52-.29-1.15-1.22-2.41-1.4-3.27-.16-.79.05-1.62-.05-2.39-.38-2.95-1.85-4.82-4.23-6.43-.42-.28-.99-.31-1.33-.67-.42-.43-.97-2.25-1.58-3.08-3.64-4.97-11.43-4.51-14.37.89-.3.56-.72,2.19-.98,2.46-.22.24-1.44.62-1.88.9-2.4,1.56-4.06,4.37-4.05,7.28,0,1.08.78,2.65.64,3.51-.2,1.26-1.51,2.52-1.51,4.68,0,1.53,1.71,4.22-.9,3.85-.96-1.98-1.12-4.05-.6-6.19.18-.73,1.13-2.44,1.14-2.77.02-.72-.61-2.22-.6-3.34.03-2.98,1.73-6.14,4.04-7.97.56-.45,1.98-1.09,2.31-1.47.43-.5.96-2.26,1.58-3.09,4.2-5.59,13.17-5.31,16.95.58.36.57.89,2.14,1.21,2.46Z"/>
      <path d="M35.88,132.38c.32.06.41,0,.65-.16,1.08-.69,3.27-4.4,4.03-1.74-.24.88-4.68,4.56-4.68,4.9v3.44c1.25-.22,3.35-4.05,4.67-3.23.2.13.42.61.4.86-.08.88-4.34,4.36-5.06,5.36v7.11c0,.11-.56.58-.79.57-.28.12-.99-.4-.99-.57v-6.66c-.6-1.03-4.88-4.54-4.89-5.34,0-.36.43-.66.67-.89l.44-.02c1.43.83,2.28,2.6,3.77,3.25v-3.89l-5.78-5.83-.22-.62c1.6-2.58,4.16,3.03,5.99,3.45v-8.11c0-.11.56-.58.79-.57.28-.12.99.4.99.57v8.11Z"/>
      <path d="M412.47,141.49c-.32.32.86,4.6-1.49,3.27-.07-.07-.28-.44-.28-.49v-10.66l-.33-.33h-4.22l-.52-.97c.24-.45.72-.72,1.2-.79,2.25-.36,9.12-.23,11.55-.02.57.05,1.12.15,1.66.34.17.13.46,2.64.46,3.11,0,.52-.24,1.01-.25,1.55-.01.81.31,5.01-.55,5.01h-7.22ZM418.7,133.27h-5.89l-.33.33v5.89c.22-.07.48.22.56.22h5.45l.22-6.44Z"/>
      <path d="M318.86,131.46c-1.94,1.03-2.15-1.02-2.2-2.51-.05-1.27.23-3.07.61-4.29.32-1.01,1.78-3.02,1.84-3.51.1-.73-.59-2.38-.66-3.32-.21-2.51.73-5.94,2.26-7.95.46-.6,1.65-1.71,2.31-.83.4.53-1.49,3.06-1.79,3.79-.67,1.64-.93,3.44-.78,5.21.09,1.07.75,2.37.68,3.33s-1.36,2.29-1.76,3.36c-.85,2.26-.59,4.37-.51,6.71Z"/>
      <path d="M393.58,140.6c-1.43-.53-2.77-.02-4.1,0-.41,0-.84-.26-1.33-.24-.88.03-3.61.84-4.01,0-.58-1.2.23-1.66,1.33-1.78,1.85-.2,6.38-.2,8.23,0,.73.08,1.7.29,1.68,1.21-.36,1.79.38,4.55.17,6.17-.07.56-.3,1.16-.96,1.08-.5.17-1-.68-1-1.02v-5.44Z"/>
      <path d="M244.5,175.69c-.64-.2-.64-1.64.88-1.79,4.19-.41,9.07.33,13.34.02,1.15.22.85,1.77.45,1.77h-14.67Z"/>
      <path d="M169.98,169.75c.25-.25.81-.26,1.16-.29,3.63-.31,7.68.26,11.36,0,1.94.59,1.4,1.8-.46,2.01-2.34.26-8.33.26-10.67,0-.93-.1-2.37-.76-1.39-1.72Z"/>
      <path d="M407.81,147.48l.21,1.19c-.11.33-.72.47-1.04.53-.99.18-7.75.21-8.52-.05-.21-.07-.4-.17-.55-.34-.26-.3-.1-1.34.23-1.34h9.67Z"/>
      <path d="M391.91,131.49h8c.4,0,.62,1.47-.27,1.73-.6.18-6.74.15-7.46,0-1.06-.23-1.11-1.11-.27-1.73Z"/>
      <path d="M300.17,122.66c.25.24.15.66.09.96-.17.77-2.11,6.73-2.38,6.98-.2.19-.29.26-.57.13-.59-.11-.78-1.19-.75-1.72.05-.89,1.69-5.82,2.33-6.29.38-.28.9-.43,1.28-.06Z"/>
      <path d="M23.93,145.65c-.5-.54-.28-1.4.51-1.5.64-.08,1.37.37,2.01.42s1.56.09,2.21.03c1.17-.11,2.72-1.19,3.18.36-.63,2.09-6.9,1.76-7.91.68Z"/>
      <path d="M407.25,173.92c1.05.17.8,1.78.22,1.78h-6.45c-.73,0-.31-1.78-.11-1.78,1.76,0,4.76-.26,6.34,0Z"/>
      <path d="M422.87,148.99c-1.02.31-5.81.57-6.29-.17-.94-1.42,1.51-1.53,2.44-1.57.63-.03,3.74.04,4.03.44l-.18,1.3Z"/>
      <path d="M38.66,147.93c-.18-.05-.55-.54-.57-.79l.45-.88c1.77-.02,3.79-.44,5.47-.13.89.98-.42,1.8-1.35,1.8s-3.36.18-4,0Z"/>
      <path d="M182.04,78.17h4.45c.11,0,.58.56.57.79.12.28-.4.99-.57.99h-4.45c-.11,0-.58-.56-.57-.79l.57-.99Z"/>
      <path d="M133.85,66.68c.8-.18,4.65-.33,4.27,1.13-.28,1.05-3.41.96-4.27.77-1.36-.3-1.36-1.6,0-1.9Z"/>
      <path d="M122.68,146.6c.68.21.61,1.78-.22,1.78h-4c-.11,0-.58-.56-.57-.79-.12-.28.4-.99.57-.99.88,0,3.64-.18,4.22,0Z"/>
      <path d="M385.33,147.23c-.59.09-1.18.18-1.31-.53s-.11-4.24.31-4.57c2.46-1.73,1.27,4.92.99,5.1Z"/>
      <path d="M390.25,175.69c-1.11-2.2,2.26-1.93,3.68-1.79,1.83.18,1.21,1.79.88,1.79h-4.56Z"/>
      <path d="M294.88,125.71c-1.08.23-1.37.45-1.89-.66-.46-.97-1.57-4.61.56-3.9.69.35,1.13,3.68,1.33,4.56Z"/>
      <path d="M280.1,137.57c.5,0,2.79,2.63,2.8,3.14.04,2.35-4.12-1.05-3.77-2.4l.97-.75Z"/>
      <path d="M163.92,139.82c.05-.18.54-.55.79-.57.28-.12.99.4.99.57v3.78c0,.11-.56.58-.79.57-.28.12-.99-.4-.99-.57,0-.86-.17-3.16,0-3.78Z"/>
      <path d="M388.88,131.52l.24,1.16c-.28.87-3.15.5-3.87.36-.62-.13-.72-.63-.54-1.19.25-.76,3.42-.36,4.17-.33Z"/>
      <path d="M114.9,100.47c1.34,0,1.25,3.13.67,3.7-1.81,1.79-2.45-3.71-.67-3.7Z"/>
      <path d="M41.05,128.99c-.68-.69.36-1.8.91-2.31.62-.58,2.25-1.73,2.38-.18.05.64-2.1,2.72-2.76,2.71-.18-.04-.4-.09-.53-.22Z"/>
      <path d="M188.97,151.97c.58-.17,2.74-.15,3.07.39.53,1.7-1.86,1.84-3.02,1.46-.97-.32-.86-1.62-.06-1.85Z"/>
      <path d="M394.89,148.61c.27.19.77,4.35-.75,3.99-1.27-.11-1.33-4.71.75-3.99Z"/>
      <path d="M198.75,147.75c.68-.2,2.91-.24,3.24.46.73,1.54-2.42,1.52-3.25,1.23-.65-.22-.84-1.44,0-1.7Z"/>
      <path d="M192.21,117.09c.45-.44,2.97-.55,3.24.32.72,2.39-4.99,1.41-3.24-.32Z"/>
      <path d="M413.75,147.54c.17.15.31.71.29.95-.08.98-2.48.87-3.18.56l-.24-.28c-.89-1.8,2.47-1.8,3.13-1.22Z"/>
      <path d="M372.27,146.41h1.16s.33.33.33.33c-.03.76.39,2.93-.57,3.16-1.76.08-1.25-2.34-.92-3.49Z"/>
      <path d="M110.15,150.12c-.36-.53-.41-3.42.12-3.54,2.34-.54,1.7,4.67-.12,3.54Z"/>
      <path d="M208.55,70.9c.2.19.28.62.25.9-.22.91-3.31.8-3.5.24-.61-1.83,2.69-1.69,3.25-1.14Z"/>
      <path d="M233.44,145.1c.4.41.52,2.8-.17,3.17-2.15,1.08-1.64-4.99.17-3.17Z"/>
      <path d="M34.38,150.87c2.48-1.19,1.75,4.51.04,3.08-.55-.46-.4-2.43-.04-3.08Z"/>
      <path d="M154.29,99.54c1.95-.64,1.8,2.92.37,3.05-1.03.09-1.38-2.71-.37-3.05Z"/>
      <path d="M121.51,125.11c.35-.39,2.41-.51,2.73.17,1.06,2.1-4.31,1.62-2.73-.17Z"/>
      <path d="M22.71,144.1c-.92.9-2.8-1.02-2.36-2.13,1.03-1,3.23,1.28,2.36,2.13Z"/>
      <path d="M218.32,108.87c2.26-.68,3.15,1.46,1.73,1.73-.41.08-1.53.06-1.89-.11-.69-.33-.57-1.4.16-1.62Z"/>
      <path d="M384.46,148.38c.32.75.4,2.27-.6,2.39-1.91.23-1.07-2.64.6-2.39Z"/>
      <path d="M376.35,122.39c-.82-.25-.3-1.96-.31-2.56-.07-2.58-.06-4.94,0-7.54.04-2.04-.34-5.54,0-7.34.06-.35.18-.47.5-.61l44.98-.18c.65-.08,1.3.37,1.43,1.02.42,2.24-.31,5.63.01,8-.72,2.46.22,5.85-.24,8.2-.11.56-.96,1.01-1.44,1.01h-44.9ZM377.8,106.28v5.55l.33.33h6.56l.22-5.99-6.61-.18-.5.29ZM393.36,105.95h-6.34l-.33.33v5.89h6.67v-6.22ZM401.8,112.17c.13-1.7.43-3.76.23-5.45-.04-.32-.03-.57-.34-.77h-6.22c-.91,1.85.2,4.19-.11,6.22h6.45ZM403.81,106.28v5.89h6.67v-5.99c-1.74-.04-3.49.05-5.23,0-.56-.01-1.08-.45-1.44.1ZM420.92,112.17l.19-5.85-.3-.37h-8.22c-.3.2-.28.52-.28.83.02,1.74.32,3.61.17,5.39h8.45ZM384.69,120.61v-6.33l-.33-.33h-6c-.07,0-.34.29-.56.22v6.11c.16.27.89.33,1.22.33h5.67ZM393.36,113.95h-6.67v6.66c2.23-.05,4.47.17,6.67-.22v-6.44ZM401.8,113.95h-6.45l-.13,6.21.24.45h6.34c-.12-2.25.42-4.43,0-6.66ZM410.47,113.95h-6.67v6.44c2.19.45,4.46.2,6.67,0v-6.44ZM412.47,113.95v6.33l.33.33h7.78l.33-.33v-6l-.33-.33h-8.11Z"/>
      <path d="M386.35,99.95h3.78c.75,0,.51,1.78,0,1.78h-3.78c-.11,0-.58-.56-.57-.79l.57-.99Z"/>
      <path d="M54.91,154.62c1.1-.15,2.68-.19,2.2,1.3-1.11,1.14-3.54.2-2.2-1.3Z"/>
    </g>
  </g>
</svg>