<?xml version="1.0" encoding="UTF-8"?>
<svg id="Layer_1" xmlns="http://www.w3.org/2000/svg" version="1.1" viewBox="0 0 141.73 141.73">
  <!-- Generator: Adobe Illustrator 30.0.0, SVG Export Plug-In . SVG Version: 2.1.1 Build 123)  -->
  <path d="M66.46,33.31c48.68-3.58,54.45,70.89,5.07,74.63-47.85,3.63-54.39-71-5.07-74.63ZM63.43,40.1c-31.58,3.98-34.91,53.37-.76,60.84,45.8,10.01,52.33-67.33.76-60.84Z"/>
  <path d="M115.99,68.03c3.26-.6,8.28-2.37,10.48.93,4.16,6.27-15.71,7.82-10.48-.93Z"/>
  <path d="M12.32,68.06c2.24-1.94,12.19-1.23,11.07,3.06-1.05,4.07-11.09,3.59-11.95.78-.2-1.07.09-3.17.87-3.84Z"/>
  <path d="M118.65,95.29c2.01,2.07.86,5.98-2.33,5.69-1.71-.16-8.38-3.7-8.05-6.27l1.05-1.93c1.76-2.02,8.08,1.24,9.33,2.52Z"/>
  <path d="M118.65,45.75c-1.25,1.28-7.57,4.54-9.33,2.52-4-3.14,4.76-8.01,7-8.21,3.19-.29,4.34,3.62,2.33,5.69Z"/>
  <path d="M43.77,120.65l-3.64-.23c-4.47-2.24,4.08-14.68,7.2-9.46,1.78,2.98-2.56,6.89-3.57,9.69Z"/>
  <path d="M40.67,20.33c3.5-1.36,7.65,7.06,6.95,9.22l-3.73,1.72c-1.9-.53-5.67-7.17-5.17-8.99l1.95-1.95Z"/>
  <path d="M21.71,40.06c1.88-.15,8.3,4.11,8.31,6.25l-1.24,2.29c-1.95,1.54-8.64-2.06-9.47-3.42-1.27-2.09-.12-4.92,2.39-5.12Z"/>
  <path d="M95.13,20.33c8.56-2.92,2.31,11.8-2.08,10.89-5-1.03.11-10.22,2.08-10.89Z"/>
  <path d="M71.81,23.89c-7.36,4.51-7.6-10.01-3.72-10.93,5.61-1.34,3.59,7.42,3.72,10.93Z"/>
  <path d="M92.08,110.31c5.39-1.81,11.45,11.84,3.69,10.54-2.5-.42-7.17-9.37-3.69-10.54Z"/>
  <path d="M29.43,92.93c2.26,3.58-5.45,8.05-8.45,8.12-7.57-4.2,6.45-11.28,8.45-8.12Z"/>
  <path d="M66.8,127.43c-1.45-1.47-1.47-9.26.33-10.45,7.45-4.91,5.98,16.83-.33,10.45Z"/>
</svg>