<?xml version="1.0" encoding="UTF-8"?>
<svg id="Layer_1" xmlns="http://www.w3.org/2000/svg" version="1.1" viewBox="0 0 141.73 141.73">
  <!-- Generator: Adobe Illustrator 30.0.0, SVG Export Plug-In . SVG Version: 2.1.1 Build 123)  -->
  <g id="Z6ZCHb">
    <g>
      <path d="M275.57,160.23c-.72-.16-1.73-1.35-1.21-2.16l11.39-25.57.84-.36c3.83.32,8.26-.4,12.02,0,1.47.16,2.07,1.88.97,2.66-1.22.87-10.71-.41-11.8.44l-9.7,21.86h98.4l-9.76-22.09-63.21-.34c-.69-.69-.5-1.86.31-2.36l64.58-.12.94.98,11.01,25.48c.1.69-.7,1.57-1.34,1.57h-5.88v12.84c0,1.05-2.88,1.05-2.88,0v-12.84h-85.92v7.92c2.15-.59,4.96-4.71,7.21-3.97l20.4,15.36c.36.27.42.54.48.96.41,3.11-.24,7.26-.12,10.47-1.39,2.39-3.08-.53-4.69-.97v28.56h10.56v-26.28c0-.15.96-1,1.31-.85,4.76.5,10.78-.63,15.38,0,.52.07,1.31.61,1.31,1.09v23.88c.84-.09,1.73-.78,2.48-1.24.63-.4,4.09-2.66,4.2-3l.17-19.99,1.18-.74c6.44.58,14.13-.74,20.42,0,.72.09,1.56.53,1.56,1.32v15.96h4.08v-30.84c0-.99,2.88-1.24,2.88.24v30.6l3.36.12c3.09,3.83,4.92,8.48,7.56,12.6.52,1.53.65,5.48-.02,6.93-1.11,2.41-5.91,2.77-8.26,3.02-2.12,5.94-9.74,6.07-11.91.11l-19,.06c-1.51,5.87-9.89,5.72-11.6,0-6.16-.05-9.39.76-8.85-6.65.1-1.33.41-2.29.97-3.47h-42.96v12.36c0,.48-.79,1.02-1.31,1.09-5.05.69-11.43-.74-16.58.24l-1.68-.72v-26.4c.14-.15.66-.72.72-.72h10.08l.31-.36c0-.1-.19-.18-.19-.24v-16.68c-1.53.98-4.25,3.64-4.57.13-.29-3.17.2-6.82.06-10.04,3.71-3.6,8.31-6.21,12.19-9.65v-10.2c-1.69-.25-4.33.34-5.88,0h-.01ZM309.53,187.11v-5.64l-18.8-13.99-18.64,13.99v5.64l18.62-13.44,18.82,13.44h0ZM304.73,218.55v-30.84l-13.81-10.45c-.48-.05-.79.31-1.15.53-4.35,2.82-8.38,6.92-12.88,9.56v19.92h4.44c.24,0,1.08.84,1.08,1.08v10.2h2.88v-26.28c0-.16.77-.77,1.09-.83,1.17-.22,7.37-.19,8.65-.02.52.07,1.31.61,1.31,1.09v26.04h8.4,0ZM293.45,194.31h-5.28v24.24h5.28v-24.24ZM321.05,218.55h7.56c.11,0,1.56-.7,2.04-.84.87-.26,1.97-.15,2.64-.72v-22.32l-.36-.36h-11.88v24.24h0ZM352.97,194.31h-7.2v15.84c2.34-1.15,4.55-1.68,7.2-1.44v-14.4ZM363.05,194.31h-6.84l-.36.36v14.04h7.2v-14.4h0ZM265.61,231.99h13.56l.36-.36v-21.12l-.36-.36h-13.56v21.84ZM327.53,223.95c-.26,1.18.19,3.16,0,4.44h5.76c1.76-6.24,9.83-5.88,11.92,0h18.2c.75-.15.99-1.51,1.45-2.15,2.93-4.09,9.68-2.75,10.81,2.16.7.19,5.27-.84,5.64-1.31.4-1.36.35-3.34-.15-4.7-.36-.96-1.12-1.6-1.59-2.49-1.48-2.79-2.73-5.74-4.76-8.2h-24.49c-4.02.62-9.02,6.26-12.78,7.61-2.9,1.04-6.52.51-8.82,2.94-.24.25-1.14,1.46-1.19,1.69h0ZM338.99,226.77c-3.75.21-3.83,5.66-.53,6.17,4.88.75,4.81-6.41.53-6.17ZM372.09,227.75c-2.79-2.88-7.34,1.26-4.61,4.25s7.37-1.4,4.61-4.25Z"/>
      <path d="M475.13,155.67c-1.43-.13-3.6.62-3.85-1.31l5.06-18.97.88-1.04,74.13.17c.96,1.02.39,2.5-.97,2.67l-71.25-.02-4.24,15.61h102.48l-4.11-15.57-16.89-.03c-1.92,0-2.1-2.65-.25-2.9l19.23.23c.44.32.76,1.62.94,2.18,1.87,5.76,2.94,11.85,4.69,17.65-.26,1.93-2.42,1.18-3.85,1.31v28.56c.82-.11,1.41.3,1.69,1.07,1.4,5.28,3.27,10.46,4.67,15.73.16.6.77,2.49.72,2.91-.06.49-.76,1.41-1.2,1.41h-5.88v29.16c0,.13-.43.95-.59,1.09-.74.66-1.58.21-2.4.22-32.57.21-65.14-.14-97.7.02-.36,0-.6-.09-.84-.36-.68-.76-.59-6.41-.4-7.63.12-.8.38-1.66,1.27-1.87.6-.32,1.78.96,1.78,1.33v5.64h6v-22.2c0-.68.96-1.03,1.55-1.09,3.39-.34,7.36.28,10.81.02.37-.06,1.08.87,1.08,1.08v22.2h76.32v-27.6h-95.76v16.2c0,1.79-3.12,1.79-3.12,0v-16.2h-5.88c-.42,0-1.31-1.03-1.21-1.56l5.57-19.02c.22-.56.98-.53,1.51-.54v-28.56h.01ZM574.01,155.67h-95.76v28.56h95.76v-28.56ZM580.73,202.23l-4.36-14.72-.56-.4-99.73.11-4.55,15.01h109.2ZM494.81,212.55h-7.68v20.4h7.08c.08,0,.2.43.49,0-.13-6.74-.32-13.63.11-20.4h0Z"/>
      <path d="M447.17,309.75c-.74-.21-1.42-1.88-.6-2.52,7.85-7.98,14.86-16.84,22.68-24.84.46-.47,1.09-1.24,1.73-1.39l65.96-.06c1.75-.16,2.7,1.56,1.31,2.77l-64.45.11c-1.93-.16-2.87,1.17-4.07,2.41-6.22,6.41-11.79,13.49-18.13,19.79l-.23.85h32.52c1.05,0,1.09,2.88-.24,2.88h-24.84v30.96h11.64l.36-.36v-21.24c0-.09,1.33-.7,1.55-.73l35.49.24c.12.08.4.52.4.62v21.48h13.68v-21.48c0-.49,1.35-.81,1.79-.85,2.94-.27,9.86-.33,12.74,0,.54.06.95.18,1.32.6v21.36l.36.36h10.92c.3,1.09-.26,2.88-1.56,2.88h-92.76v6.36l.36.36h35.04c.58,0,1.77,2.59-.72,2.88l-36.19-.06c-.82-.3-1.22-.35-1.35-1.28-.21-1.47-.26-8.7.03-10.02.39-1.76,2.47-.98,3.79-1.13v-30.96h-8.53,0ZM534.89,321.27h-10.08v19.44h10.08v-19.44ZM505.37,321.27h-31.68v19.44h31.32l.36-.36v-19.08h0Z"/>
      <path d="M595.13,306.87l-1.8-2.4-19.07-20.53c-9.72-.24-19.46-.05-29.18-.12-.49,0-.97.18-1.39.16-2.26-.1-2.27-2.86-.04-3.04l32.04.13,24.36,26.53c.5.62-.31,2.15-.95,2.15h-8.52v30.96h3.48c.24.15.31.33.36.6.36,1.98-.04,5.92-.01,8.17.02,1.31.81,2.82-.94,3.6l-22.44.09c-1.12-.23-1.9-1.2-1.82-2.38-.59-.04-1.2.01-1.79,0-.29-.01-.89.18-.84-.24,1.26.2,2.53-.2,3.71-.25,6.62-.28,14.22.64,20.66.02.27-.03.55.01.73-.25.14-.17-.14-.3-.14-.36v-6.12h-34.68c-.23,0-1.14-.83-1.29-1.11-1.39-2.65,1.98-1.41,3.18-1.8l.36-.36.03-20.61.3-1.02c.23-.17.51-.24.8-.27,2.73-.38,7.15-.03,10.08-.01.42,0,.82-.21,1.19-.2.88.01,3.01.1,3.36.92l.36,21.6h12.12l.36-.36v-30.6h-99c-1.05,0-1.05-2.88,0-2.88h106.44l-.02-.02h0ZM562.01,321.27v19.08l.36.36h9.6l.36-.36v-18.72c-1-1.13-2.3-.37-3.47-.35-1.48.02-3.03-.23-4.36-.23-.76,0-1.65.41-2.49.22h0Z"/>
      <path d="M492.17,376.95l1.44,7.68c2.97-.65.9-1.44.71-2.99-.56-4.54,4.67-7.34,8.7-6.79,3.74.51,8.2,5,5.22,8.7-1.22,1.51-4.5,2.28-6.37,2.29-.92,0-2.76-.57-3.54-.45-.3.05-3.83,2.43-4.03,2.7s-.19.42-.23.73c-.46,3.35.54,7.98,0,11.28-.31,1.88-2.77,2.02-3.08-.25-.2-1.43.27-9.31-.05-9.67-1.08.02-3.11-1.67-3.93-1.69-.33-.01-1.72.76-2.46.89-3.96.7-11.53-.4-9.83-5.99,1.9-6.27,12.54-6.32,14.5,0,.57,1.83-.75,3.27,1.75,3.65l-1.79-9.61c-2.26-.36-6.22-1.02-6.79-3.77-1.13-5.47,5.67-8.45,10.22-6.86,5.85,2.05,6.44,9.6-.43,10.15h-.01ZM488.99,369.33c-3.37.41-5.95,4.38-.52,4.95,1.23.13,5.37-.02,5.62-1.55.38-2.33-3.23-3.64-5.1-3.41h0ZM505.77,381.92c1.99-1.77-2.09-4.18-3.9-4.25-2.04-.08-4.95,1.57-4.56,3.85.78,1.6,7.16,1.56,8.45.4h0ZM486.1,385.53c1.48-1.77-2.31-3.91-3.92-4-1.74-.09-5.23,1.6-4.61,3.66.54,1.79,7.34,1.76,8.53.34Z"/>
      <path d="M556.49,363.51l1.41-1.11c-2.78-4.25,1.26-8.66,5.67-8.96,3.73-.25,8.79,2.56,8.28,6.84-.34,2.89-4.4,4.1-6.85,4.19-1.26.05-3.19-.56-4.03-.43-.24.04-3.88,2.5-4.03,2.7-.2.27-.19.42-.24.72-.46,3.35.54,7.98,0,11.28-.29,1.77-2.61,1.81-2.86.49-.5-2.67.36-6.78,0-9.61-.03-.26.02-.53-.25-.71l-3.76-1.74c-3.4,1.56-10.43,1.85-12.29-2.12-1.01-2.15.11-4.38,1.77-5.86,4.82-4.3,13.68-1.07,12.7,5.77l1.82.71-2.03-9.61c-2.39-.54-4.29-.37-6.01-2.39-3.67-4.32,2.09-8.81,6.48-8.9,5.9-.12,11,6.95,4.57,10.34-.57.3-1.91.48-2.03.86l1.67,7.53h.01ZM556.66,351.68c1.25-1.49-1.77-3.55-3.19-3.75-1.97-.28-6.13.53-5.62,3.21.43,2.21,7.49,2.1,8.8.54h.01ZM563.39,356.62c-3.21.47-5.47,4.14-.76,4.71,1.43.17,6.9.28,6.29-2.19-.52-2.12-3.68-2.79-5.53-2.52h0ZM543.95,360.21c-1.54.19-4.29,1.78-3.75,3.61.57,1.92,8.49,1.94,8.85-.2.38-2.29-3.22-3.64-5.1-3.41h0Z"/>
      <path d="M542.56,391.59c3.79-6.07,13.7-5.98,17.48.17,1.89,3.07,2.52,8.3-1.4,10.03-2.59,1.15-11.16,1.24-13.87.44-.66-.19-2.33-1.28-2.57-1.28-.26,0-1.22.86-1.8,1.08-2.51.95-11.17.92-13.73.06-5.66-1.9-3.92-9.61-.06-12.65,4.9-3.85,12-2.89,15.6,2.15h.35ZM526.55,398.73c1.33,1.44,10.14,1.11,12.19.67,3.17-.68,2.09-4.87.47-6.74-3.03-3.51-8.88-3.43-11.76.25-1,1.28-2.16,4.46-.91,5.82h.01ZM558.11,398.73c.75-.81.45-2.98.13-3.97-2.15-6.79-13.55-5.92-14.41,1.09-.39,3.24,1.28,3.7,4.13,3.91,1.82.13,9.02.19,10.15-1.03h0Z"/>
      <path d="M589.61,380.07v3.48c0,.78-1.49,2.64-2.18,3.1-2.55,1.73-10.66,1.62-13.68.99s-4.65-2.21-4.8-5.28c-.26-5.52,4.68-10.03,10.07-9.99,1.76-8.79,14.5-10.52,19.03-3.02,1.72,2.85,2.39,7.54-.83,9.59-1.84,1.17-4.67,1.25-6.81,1.37-.33.02-.52-.13-.81-.22v-.02h0ZM588.22,377.14c4.25.26,10.52.59,7.67-5.63-2.55-5.57-12.46-5.15-13.7,1.1,2.41.82,4.81,2.21,6.03,4.53ZM578.27,375.34c-2.67.31-5.08,2.02-5.99,4.57-.54,1.51-.91,3.7.87,4.5,1.55.69,8.4.65,10.33.46,2.31-.23,3.46-.97,3.22-3.45-.4-4.13-4.55-6.53-8.43-6.08Z"/>
      <path d="M512.49,298.04l60.69-.06c1.84.25,1.44,2.74-.24,2.9h-59.78c-1.51-.2-2.03-2.03-.66-2.85h-.01Z"/>
      <path d="M476.97,289.88l57.09-.06c1.73.21,1.71,2.71,0,2.9h-56.18c-1.83.08-2.45-1.87-.9-2.85h-.01Z"/>
      <path d="M457.79,366.46c5.96-.81,12.23,3,12.32,9.41.07,4.88-3.77,5.89-7.81,6.13-3.73.23-12.15.51-12.83-4.47-.72-5.32,2.99-10.36,8.32-11.08h0ZM459,369.34c-3.12.3-6.24,2.56-6.65,5.83-.34,2.75.94,3.49,3.45,3.71,1.84.16,8.88.22,10.2-.62,1.55-.99,1.06-3.55.42-4.96-1.23-2.7-4.53-4.24-7.42-3.96h0Z"/>
      <path d="M319.3,167.24c1.12-.25,7.58-.23,8.81-.04,1.15.18,1.49.96,1.59,2.01.45,4.88-.36,10.42,0,15.38.02.54-.49,1.46-.97,1.67-.53.24-8,.25-9,.13-.59-.07-1.07-.23-1.44-.72l.1-17.9c.26-.24.56-.45.91-.53h0ZM326.57,183.51v-13.08l-.36-.36h-4.8l-.36.36v13.08h5.52,0Z"/>
      <path d="M347.38,167.74c.29.36.31.8.32,1.24l-.14,16.44c-.44.53-.71.88-1.42.98-.95.13-8.74.09-9.25-.14-.39-.17-.76-.74-.74-1.18.38-5.19-.47-10.99,0-16.1.13-1.37.43-1.67,1.8-1.8,1.87-.17,6.37-.22,8.18,0,.36.05,1.02.29,1.24.56h.01ZM339.41,170.07l-.36.36v12.72l.36.36h5.04l.36-.36v-12.72l-.36-.36h-5.04Z"/>
      <path d="M355.3,167.24c2.78.15,6.13-.37,8.83-.05,1.24.15,1.46.62,1.57,1.79.46,5.03-.37,10.75,0,15.86-.15,1.24-.62,1.46-1.79,1.57s-8.11.14-8.77-.14c-.15-.06-.78-.69-.84-.84l-.14-16.69c.01-.69.61-1.16,1.14-1.5ZM362.81,170.31c0-.29-5.16-.4-5.76,0v12.84l.36.36h5.04l.36-.36v-12.84h0Z"/>
      <path d="M472.89,298.04l34.53-.06c1.8.18,1.71,2.68,0,2.9h-33.86c-1.7-.09-2.1-1.98-.67-2.85h0Z"/>
      <path d="M569.87,290.13c.73.74.24,2.65-1.01,2.6l-30.03-.23c-.81-.89-.63-2.57.73-2.67h29.06c.37.03.99.04,1.25.31h0Z"/>
      <path d="M550.9,213.32c.75-.22,7.09-.19,8.12-.06s1.23,1.12,1.32,2.04c.15,1.53.17,5,0,6.5-.13,1.11-.7,1.67-1.8,1.8s-6.69.16-7.58-.11-1.1-1.12-1.19-1.93c-.16-1.45-.18-5.05,0-6.49.07-.63.49-1.56,1.14-1.74h-.01ZM557.21,216.15h-4.32v4.56h4.32v-4.56Z"/>
      <path d="M510.58,213.32c.75-.21,7.12-.19,8.12-.06.8.1,1.21.51,1.32,1.32.14,1.04.13,7.29-.12,8.07-.22.69-.78.87-1.45.95-1.11.13-6.99.16-7.82-.11-.69-.22-.87-.78-.95-1.45-.18-1.52-.2-5.97,0-7.46.07-.52.36-1.1.9-1.26h0ZM517.13,216.15h-4.56v4.2l.36.36h3.84l.36-.36v-4.2Z"/>
      <path d="M530.74,213.32c.81-.23,6.79-.18,7.87-.06s1.44.51,1.56,1.56c.13,1.12.16,6.99-.11,7.82-.22.69-.78.87-1.45.95-1.17.14-6.9.17-7.82-.11-.63-.19-.88-.57-.96-1.2-.19-1.42-.19-6.27,0-7.7.07-.52.36-1.1.9-1.26h.01ZM532.73,220.71h4.2l.36-.36v-3.84l-.36-.36h-4.2v4.56Z"/>
      <path d="M514.9,350.36l26.83-.06,1.2.48c.44,1.37.02,2.24-1.44,2.41h-26.42c-1.69-.12-1.76-2.47-.18-2.83h0Z"/>
      <path d="M508.91,359.38c-.55.26-1.13.48-1.74.54-1.58.16-5.4.19-6.94-.02-2.27-.31-2.12-2.78-.25-3.08,1.26-.21,6.62-.2,7.89,0s1.67,1.48,1.04,2.57h0Z"/>
      <path d="M518.92,376.11c2.45.55,5.84-.31,8.16.13,1.38.26,1.55,2.58-.25,2.86-1.18.19-7.02.22-8.14,0-1.49-.28-1.63-2.85.22-3h.01Z"/>
      <path d="M506.63,373.06c-.69-.69-.32-2.37.79-2.58s6.96-.18,8.14,0c1.73.27,1.77,2.57.25,2.86-1.39.26-6.35.15-7.92.02-.37-.03-.99-.04-1.25-.31h0Z"/>
      <path d="M509.14,362.6c2.57.25,6.42-.5,8.83-.04,1.55.3,1.3,2.58-.49,2.86-1.25.2-6.42.2-7.65,0-1.71-.28-1.77-2.5-.69-2.82h0Z"/>
      <path d="M356.75,214.53c.45.45.74,4.94-.65,5.12-2.02-.15-9.86.66-11.15-.16-.46-.29-.72-.95-.59-1.48.16-.58,4.34-3.41,5.05-3.61.91-.26,6.86-.35,7.34.14h0Z"/>
      <path d="M359.76,219.44c-.84-.61-.87-4.59.17-5.09.45-.21,5.81-.23,6.61-.13.87.1.98.53,1.07,1.33.11.99.26,3.43-.63,3.94-.76.43-6.53.45-7.22-.05Z"/>
      <path d="M370.17,214.27c1.36-.47,3.33,2.14,3.89,3.24,1.45,2.84-3.83,2.73-4.41,1.53-.3-.64-.35-4.46.52-4.76h0Z"/>
      <path d="M267.94,212.84c.91-.21,7.62-.23,8.58-.05,1.49.28,1.47,2.59,0,2.87-.97.18-7.67.16-8.58-.05-1.49-.34-1.49-2.43,0-2.78h0Z"/>
      <path d="M561.71,172.18c-.37.27-.81.27-1.25.31-1.84.15-4.88.13-6.74,0-1.58-.11-1.89-.36-2.04-2.04-.1-1.13-.12-7.12.33-7.74.19-.27.88-.52,1.24-.56,1.12-.14,6.95-.15,7.82.12.63.19.88.57.96,1.2.22,1.63.14,5.75,0,7.46-.04.44-.04.88-.31,1.25h-.01ZM559.13,165.03h-4.32v4.56h4.32v-4.56Z"/>
      <path d="M500.03,172.18c-.45.46-9.01.47-9.49,0-.27-.37-.27-.81-.31-1.25-.14-1.72-.22-5.83,0-7.46.08-.63.33-1.01.96-1.2.92-.28,6.63-.25,7.82-.11.39.05.76.1,1.08.36.75.78.71,8.87-.06,9.67h0ZM497.45,165.03h-4.32v4.56h4.32v-4.56Z"/>
      <path d="M532.42,162.2c1.15-.25,6.33-.21,7.63-.06,1.06.12,1.44.51,1.56,1.56.13,1.12.16,6.99-.11,7.82-.22.69-.78.87-1.45.95-.97.11-7.49.11-8.04-.13-.46-.2-.68-.71-.74-1.18-.16-1.22-.19-6.82.02-7.93.11-.55.6-.92,1.13-1.03h0ZM534.17,169.59h4.2l.36-.36v-3.84l-.36-.36h-4.2v4.56Z"/>
      <path d="M511.78,162.2c1.09-.25,6.37-.2,7.63-.06.9.1,1.44.39,1.57,1.31s.08,7.78-.14,8.29c-.2.46-.71.68-1.18.74-1.04.14-7.29.13-8.07-.12-.69-.22-.87-.78-.95-1.45-.18-1.56-.18-5.65,0-7.21.09-.77.33-1.32,1.14-1.5h0ZM518.09,165.03h-4.2l-.36.36v4.2h4.56v-4.56Z"/>
    </g>
  </g>
  <g id="HdzM9e">
    <path d="M53.37,125.52v-.08c1.77-1.07-.05-8.57.01-10.58l-.59-.73h-6.43c.02-12.03.83-24.11,2.8-35.98.39-2.37,2.15-7.55,2.1-9.35-.07-2.47-3.92-4.28-4.36-5.76-.4-1.34-.21-7.77-.04-9.49.68-6.73,3.98-11.26,10.13-14.06l-6.58-4.01c.16-5.19,1.15-10.38,5.49-13.71,7.89-6.05,14.86,2.65,15.67,10.32.54,5.1-1.91,4.75-5.88,6.71l-.28,1.13c7.2,2.9,9.55,8.63,10.59,15.82.61,4.28.88,6.15,1.89,10.39.62,2.59,1.04,8.07,3.07,9.67,1.13.89,3.13.74,4.4,1.55,1.31-2.35.6-5.61,1.86-7.59,1.49-2.35,3.78-3.24,6.13-4.46-2.59-3.31-4.72-6.85-3.1-11.15-.98-.81-1.98,2.97-2.1,3.83-.13.93-.06,4.29.35,4.9.07.11,1.62-.39,2.17,1.11l-3.97,3.28c-.72-4.29-2.13-11.99,1.76-15.11,1.73-1.39,2.32-.66,3.67-1.19.75-.29,1.16-1.04,2.17-1.36,3.5-1.11,3.73.35,6.13,1.25.77.29,1.66.21,2.54.56,5.3,2.11,3.44,11.46,3.23,15.85l-3.98-2.86,2.25-2.6c-.06-2.57.27-5.57-1.59-7.67-.16,1.11.29,2.1.25,3.28-.08,2.79-1.58,5.51-3.57,7.44,0,.51,6.93,3.81,7.04,6.54.03.64-.49,1.42-.44,2.22.16,2.36.79,4.4.45,6.97-.22,1.65-2.39,5.95-2.21,6.98.05.31.97.33,1.38,1.36s2.15,10.36,1.76,10.74h-3.55c.23,4.49-1.35,8.93-1.76,13.36-.31,3.29.25,6.73-.45,10.04l2.45,2.42h.11v2.64h-50.95v-2.63ZM65.85,26.14c-2.46-6.64-9.83-4.12-10.19,2.19l5.54-3.4,1.76,1.55,1.79-1.1,1.1.76ZM61.37,28.39c-.85-.5-4.6,2.3-5.19,3.29.57,2.11,2.57,5.49,5.03,5.44,2.72-.05,6.92-6.35,3.31-8.16l-2,1.05-1.16-1.62ZM60.55,47.59l3.8-3.04-1.61-5.27-3.47.49c-.29,1.64-2.01,3.57-1.17,5.2.44.86,2.53,1.13,2.45,2.62ZM49.46,54.6v8.1l7.53,7.66c-.92-2-2.03-4.42-3.17-6.28-.57-.93-1.93-1.71-2.26-2.6-.37-.99.45-3.04.11-4.26h2.22s.55,4.28.55,4.28c4.3.42,12.94,2.59,13.72-3.32l1.88-.47c.65.16,1.5,4.4,1.95,5.5,1.13,2.8,2.89,6.16,4.28,8.91.16.31.21,1.34.68.64-1.09-6.14-3.56-11.87-3.55-18.16l-4.66,1.7-1.54-3.44,1.96-.47.5.93,3.24-1.61c-.59-2.51-2.98-7.12-5.49-8.05-1.08-.4-.55,2.47-1.53,2.85l-5.1,5.03c-1.59-3.14-5.07-4.74-5.76-8.32-3.28,1.96-4.9,5.29-5.57,8.92l4.72,1.13-.71,3.08-3.98-1.75ZM100.42,55.91c-.23-4.2-4.93-6.02-7.53-2.4-.3.55,1.53.97,1.63.98.68.02.98-.7,1.5-.58.55.12,3.82,2.62,4.4,2.01ZM100.42,58.1c-1.42.52-3.13-1.14-3.86-1.25-.99-.15-1.14,1.88-2.81.56l-1.26.98c-.66,1.92,2.41,5.89,4.5,5.34,1.83-1.32,3.58-3.26,3.42-5.63ZM76.05,114.14h-7.09c0,3.78-2,7.82,0,11.38h20.16c.17,0,2.63-1.45,2.47-1.96l-2.25-23.88h-3.99c.14-5.16,1.22-10.15,3.33-14.88.68-1.53,2.28-2.55,1.98-4.38-.92.44-1.12,2.28-1.9,2.93-2.37,2-6.63-2.56-8.31-3.14-1.33-.45-2.86.05-3.96-.9-1.04-.91-1.11-3.48-1.7-4.89-1.65-3.96-4.2-7.79-5.41-11.96-2.6.17-.18,2.76.34,4.26,5.25,14.99,5.52,31.68,6.31,47.4ZM73.39,111.95c-.1-10.03-.64-20.41-2.34-30.3-.99-5.77-2.28-12.42-5.41-17.42h-8.64c.34,2.36,2.09,4.93,3.55,6.78.43.54,2.09,2.61,2.41,2.87,2.18,1.7,4.56,1.05,3.78,5.68h2.22s0,16.42,0,16.42l-.66.66h-14.4v-17.07l2.03-.41c.43-1.82-.37-3.45,1.51-4.63l-3.76-4.15c-.98-.05-3.07,13.66-3.27,15.15-1.14,8.76-1.26,17.62-1.83,26.43h24.81ZM92.89,80.86h6.43c1.39-1.81.6-5.55,1.19-7.58.39-1.34,3.27-1.55,3.02-2.7l-3.77-2.4-3.34,2-2.85-2.31-4.2,2.73c-.23,1.03,2.06,1.14,2.68,2.56.78,1.78.53,5.64.84,7.71ZM87.51,81.24c.47-.27,3.46-6.95,1.61-7.82l-1.96,6.38c-1.55.77-2.6-.51-4.02-.68.41.91,3.7,2.51,4.36,2.13ZM88.01,97.06h16.84l-.89-5.69-2.45,2.2c-2.05-.08-2.74-1.11-2.42-3.08l1.77.44c-.09-3.54,2.89-7.01,3.44-10.39.36-2.27-.29-4.45-.56-6.69-1.08.02-.98.79-1.11,1.53-.23,1.28-.36,7.25-.94,7.61-2.09.5-8.06-.65-9.46.5-1.65,1.35-5.13,12.64-4.21,13.57ZM66.3,81.74h-10.19v12.26h9.53c.13,0,.34.55.66.44v-12.7ZM95.55,99.69h-3.99c.55,8.57,3.05,17.26,1.77,25.83h2.66s-.44-25.83-.44-25.83ZM101.75,99.69h-3.55s0,25.83,0,25.83h2.22c-1.86-2.17-.55-5.24-.45-7.67.08-1.86-.17-3.87.01-5.68.17-1.75,2.33-11.93,1.77-12.49ZM57.44,122.45c-.64-1.66,1.32-7.73-.27-8.26l-1.49-.05c.24,2.18.26,4.51.57,6.67.1.69.09,1.97,1.2,1.64ZM62.31,114.14h-2.22c.8,3.65-2.07,8.28,1.11,10.94.58-.53,1.35-1.29,1.49-2.07.18-.95-.39-1.41-.39-1.64v-7.22ZM65.86,122.45l.83-7.62c-.75-1.2-1.91-.9-2.16.41-.17.9.29,5.33.44,6.57.08.66.36,1.34.89.64Z"/>
  </g>
</svg>