<?xml version="1.0" encoding="UTF-8"?>
<svg id="Layer_1" xmlns="http://www.w3.org/2000/svg" version="1.1" viewBox="0 0 475.74 190.23">
  <!-- Generator: Adobe Illustrator 30.0.0, SVG Export Plug-In . SVG Version: 2.1.1 Build 123)  -->
  <g id="_x39_CGNOX.tif">
    <g>
      <path d="M95.36,90.21c-.47-.1-1.34-.87-.98-1.44l8.3-22.4c.43-.33.8-.33,1.31-.37,7.02-.63,14.97.5,22.09,0,2.23.26,1.96,2.31-.24,2.17l-21.92.02-6.99,19.86h64.53l-6.95-19.78c-.71-.48-9.39.14-11.18-.1-1.68-.22-1.69-1.96,0-2.18,2.23-.29,9.02-.25,11.29,0,.53.06.96.18,1.32.6l8.05,22.17c.25.51-.22,1.44-.74,1.44h-5.4c-.37,2.14.52,6.36-.05,8.22-.38,1.26-2.11.8-2.11-.19v-8.03h-53.01v21.57h10.07c-.62-5.04,2.82-5.12,2.16,0h8.16v-16.54h-8.16v4.67c0,.65-1.73,1.22-2.11-.05-.19-.61-.12-5.48.13-6.01.1-.22.22-.42.46-.5l30.54.2v17.86l.36.36h11.39v-4.91c0-.14.64-1,.87-1.05.42-.08,1.29.72,1.29,1.05v14.74h4.2c.09,0,.54.28.62.4.33.53.34,6.42.23,7.39-.06.54-.18.95-.6,1.31h-4.44v35.23h8.52l.36-.36v-12.7c0-.18.76-.74,1.07-.61.25-.01.85.49.85.61v5.15h21.47c.42,0,1.5,1.81-.74,2.13-6.74.21-13.5-.14-20.24-.12-.28,0-.31.02-.49.26v5.63h56.13v-5.63c-.18-.24-.21-.26-.49-.26-7.14-.02-14.31.31-21.46.14-2.05.4-2.34-2.15-.96-2.15h22.91v-16.42c0-.09.28-.54.4-.62l16.14-.1c.34.24.64.52.72.96.17.93.14,5.23,0,6.21-.27,1.78-1.9.95-1.9.5v-5.51c0-.12-.4-.39-.6-.37l-12.84.37v22.53l.36.36h12.71l.36-.36v-7.91c0-.06.49-.53.65-.57,1-.02,1.43.99,1.27,1.89h7.92v-21.57h-46.18c-1.11,0-1.11-2.16,0-2.16h64.41v-6.47c-.24.08-.52-.24-.6-.24h-35.98c-.62,0-.37-1.92.24-1.92h6.36v-31.16h-42.1c-.56,0-.81-1.92.24-1.92h38.98c.09-.45-.22-.58-.5-.82-.79-.69-7.21-4.98-7.96-5.23-.38-.12-.61-.16-1-.2-2.04-.2-6.25.45-7.88-.04-.34-.1-.62-.41-.64-.79-.04-.41.44-1.08.83-1.08h5.16c-.35-.56-1.06-1.01-1.6-1.39-1.36-.96-6.08-4.25-7.38-4.37-7.08-.68-15.31.49-22.51.06-.45.1-7.03,4.46-7.69,5.02-.25.21-.5.23-.4.68h24.11c.64,0,1.01,1.92.24,1.92h-27.83c-2.32,1.96-6.06,3.48-8.26,5.41-.28.24-.59.37-.5.82h9.48c.12,0,.63.6.61.85.13.31-.44,1.07-.61,1.07h-12.35v31.16h53.61l.54.31c.37.34.09,1.61-.3,1.61h-53.49l-.36.36v6.35h24.35c.14,0,1,.64,1.05.87.08.42-.72,1.29-1.05,1.29h-24.35v4.91c0,.18-.76.74-1.07.61-.25.01-.85-.49-.85-.61v-48.17l35.9-24.05,1.1-.24,36.35,23.98c-.06,1.16.25,2.28.3,3.42.29,6.03.18,13.12,0,19.2-.01.41-.54,2.03.11,2.03h29.03c.3,0,.57.75.61,1.07.67,4.97-.54,11.43,0,16.56.15.35-.71,1.31-.85,1.31h-17.03l-.36.36v27.8l.36.36h40.66v-17.02c-3.31,1.29-7.04,1.54-10.38.18-1.16-.47-2.84-1.11-1.88-2.66.46-.74,2.46.7,3.33.97,3.07.95,5.76.56,8.65-.68-.1-2.74.5-5.49.27-8.23-.15-1.81-1.3-4.69-1.22-6.24.04-.68.53-1.33,1.22-.97.98.52.81,3.12,1.43,4.03.26.38,1.14.52,1.21.82.21.84-.65,4.24-.72,5.46-.06,1.02-.25,4.2.49,4.78.7.55,3.97,1.44,4.93,1.54,6.92.71,14.11-5.31,11.85-12.56-.33-1.08-1.61-2.8-1.69-3.61-.07-.7.6-1.96.69-2.88.29-3.11-1.74-6.62-4.17-8.48-.72-.55-2.67-1.24-2.94-1.5-.31-.29-1.25-2.62-1.78-3.37-3.88-5.55-11.86-5.69-15.85-.1-.7.98-1.25,2.94-1.75,3.52-.45.52-2.49,1.24-3.35,1.93-1.93,1.57-3.61,4.86-3.7,7.34-.05,1.36.95,3.31.88,4-.06.56-1.07,1.98-1.32,2.73-.72,2.09-.6,3.99-.28,6.14-3.16,1.82-2.23-4.83-1.7-6.44.23-.69.91-1.57.97-2.17.07-.76-.41-1.8-.47-2.62-.29-3.73,1.01-7.55,3.83-10.06.86-.76,3.03-1.72,3.46-2.29,1.06-1.41,1.45-3.26,3.04-4.87,5.61-5.67,14.75-3.72,18.73,2.81.37.61.46,1.47.91,1.97.49.55,2.08,1.1,2.87,1.69,1.79,1.36,3.97,4.39,4.42,6.61s-.35,4.58-.07,6.3c.09.6.91,1.86,1.19,2.65,2.87,8.06-5.14,15.89-13.09,15.47-2.21-.11-4.05-1.06-6.1-1.69l.24,12.22c.79-.8.85-1.89,1.67-2.77,1.05-1.14,2.06-.95,2.96-1.54.95-.63,1.88-2.47,3.85-3.65,3.82-2.27,7.5-4.19,11.66-1.5.9.58,1.26,1.16,2.04,1.77,5.41-7.04,15.53-4.38,17.94,3.79l2.99.97,2.96,2.08v-13.3c-8.78,3.99-19.36,1.03-23.27-8.04,0-.52,1.33-1.18,1.68-.96.85,1.18,1.39,2.57,2.3,3.71,4.24,5.35,13.54,6.37,19.17,2.65.31-2.26,0-4.56.13-6.82.04-.72.38-1.48.45-2.19.24-2.68-.91-7.43-1.48-10.2-.27-1.3-1.73-5.97-1.61-6.78.15-1.03,1.69-.58,2.12.04l2.21,11.34c.63.07.38-.01.48-.35,1.11-3.69,2.39-7.3,3.71-10.91.4-.48,1.86-.31,1.95.35l-4.95,14.63.12,1.08c.57-.88,4.63-4.03,4.2-1.33-.2,1.26-4.12,3.05-4.67,3.98-.48.83-.52,5.25-.39,6.35.12,1.01,1.97,1.58,2.9,1.89,11.06,3.69,23.93-5.35,18.82-17.12-.42-.98-1.93-2.61-2.03-3.26-.14-.91.63-2.44.73-3.57.39-4.55-1.72-8.76-5.31-11.49-.9-.68-2.79-1.31-3.35-1.93-.5-.56-1.01-2.51-1.57-3.46-4.78-8.18-17.28-8.14-21.97.06-.42.73-1.5,3.76-1.7,3.93s-1.29.46-1.78.74c-1.16.69-3.06,2.72-4.04,1.48-.87-1.73,3.62-3.03,4.32-3.84.38-.44,1.01-2.36,1.44-3.11,5.66-10.03,20.04-9.7,25.68.24.32.56.94,2.38,1.13,2.58.21.22,1.26.54,1.69.83,4.92,3.28,8.1,8.09,7.61,14.22-.05.63-.65,2.63-.62,2.77.08.39.95,1.36,1.22,1.89,3.46,7.04,1.31,14.74-5.09,19.13-5.57,3.83-12.04,3.71-18.06,1v19.05c0,.13.37.53.24.84h32.86v-7.31c0-1.05,1.92-.8,1.92-.24v7.19l.36.36h4.44v-29.36c0-.79,3.74-.7,4.45-.61,1.48.2,1.49,1.69-.03,1.91-.85.13-1.91-.29-2.5.38v27.32l.36.36h14.03v-5.15c0-1.05,1.92-.8,1.92-.24v5.03l.36.36h32.26v-4.43c0-.18.76-.74,1.07-.61.25-.01.85.49.85.61v4.07l.36.36h13.19l.36-.36v-9.35l-.36-.36h-8.16c-.33,0-1.59-1.71-.68-2.17h8.96s.14-7.19.14-7.19l-13.22-.48-.31.06c-.04.17-.28.47-.28.56v11.5c0,.12-.6.63-.85.61-.31.13-1.07-.44-1.07-.61v-27.8l-.36-.36h-54.93l-.36.36v20.13c0,.56-1.52.31-1.92.12v-46.74c-.9-.15-3.22.46-3.55-.65l.19-13.49h7.32l.36-.36v-5.15h-7.32c-.61,0-.86-1.92-.24-1.92h66.93c.81,0,.55,1.92,0,1.92h-7.32v5.51h7.32c.52.43.55.93.61,1.55.24,2.62.29,8.72,0,11.28-.06.54-.18.95-.6,1.31h-4.2l.24,8.15h15.23l.36.36v11.74c0,.48-1.31.72-1.76.61-1-.24.08-9.18-.16-10.56h-13.55l-.36.36v29.36l13.68.13v-14.38c.01-1.43,2.15-1.46,2.15-.01v36.31h14.51c.63,0,.63,1.92,0,1.92H3.48c-.12,0-.63-.6-.61-.85-.13-.31.44-1.07.61-1.07h23.15v-3.71c0-.09.24-.39.28-.56h1.36c.04.17.28.47.28.56v3.71h10.55v-3.12c-.86-.11-2.76.41-3.07-.65-.15-.51-.16-4.62-.04-5.22.05-.26.41-.85.59-.85h5.64v-3.36c-.96-.03-2.72.33-3.07-.89-.15-.54-.16-4.59-.04-5.22.29-1.53,2.21-.98,3.32-1.12.29-.73.14-1.66,1.11-1.8,1.11,0,1.01,1.81,1.22,1.85h11.86c-.26-2.29,2.36-2.55,1.92-.01,1,.15,3.09-.54,3.35.84.12.64.11,5.17-.04,5.7-.35,1.17-2.2.28-2.97.87-.23.32-.28,2.79.26,3.13h5.52c.18,0,.54.58.59.85.1.53.1,4.84-.03,5.23-.3.9-2.33.6-3.08.64v3.12h12.95c-.54-2.7-2.59-5.84-4.55-7.8-.68-.68-3.81-2.72-3.84-3.34.18-1.68,2.03-.98,3.16-.78,1.6.29,2.97.94,4.51,1.37.17-.16-1.64-2.16-.07-2.6,1.11-.31,2.04,1.64,2.51,2.44,1.95,3.33,2.91,7.04,3.96,10.72l2.47-.02c-.09-1.59,1.11-3.76,1.14-5.18.02-.91-1.44-3.73-1.96-4.64-2.54-4.44-6.24-7.21-11.4-7.9-.23.94,1.05,1.08,1.54,1.69.75.92.26,2.19-.89,1.87-.21-.06-2.74-2.15-3.46-2.56-1.07-.6-3.69-.96-2.83-2.45.4-.68,5.04-.57,6.01-.49,2.13.18,5.11,1.3,6.91,2.45.7.45,2.49,2.29,2.92,2.36.46.08.3-.12.42-.31.55-.93,1.25-3.71,2.78-2.78,1.17.72-1.55,3.9-1.63,4.88l2.75,4.43c2.12-2.68,2.45-6.11,3.78-9.16,1.08-2.46,2.73-4.59,4.26-6.77-1.91.14-3.79,1.73-5.17,2.99-.74.67-1.05,1.85-2.14,1.69-2.34-.34,1.05-3.35,1.78-3.96,2.11-1.78,5.2-3.38,8.05-3.24,1.04.05,2.37.3,1.67,1.69-.1.2-2.72,2.38-3.25,2.99-1.53,1.77-2.93,4.1-3.59,6.36,3.2-2.37,6.68-3.71,10.71-3.74.7,0,3.4.1,3.7.49,1.25,1.57-1.27,1.83-2.1,2.26-1.93.99-5.94,4.22-6.75,6.2-.06.16-.16.53.07.55.99-.55,2.15-1.02,3.24-1.31.88-.24,3.52-.98,4.1-.26,1.07,1.32-1.33,2.16-2.06,2.78-2.75,2.37-5.2,5.55-6.12,9.1h12.35l.36-.36v-6.95c0-.56,1.92-.81,1.92.24v7.07h14.99l.36-.36v-26.36l-.36-.36h-14.99v10.67c0,.61-1.45.69-1.92.36v-12.58l.36-.36h18.23s.6.56.6.6v28.4h28.07v-35.23h-27.23c-.62,0-.37-1.92.24-1.92h31.9l.36-.36v-4.55l-.36-.36h-62.97v5.27h19.31c.12,0,.63.6.61.85.13.31-.44,1.07-.61,1.07h-14.27v12.1c0,.13-.43.73-.64.8-.33.17-1.28-.01-1.28-.33v-11.98c0-.08-.32-.36-.24-.6h-4.44c-.35-.3-.51-.65-.58-1.1-.21-1.36-.15-4.77-.03-6.22.04-.53.14-1.79.85-1.79h4.08l.36-.36v-30.68l-.36-.36c-1.46-.21-3.69.29-5.04,0ZM211.82,77.74l-8.47-5.71-8.32,5.71h16.79ZM382.61,84.22v5.15l.36.36h5.76l.25-.23c-.19-.41.11-.9.11-1.08v-3.83l-.36-.36h-6.12ZM397.24,84.22h-6.24v5.15l.36.36h5.52l.36-.36v-5.15ZM405.64,84.22h-6.48v5.15l.36.36h6.12v-5.51ZM414.03,84.22h-6.48v5.15l.36.36h5.76l.36-.36v-5.15ZM415.95,84.22v5.15l.36.36h5.76l.36-.36v-4.79l-.36-.36h-6.12ZM430.58,84.22h-6.24v5.51h6.24v-5.51ZM438.5,101.95c-.08-.24.24-.52.24-.6v-9.35l-.36-.36h-63.69v10.31h11.39l.32.4c.15.54.16,1.52-.56,1.52h-7.56v23.85l.36.36h54.93l.36-.36v-23.85h-33.94c-.18,0-.74-.76-.61-1.07-.01-.25.49-.85.61-.85h38.5ZM124.98,95.24v16.18l.36.36h6l.36-.36v-15.82l-.36-.36h-6.36ZM142.01,95.24h-8.04l-.36.36v15.82l.36.36h7.68l.36-.36v-16.18ZM108.19,113.7h-5.52v7.91h5.4l.36-.36v-6.95c0-.08-.32-.36-.24-.6ZM117.79,113.7h-7.44v7.91h7.44v-7.91ZM127.38,121.6v-7.55l-.36-.36h-6.96l-.36.36v7.19l.36.36h7.32ZM136.98,121.6v-7.55l-.36-.36h-6.96l-.36.36v7.55h7.68ZM146.33,113.7h-7.44v7.91h7.44v-7.91ZM155.69,113.93c-.24.08-.52-.24-.6-.24h-6.24l-.36.36v7.55h7.2v-7.67ZM245.88,120.41h-5.52v6.23h5.52v-6.23ZM253.08,120.41h-4.92l-.36.36v5.87h5.28v-6.23ZM260.51,126.64v-5.87l-.36-.36h-4.92v6.23h5.28ZM268.19,126.64v-5.87l-.36-.36h-5.04l-.36.36v5.87h5.76ZM59.97,147.49h-18.59c-.58.71-.59,2.62,0,3.36h18.59v-3.36ZM87.56,165.94c.66-.1,2.4.26,2.76-.23.24-.32,1.2-4.66,1.55-5.64,1.61-4.47,4.21-8.52,8.04-11.38l-.25-.48c-4.19.63-7.39,2.58-9.91,5.91-.98,1.3-2.97,4.67-3.15,6.21s1.17,3.94.96,5.61ZM318.08,165.94h22.91c.81,0,.05-1.97-.08-2.32-.78-2.12-2.65-3.83-4.77-4.58-.76-.27-1.96-.23-2.46-.66-.4-.35-.95-2.66-1.63-3.64-2.79-4.02-7.78-5.31-11.69-1.99-1.08.91-1.69,2.26-2.88,2.89-1.24.13-2.34-2.15-3.35-2.88-1.21-.87-2.58-1.14-4.06-.94-.28.04-2.21.62-2.3.7-.41.42.16.4.34.5,1.23.63,2.27.87,3.26,2.01.56.64,1.23,2.46,1.34,2.55.28.2,1.25.29,1.78.56,2.75,1.41,4.29,4.82,3.58,7.8ZM56.86,152.76h-12.47c.14.71-.36,3.08.39,3.32l11.86-.07.22-3.25ZM295.05,165.94h20.75c1.1-2.01,0-4.82-1.95-5.96-.74-.43-2.35-.5-2.67-.81-.26-.26-.47-1.53-.73-2.03-1.66-3.21-6.15-3.53-8.45-.85-.37.43-.68,1.48-1.06,1.75-.71.51-1.75.16-2.79,1.29-.87.95-.58,1.72-1.08,2.51-.45.7-1.53.72-1.89,1.7-.26.71-.37,1.67-.14,2.39ZM92.36,165.94c1.87.44,1.63-1.86,2.35-3.04l3.88-6.07c-3.95,1.46-5.84,5.05-6.23,9.11ZM78.45,165.95c-.17-3.7-2.19-7.86-6-8.87,2,2.76,4.01,5.44,4.83,8.83l1.17.03ZM59.97,162.83h-6.12c-.18,0-.74-.76-.61-1.07-.01-.25.49-.85.61-.85h9.12c.49-.37.42-1.22.37-1.81-.02-.22.02-.45-.05-.67l-.32-.4h-25.07c.12.92-.34,2.18.36,2.88h8.88c.62,0,.37,1.92-.24,1.92h-5.64l-.18,2.77.3.35h18.59v-3.12ZM249.96,160.91h-7.56l-.36.36v4.67h7.56l.36-.36v-4.67Z"/>
      <path d="M152.81,159.47c-.66.19-1.06.42-1.79.49-4.66.44-14.29.41-18.97,0-.77-.07-1.57-.13-1.56-1.08v-20.4c0-.95.79-1.01,1.56-1.08,6.04-.54,12.85.43,18.97,0,.43-.17,1.79.54,1.79.85v21.21ZM150.89,147.73v-8.03l-.36-.36h-7.44c-.08,0-.36.32-.6.24v8.15c4.51-.63,4.5,2.53,0,1.92v8.39h8.04l.36-.36v-8.03c-1-.12-3.75.55-3.61-1.07.11-1.52,3.31-.56,3.61-.85ZM140.57,139.58h-8.16v8.15h8.16v-8.15ZM140.57,149.65h-8.16v8.15h8.16v-8.15Z"/>
      <path d="M150.83,177.27c.57.56.21,1.38-.43,1.73l-98.95.13c-2.27.12-2.59-2.11-.24-2.18h98.37c.38.03.98.04,1.25.31Z"/>
      <path d="M174.69,123.47l.04-20.82,23.91.12-.12,20.78-23.83-.08ZM196.94,104.35h-20.39v8.15h20.03l.36-.36v-7.79ZM185.67,114.41h-9l-.36.36v6.71l.36.36h9v-7.43ZM196.94,114.41h-9l-.36.36v6.71l.36.36h8.64l.36-.36v-7.07Z"/>
      <path d="M230.29,123.52h-24.23v-20.73l.36-.36h23.51l.36.36v20.73ZM228.37,104.35h-20.39v8.15h3.48c.18,0,.74.76.61,1.07.01.25-.49.85-.61.85h-3.48v7.43h9.12v-7.43l-3.2-.22c-.66-.42-.23-1.7.44-1.7h14.03v-8.15ZM228.37,114.41h-9c-.55.33-.12.52-.12.6v6.83h9c.55-.33.12-.52.12-.6v-6.83Z"/>
      <path d="M292.77,183.68l-.49-1.19.62-.6h96.42c.74.36.54,1.79.12,1.79h-96.67Z"/>
      <path d="M217.57,142.94h-38.74l-.36.36v9.83l.36.36h20.39c.73,0,.79,1.05.38,1.58l-.63.33-21.94-.11c-.5-.28-.45-.7-.49-1.19-.25-2.59-.32-9.5,0-12.01.05-.41.09-.73.49-.95l41.61-.11c.66.12.78.45.86,1.06.29,2.18.29,10.07,0,12.25-.04.32-.31,1.07-.61,1.07h-8.16c-.12,0-.63-.6-.61-.85-.13-.31.44-1.07.61-1.07h6.48l.36-.36v-10.19Z"/>
      <path d="M38.45,122.5c.26.26,1.52.74,2.07,1.16,2.17,1.66,3.98,4.45,4.31,7.2.28,2.31.05,1.98.87,4.17.4,1.09,2.43,7.16-.19,6.44-.82-.23-.76-2.8-1.01-3.8-.31-1.25-1.32-2.6-1.51-3.53-.17-.85.05-1.75-.06-2.58-.41-3.19-2-5.2-4.57-6.94-.45-.3-1.07-.34-1.44-.72-.46-.47-1.05-2.42-1.71-3.33-3.93-5.37-12.33-4.87-15.51.96-.33.6-.78,2.36-1.06,2.66-.24.25-1.56.67-2.03.97-2.59,1.68-4.38,4.71-4.37,7.86,0,1.16.84,2.86.69,3.79-.22,1.36-1.63,2.72-1.63,5.05,0,1.65,1.84,4.55-.97,4.16-1.04-2.14-1.21-4.37-.64-6.68.19-.78,1.22-2.63,1.23-2.99.02-.78-.66-2.39-.64-3.6.03-3.21,1.87-6.63,4.36-8.6.61-.48,2.14-1.18,2.49-1.58.47-.54,1.03-2.44,1.7-3.33,4.53-6.04,14.21-5.73,18.3.62.39.61.96,2.31,1.3,2.65Z"/>
      <path d="M28.55,136.94c.35.07.44,0,.7-.17,1.17-.75,3.53-4.75,4.35-1.88-.26.95-5.05,4.92-5.05,5.28v3.71c1.35-.24,3.62-4.37,5.04-3.48.22.14.45.66.43.93-.09.95-4.68,4.71-5.47,5.79v7.67c0,.12-.6.63-.85.61-.31.13-1.07-.44-1.07-.61v-7.19c-.65-1.11-5.27-4.9-5.28-5.76,0-.39.47-.71.73-.96l.48-.02c1.54.89,2.46,2.81,4.07,3.51v-4.19l-6.23-6.29-.23-.67c1.73-2.78,4.49,3.27,6.47,3.72v-8.75c0-.12.6-.63.85-.61.31-.13,1.07.44,1.07.61v8.75Z"/>
      <path d="M420.03,146.77c-.34.34.93,4.96-1.61,3.53-.08-.07-.31-.48-.31-.53v-11.5l-.36-.36h-4.56l-.57-1.05c.26-.48.77-.77,1.3-.86,2.43-.38,9.85-.25,12.47-.02.61.05,1.21.17,1.8.36.18.14.5,2.85.5,3.36,0,.56-.26,1.09-.27,1.67-.01.88.34,5.4-.59,5.4h-7.8ZM426.75,137.9h-6.36l-.36.36v6.35c.24-.08.52.24.6.24h5.88l.24-6.95Z"/>
      <path d="M319.01,135.95c-2.09,1.11-2.32-1.1-2.37-2.71-.05-1.37.25-3.31.66-4.63.34-1.09,1.92-3.26,1.99-3.79.1-.79-.63-2.57-.72-3.58-.22-2.7.79-6.41,2.44-8.58.49-.65,1.78-1.85,2.49-.89.43.57-1.61,3.31-1.93,4.09-.72,1.77-1.01,3.72-.84,5.62.1,1.16.81,2.55.73,3.6s-1.47,2.48-1.9,3.63c-.92,2.44-.64,4.71-.55,7.24Z"/>
      <path d="M399.64,145.81c-1.54-.57-2.99-.02-4.43,0-.44,0-.91-.28-1.44-.26-.95.04-3.9.9-4.33,0-.63-1.3.25-1.8,1.43-1.92,2-.22,6.88-.21,8.88,0,.79.09,1.83.31,1.81,1.31-.39,1.94.41,4.92.18,6.65-.08.6-.33,1.25-1.03,1.17-.54.18-1.08-.74-1.08-1.1v-5.87Z"/>
      <path d="M253.67,183.68c-.69-.21-.69-1.77.95-1.93,4.53-.45,9.79.35,14.4.02,1.24.23.91,1.91.49,1.91h-15.83Z"/>
      <path d="M173.26,177.27c.27-.27.87-.28,1.25-.31,3.92-.34,8.29.28,12.26,0,2.09.63,1.51,1.94-.49,2.17-2.53.28-8.99.28-11.51,0-1.01-.11-2.56-.82-1.5-1.86Z"/>
      <path d="M414.99,153.24l.22,1.28c-.11.35-.78.51-1.12.57-1.07.19-8.36.22-9.19-.05-.22-.07-.43-.19-.59-.37-.28-.32-.11-1.44.24-1.44h10.43Z"/>
      <path d="M397.84,135.98h8.64c.43,0,.67,1.59-.29,1.87-.64.19-7.28.16-8.05,0-1.14-.25-1.2-1.2-.29-1.86Z"/>
      <path d="M298.84,126.46c.27.26.17.71.1,1.04-.18.83-2.28,7.26-2.56,7.53-.21.2-.32.29-.61.14-.64-.12-.84-1.28-.81-1.86.05-.96,1.83-6.28,2.52-6.79.41-.3.97-.46,1.38-.06Z"/>
      <path d="M15.66,151.26c-.54-.58-.3-1.51.55-1.62.69-.09,1.48.4,2.17.46s1.69.1,2.38.04c1.26-.12,2.94-1.29,3.43.39-.68,2.26-7.44,1.9-8.53.73Z"/>
      <path d="M414.39,181.76c1.13.19.86,1.92.24,1.92h-6.96c-.79,0-.34-1.92-.12-1.92,1.9,0,5.13-.28,6.84,0Z"/>
      <path d="M431.25,154.87c-1.1.33-6.27.61-6.79-.18-1.02-1.54,1.63-1.65,2.64-1.7.68-.04,4.04.05,4.35.47l-.19,1.4Z"/>
      <path d="M31.55,153.72c-.2-.06-.59-.58-.61-.85l.49-.95c1.91-.02,4.09-.48,5.9-.14.96,1.06-.45,1.94-1.46,1.94s-3.62.2-4.32,0Z"/>
      <path d="M186.27,93.56h4.8c.12,0,.63.6.61.85.13.31-.44,1.07-.61,1.07h-4.8c-.12,0-.63-.6-.61-.85l.61-1.07Z"/>
      <path d="M134.27,66.05c.87-.19,5.02-.36,4.6,1.22-.3,1.14-3.68,1.04-4.6.83-1.47-.32-1.47-1.73,0-2.05Z"/>
      <path d="M122.22,152.28c.74.23.66,1.92-.24,1.92h-4.32c-.12,0-.63-.6-.61-.85-.13-.31.44-1.07.61-1.07.95,0,3.93-.19,4.56,0Z"/>
      <path d="M390.73,152.97c-.64.1-1.27.19-1.41-.57s-.12-4.58.34-4.94c2.65-1.86,1.37,5.31,1.07,5.5Z"/>
      <path d="M396.04,183.68c-1.19-2.38,2.44-2.08,3.97-1.93,1.98.19,1.31,1.93.95,1.93h-4.92Z"/>
      <path d="M293.13,129.75c-1.16.25-1.48.48-2.04-.71-.49-1.05-1.69-4.98.61-4.2.75.38,1.22,3.97,1.43,4.92Z"/>
      <path d="M277.18,142.54c.54,0,3.01,2.84,3.02,3.39.04,2.54-4.44-1.14-4.07-2.59l1.05-.8Z"/>
      <path d="M166.72,144.97c.06-.2.58-.59.85-.61.31-.13,1.07.44,1.07.61v4.07c0,.12-.6.63-.85.61-.31.13-1.07-.44-1.07-.61,0-.92-.19-3.41,0-4.07Z"/>
      <path d="M394.57,136.02l.26,1.25c-.3.94-3.4.54-4.17.39-.67-.14-.78-.68-.58-1.28.27-.82,3.69-.39,4.5-.36Z"/>
      <path d="M113.83,102.51c1.45,0,1.35,3.38.72,4-1.95,1.93-2.65-4-.72-4Z"/>
      <path d="M34.13,133.29c-.73-.75.39-1.94.98-2.49.67-.62,2.43-1.87,2.57-.19.06.69-2.26,2.94-2.98,2.92-.19-.04-.43-.1-.57-.24Z"/>
      <path d="M193.75,158.08c.63-.18,2.96-.16,3.32.43.58,1.84-2.01,1.99-3.26,1.57-1.05-.34-.93-1.75-.06-2Z"/>
      <path d="M401.06,154.46c.29.2.83,4.69-.8,4.3-1.37-.12-1.44-5.08.8-4.3Z"/>
      <path d="M204.31,153.53c.74-.22,3.14-.26,3.5.5.79,1.66-2.61,1.64-3.51,1.33-.7-.24-.91-1.55.01-1.83Z"/>
      <path d="M197.24,135.56c.49-.48,3.21-.6,3.49.35.78,2.58-5.38,1.52-3.49-.35Z"/>
      <path d="M421.41,153.3c.18.16.33.77.31,1.02-.09,1.05-2.67.94-3.43.6l-.26-.3c-.96-1.94,2.67-1.94,3.38-1.32Z"/>
      <path d="M376.65,152.08h1.25s.36.36.36.36c-.03.82.42,3.16-.62,3.41-1.9.09-1.35-2.53-1-3.77Z"/>
      <path d="M108.7,156.09c-.39-.57-.45-3.69.13-3.82,2.53-.58,1.83,5.04-.13,3.82Z"/>
      <path d="M214.87,85.71c.21.21.31.67.27.97-.24.98-3.57.86-3.78.26-.66-1.97,2.91-1.82,3.51-1.23Z"/>
      <path d="M241.74,150.67c.43.44.57,3.02-.18,3.42-2.32,1.17-1.77-5.39.18-3.42Z"/>
      <path d="M26.93,156.89c2.68-1.29,1.89,4.86.04,3.32-.59-.5-.44-2.62-.04-3.32Z"/>
      <path d="M156.33,101.5c2.11-.69,1.95,3.15.4,3.29-1.11.1-1.49-2.93-.4-3.29Z"/>
      <path d="M120.96,129.09c.38-.42,2.61-.55,2.95.18,1.14,2.27-4.65,1.75-2.95-.18Z"/>
      <path d="M14.34,149.58c-1,.98-3.02-1.1-2.55-2.3,1.11-1.08,3.49,1.38,2.55,2.3Z"/>
      <path d="M225.42,126.69c2.44-.73,3.4,1.58,1.87,1.87-.44.08-1.65.07-2.04-.12-.74-.36-.61-1.51.17-1.75Z"/>
      <path d="M389.79,154.21c.34.81.43,2.45-.64,2.58-2.06.25-1.15-2.84.64-2.58Z"/>
      <path d="M381.05,126.16c-.89-.27-.32-2.11-.34-2.76-.08-2.78-.06-5.33-.01-8.13.04-2.2-.36-5.98-.01-7.92.07-.38.2-.51.54-.66l48.53-.19c.7-.08,1.41.4,1.54,1.1.45,2.41-.33,6.07.02,8.63-.78,2.65.24,6.31-.26,8.85-.12.61-1.03,1.08-1.55,1.08h-48.45ZM382.61,108.78v5.99l.36.36h7.08l.24-6.47-7.13-.2-.54.31ZM399.4,108.42h-6.84l-.36.36v6.35h7.2v-6.71ZM408.52,115.13c.14-1.84.47-4.06.25-5.88-.04-.35-.03-.62-.37-.83h-6.72c-.98,1.99.22,4.52-.12,6.71h6.96ZM410.67,108.78v6.35h7.2v-6.47c-1.88-.05-3.77.05-5.65,0-.61-.01-1.16-.48-1.55.11ZM429.14,115.13l.2-6.31-.32-.4h-8.88c-.33.22-.3.56-.3.9.02,1.88.35,3.89.18,5.82h9.12ZM390.04,124.24v-6.83l-.36-.36h-6.48c-.08,0-.36.32-.6.24v6.59c.17.29.97.36,1.32.36h6.12ZM399.4,117.05h-7.2v7.19c2.4-.05,4.83.18,7.2-.24v-6.95ZM408.52,117.05h-6.96l-.14,6.7.26.49h6.84c-.13-2.43.45-4.78,0-7.19ZM417.87,117.05h-7.2v6.95c2.36.48,4.81.21,7.2,0v-6.95ZM420.03,117.05v6.83l.36.36h8.4l.36-.36v-6.47l-.36-.36h-8.76Z"/>
      <path d="M391.84,101.95h4.08c.81,0,.55,1.92,0,1.92h-4.08c-.12,0-.63-.6-.61-.85l.61-1.07Z"/>
      <path d="M49.09,160.95c1.19-.16,2.89-.21,2.37,1.4-1.19,1.23-3.82.22-2.37-1.4Z"/>
    </g>
  </g>
</svg>