<?xml version="1.0" encoding="UTF-8"?>
<svg id="Layer_1" xmlns="http://www.w3.org/2000/svg" version="1.1" viewBox="0 0 141.73 141.73">
  <!-- Generator: Adobe Illustrator 30.0.0, SVG Export Plug-In . SVG Version: 2.1.1 Build 123)  -->
  <defs>
    <style>
      .st0, .st1 {
        fill: #231f20;
      }

      .st2 {
        fill: #90278e;
      }

      .st3 {
        fill: none;
        stroke: #231f20;
        stroke-miterlimit: 10;
        stroke-width: .25px;
      }

      .st4 {
        fill: #c69fca;
      }

      .st5 {
        fill: #a6d8e9;
      }

      .st1 {
        font-family: SourceSansPro-Light, 'Source Sans Pro';
        font-size: 10.52px;
        font-weight: 300;
      }
    </style>
  </defs>
  <g>
    <path class="st0" d="M34.38,65.13v-10.47h-2.36v-3.03h2.36v-3.48h4.06v3.48h5.12v3.03h-5.12v9.15c0,1.16.61,1.68,2.03,1.68h3.09v3.65h-5c-2.84,0-4.19-1.42-4.19-4Z"/>
    <path class="st0" d="M44.92,51.63h4.13v2.77c1.13-1.97,2.93-3.06,5.25-3.06h.42v3.77c-.42-.06-.84-.1-1.26-.1-1.84,0-3.55.74-4.42,2.16v11.96h-4.13v-17.5Z"/>
    <path class="st0" d="M54.91,60.39c0-5.8,3.48-9.22,8.61-9.22s8.64,3.42,8.64,9.22-3.45,9.15-8.64,9.15-8.61-3.42-8.61-9.15ZM68.03,60.36c0-4.03-1.77-6.16-4.51-6.16s-4.48,2.13-4.48,6.16,1.77,6.16,4.48,6.16,4.51-2.1,4.51-6.16Z"/>
    <path class="st0" d="M73.64,51.63h4.13v17.5h-4.13v-17.5Z"/>
    <path class="st0" d="M79.63,51.63h4.06l-.06,8.32,7.25-8.32h4.23l-6.03,6.83,6.76,10.67h-4.71l-4.76-7.57-2.75,3.55.06,4.03h-4.06v-17.5Z"/>
    <path class="st0" d="M95.39,64.68c0-3.45,3.61-4.61,7.32-5.74,2.74-.84,4.06-1.48,4.06-2.77s-1.1-2.03-3.09-2.03c-2.26,0-3.74,1.29-4.13,3.45h-3.8c.52-3.77,3.61-6.35,8.03-6.35s7.06,2.09,7.06,5.99v11.89h-4.06v-1.97c-1.32,1.45-3.29,2.26-5.51,2.26-3.61,0-5.87-1.87-5.87-4.74ZM102.32,66.65c1.68,0,3.42-.68,4.45-1.84v-4.84c-.74.61-1.9,1-3.22,1.45-2.35.77-4.13,1.39-4.13,3.13,0,1.35,1.13,2.1,2.9,2.1Z"/>
  </g>
  <text class="st1" transform="translate(33.13 79.57) scale(1.16 1)"><tspan x="0" y="0">INSURANCE</tspan></text>
  <path class="st4" d="M79.63,46.66h4.13v3.51h-4.13v-3.51Z"/>
  <path class="st5" d="M90.98,46.66h4.13v3.51h-4.13v-3.51Z"/>
  <rect class="st2" x="73.64" y="46.66" width="4.13" height="3.51"/>
  <line class="st3" x1="34.39" y1="28.82" x2="34.39" y2="44.14"/>
  <line class="st3" x1="34.39" y1="84.36" x2="34.39" y2="99.68"/>
  <line class="st3" x1="110.83" y1="22.95" x2="110.83" y2="44.14"/>
  <line class="st3" x1="110.83" y1="84.36" x2="110.83" y2="99.68"/>
  <line class="st3" x1="90.98" y1="28.82" x2="90.98" y2="44.14"/>
  <line class="st3" x1="95.11" y1="37.63" x2="95.11" y2="44.14"/>
  <line class="st3" x1="73.64" y1="22.95" x2="73.64" y2="44.14"/>
  <line class="st3" x1="77.76" y1="34.7" x2="77.76" y2="44.14"/>
  <line class="st3" x1="90.98" y1="84.36" x2="90.98" y2="93.8"/>
  <line class="st3" x1="95.11" y1="84.36" x2="95.11" y2="102.03"/>
  <line class="st3" x1="73.64" y1="84.36" x2="73.64" y2="105.55"/>
  <line class="st3" x1="77.76" y1="84.36" x2="77.76" y2="99.68"/>
  <line class="st3" x1="28.45" y1="51.91" x2="7.26" y2="51.91"/>
  <line class="st3" x1="134.51" y1="46.7" x2="102.95" y2="46.7"/>
  <line class="st3" x1="128.64" y1="50.18" x2="97.08" y2="50.18"/>
  <line class="st3" x1="32.3" y1="50.18" x2="18.37" y2="50.18"/>
  <line class="st3" x1="65.55" y1="46.7" x2="7.26" y2="46.7"/>
  <line class="st3" x1="134.51" y1="69.13" x2="113.32" y2="69.13"/>
  <line class="st3" x1="28.45" y1="69.13" x2="13.14" y2="69.13"/>
  <line class="st3" x1="123.3" y1="72.56" x2="113.85" y2="72.56"/>
  <line class="st3" x1="28.99" y1="72.56" x2="7.8" y2="72.56"/>
  <line class="st3" x1="129.17" y1="79.62" x2="113.85" y2="79.62"/>
  <line class="st3" x1="28.99" y1="79.62" x2="19.54" y2="79.62"/>
</svg>