<?xml version="1.0" encoding="UTF-8"?>
<svg id="Layer_1" xmlns="http://www.w3.org/2000/svg" version="1.1" viewBox="0 0 141.73 141.73">
  <!-- Generator: Adobe Illustrator 30.0.0, SVG Export Plug-In . SVG Version: 2.1.1 Build 123)  -->
  <g id="twYCVq.tif">
    <g>
      <polygon points="63.13 66.02 63.98 78.5 61.44 78.5 61.01 68.77 57.5 78.51 55.19 78.29 52.02 68.55 51.28 78.5 49.16 78.5 50.01 66.02 53.58 66.04 56.67 74.91 59.53 66.02 63.13 66.02"/>
      <path d="M57.42,85.06l5.08,9.1v-9.1h2.12v12.48h-3.07c-1.7-2.62-2.95-5.49-4.52-8.18-.21-.36-.41-1.05-.88-.92v9.1h-2.12v-12.16l.32-.32h3.07Z"/>
      <path d="M35.39,94.16v-9.1h2.12v12.48h-3.07c-1.92-2.65-3.1-6.17-4.93-8.82-.13-.19.04-.39-.47-.28v9.1h-1.91v-12.48c.87.13,2.58-.32,3.19.31l4.47,8.23.6.56Z"/>
      <path d="M52.07,46.82c5.43-.78,8.18,2.12,7.68,7.46-.43,4.63-4.76,6.35-8.86,5.02-5.46-1.77-4.66-11.64,1.17-12.49ZM52.28,48.72c-3.44.7-3.48,8.47.39,9.03,2.57.37,4.31-.85,4.54-3.46.32-3.51-.87-6.39-4.94-5.57Z"/>
      <path d="M10.4,78.5v-12.48h5.82c.38,0,2.31.82,2.72,1.09,3.42,2.27,2.94,9.03-.84,10.73-.38.17-1.78.66-2.09.66h-5.61ZM12.73,76.6h3.28c1.46,0,2.54-2.21,2.66-3.48.37-4.08-1.65-5.65-5.59-5.37l-.35.28v8.57Z"/>
      <path d="M85.9,66.02c3.94.61,4,5.52.55,6.87l3.15,5.61c-.78-.11-2.26.25-2.88-.19-.68-.49-1.94-4.17-2.66-5.06l-1.24-.03v5.29h-2.54v-12.48c1.72.19,3.96-.26,5.61,0ZM82.83,71.52c4.86.76,4.81-4.51,0-3.81v3.81Z"/>
      <path d="M68.11,46.98c3.94.55,4.04,5.48.53,6.88l3.17,5.6-2.76-.1c-.64-.39-2.06-4.47-2.64-4.98-.39-.34-.91-.19-1.38-.21v4.97c-.62.62-1.72.21-2.54.32v-12.48c1.75.18,3.92-.24,5.61,0ZM65.04,48.67v3.81c4.88.76,4.93-4.61,0-3.81Z"/>
      <path d="M105.91,66.02v5.08c1.68-.18,3.81.39,5.29-.32v-4.76h2.33v12.48h-2.33v-5.18l-.32-.32h-4.98v5.5h-2.54v-12.48h2.54Z"/>
      <path d="M101.15,85.06c4.3.51,5,5.09,1.17,6.89l2.96,5.59-2.72-.03c-.29-.18-2-4.42-2.56-4.95-.44-.42-1.49-.42-1.49.01v4.97h-2.33v-12.48c1.58.13,3.43-.18,4.98,0ZM98.5,90.56c4.76.92,5.27-4.31.35-3.77l-.35.28v3.49Z"/>
      <path d="M51.7,97.54l-2.55-.09-.96-2.88-4.82.04-1,2.91-2.52.02,4.48-12.44c.79.05,2.66-.35,3.12.3l4.25,12.15ZM47.67,92.89l-2.01-5.28c-.45.01-1.61,4.6-2.01,5.28h4.02Z"/>
      <path d="M73.69,66.05l4.48,12.45-2.73-.02-1-2.91c-1.33.07-2.93-.19-4.22-.04s-.94,2.03-1.57,2.88l-2.34.1,4.25-12.15c.47-.65,2.32-.25,3.13-.31ZM70.12,73.85h3.81c-.39-1.59-.94-3.37-1.6-4.87-.11-.26.02-.51-.41-.42l-1.8,5.29Z"/>
      <path d="M17.79,47l4.26,12.46-2.55-.09-.97-2.84-4.82-.04-1.01,2.95-2.3.03,4.26-12.46h3.13ZM18.02,54.81c-.43-1.5-.93-3.48-1.59-4.87-.12-.25-.21-.58-.53-.63-.37,1.87-1.48,3.62-1.7,5.5h3.81Z"/>
      <path d="M26.28,46.98v7.93c0,.25.45,1.62.63,1.91.87,1.34,3.64,1.31,4.55.1.09-.13.53-1.1.53-1.16v-8.78h2.33v9.2c0,.14-.6,1.36-.76,1.57-1.83,2.62-7.26,2.61-8.95-.13-.16-.27-.67-1.44-.67-1.66v-8.99h2.33Z"/>
      <polygon points="31.15 66.02 31.15 67.92 26.07 67.92 26.07 70.99 26.39 71.31 30.52 71.31 30.52 73 26.07 73 26.07 76.49 26.39 76.81 31.37 76.81 31.37 78.5 23.74 78.5 23.74 66.02 31.15 66.02"/>
      <polygon points="93.21 85.06 93.21 86.96 88.12 86.96 88.12 90.03 88.44 90.35 92.57 90.35 92.57 92.04 88.12 92.04 88.12 95.85 93.42 95.85 93.42 97.54 85.8 97.54 85.8 85.06 93.21 85.06"/>
      <polygon points="123.92 66.02 123.92 67.92 118.83 67.92 118.83 70.99 119.15 71.31 123.28 71.31 123.28 73 118.83 73 118.83 76.49 119.15 76.81 123.92 76.81 123.92 78.5 116.5 78.5 116.5 66.02 123.92 66.02"/>
      <polygon points="98.93 46.98 98.93 48.67 93.84 48.67 93.84 52.06 98.08 52.06 98.08 53.75 93.84 53.75 93.84 57.45 94.16 57.77 98.93 57.77 98.93 59.46 91.51 59.46 91.51 46.98 98.93 46.98"/>
      <path d="M114.38,85.28l-.21,1.69c-1.41-.15-4.62-.96-4.47,1.38s5.64,1.79,5.54,5.71-5.09,4.37-8.04,3.47l.19-1.88c1.46.44,5.1,1.02,5.31-1.16.24-2.52-4.87-2.19-5.48-5.13-.86-4.16,4.1-5.25,7.15-4.07Z"/>
      <path d="M133.02,67.92c-1.21-.47-4.44-.67-4.46,1.16-.03,2.63,5.79,1.69,5.53,6.15-.22,3.91-5.18,4.05-8.06,3.27l.21-1.9c1.49.32,5.17,1.12,5.3-1.17.14-2.45-3.54-2.12-4.85-4.05-2.74-4.06,3.03-6.9,6.44-5.16l-.13,1.71Z"/>
      <path d="M40.47,67.92c-1.21-.49-4.43-.78-4.43,1.16,0,2.1,5.08,2.37,5.48,4.88.78,4.86-4.49,5.52-8.04,4.54l.21-1.9c.22-.22,5.04,1.65,5.3-1.16.24-2.61-3.7-2.08-4.92-4.19-2.41-4.15,3.15-6.68,6.52-5.03l-.12,1.71Z"/>
      <path d="M100.18,68.11c-2.64-.7-5.14-.74-6.06,2.3-1.38,4.57,1.8,7.63,6.29,5.97l.43,1.69c-3.91,1.61-9.03.51-9.53-4.34-.6-5.92,3.4-9.31,9.11-7.4.5.4-.16,1.27-.23,1.78Z"/>
      <path d="M76.03,87.16c-2.41-.53-4.8-.85-5.86,1.86-1.78,4.55,1.36,8.2,6.09,6.4l.34,1.7c-5.28,2.02-10.08-.6-9.38-6.61.57-4.97,4.75-6.64,9.17-5.04l-.36,1.69Z"/>
      <polygon points="17.39 85.06 17.39 86.96 12.73 86.96 12.73 90.24 13.05 90.56 16.97 90.56 16.97 92.25 13.05 92.25 12.73 92.57 12.73 97.54 10.4 97.54 10.4 85.06 17.39 85.06"/>
      <polygon points="88.97 46.98 88.97 48.88 85.37 48.88 85.37 59.46 83.04 59.46 83.04 48.88 79.44 48.88 79.44 46.98 88.97 46.98"/>
      <polygon points="46.19 46.98 46.19 48.88 42.59 48.88 42.59 59.46 40.26 59.46 40.26 48.88 36.66 48.88 36.66 46.98 46.19 46.98"/>
      <path d="M23.53,97.54h-2.54v-12.16l.35-.28c.19-.06.4-.03.59-.04.53-.05,1.27-.1,1.6.33v12.16Z"/>
      <path d="M82.19,97.54h-2.54v-12.16l.35-.28c.19-.06.4-.03.59-.04.53-.05,1.27-.1,1.6.33v12.16Z"/>
      <rect x="74.57" y="46.98" width="2.33" height="12.48"/>
      <path d="M122.65,63.9l-3.28,1.07c-.47-.04-.65-.56-.75-.95l3.29-1.57.74,1.46Z"/>
      <path d="M97.02,43.38l.64,1.48c-1.29.06-3.81,2.16-4.02,0l3.39-1.48Z"/>
    </g>
  </g>
</svg>