<?xml version="1.0" encoding="UTF-8"?>
<svg id="Layer_1" xmlns="http://www.w3.org/2000/svg" version="1.1" viewBox="0 0 141.73 141.73">
  <!-- Generator: Adobe Illustrator 30.0.0, SVG Export Plug-In . SVG Version: 2.1.1 Build 123)  -->
  <g id="XxtDuk.tif">
    <g>
      <path d="M69.47,37.7h-8.79c-.34.67-.24,1.89-.21,2.7.09,2.36.55,4.84,1.39,7.04.22.59.49,1.2.83,1.72h-12.11c-3.39,0-6.85-4.27-6.85-7.53v-20.1c10.91-.1,21.29,6.2,25.74,16.16Z"/>
      <path d="M48.15,99.29v4.9c0,.1-.24.89-.31,1.08-.76,2.2-2.82,3.57-5.09,3.83v-25.49c0-1,.96-3.55,1.45-4.49,4.07-7.81,14.79-9.95,21.52-4.21,7.32,6.23,6.47,17.18-1.67,22.23-4.92,3.05-10.39,1.97-15.9,2.15ZM48.01,94.18h9.89c2.31,0,5.12-2.38,6.22-4.29,4.03-7.03-3.14-15.41-10.71-12.49-2.71,1.05-5.4,4.5-5.4,7.46v9.33Z"/>
      <path d="M39.99,99.29h-15.16c-12.35-1.08-17.66-16.22-7.88-24.45,8.66-7.28,22.25-1.41,23.04,9.73v14.72ZM34.59,94.18v-9.46c0-2.8-2.56-6.11-5.05-7.25-7.88-3.64-15.37,5.47-10.92,12.7,1.06,1.72,4,4.02,6.08,4.02h9.89Z"/>
      <path d="M82.07,58.98c-10.24.11-18.95-8.21-18.82-18.51h11.55c3.31,0,7.26,4.1,7.26,7.39v11.12Z"/>
      <path d="M128.97,99.29c-6.39-.15-12.2,1.13-17.37-3.45-3.02-2.67-4.53-6-4.77-10.02-.19-3.11-.3-8.43,0-11.46.37-3.71,5.2-3.88,5.54,0,.57,6.61-2.53,16.58,5.73,19.42,2.79.96,5.77-.33,8.33,1.21,1.52.91,2.32,2.59,2.53,4.31Z"/>
      <path d="M73.48,83.75c.46-5.22,4.92-10.15,9.91-11.52,2.52-.69,7.61-.84,10.23-.56,3.26.35,3.07,4.85,0,5.12-4.04.36-7.98-1.01-11.49,1.79-4.93,3.95-2.79,10.1-3.25,15.54-.24,2.85-2.61,4.93-5.4,5.18v-15.54Z"/>
      <path d="M98.66,71.66c3.3.23,5.33,2.3,5.54,5.59.41,6.24-.32,12.92,0,19.21-.04,2.66-3.24,3.9-4.92,1.73-.29-.38-.62-1.13-.62-1.59v-24.94Z"/>
    </g>
  </g>
</svg>