<?xml version="1.0" encoding="UTF-8"?>
<svg id="Layer_1" xmlns="http://www.w3.org/2000/svg" version="1.1" viewBox="0 0 141.73 141.73">
  <!-- Generator: Adobe Illustrator 30.0.0, SVG Export Plug-In . SVG Version: 2.1.1 Build 123)  -->
  <g id="F5l4w2.tif">
    <g>
      <polygon points="274.6 28.27 261.55 28.27 261.55 72.03 274.6 72.03 274.6 77.75 255.86 77.75 255.76 77.65 255.76 22.58 255.86 22.48 274.51 22.48 274.6 22.58 274.6 28.27"/>
      <polygon points="382.9 77.75 364.06 77.75 364.06 72.03 377.08 72.03 377.18 71.94 377.18 28.36 377.08 28.27 364.15 28.27 364.06 28.17 364.06 22.58 364.15 22.48 382.8 22.48 382.9 22.58 382.9 77.75"/>
      <path d="M302.71,62.01h3.22v.96h-10.71c-.2-.24-.05-.66-.1-.96h3.09v-13.4c0-2.52-.4-4.88-3.51-4.66-3.87.27-5.12,4.62-5.05,7.87v10.19h3.22v.96h-20.84v-.96h3.34v-17.87h-3.18c-.2-.24-.05-.66-.1-.96h7.78v18.83h5.21v-17.87h-2.99c-.2-.24-.05-.66-.1-.96h7.65v2.76c.24-.06.38-.4.55-.58,4.21-4.6,12.19-3.5,12.51,3.38v13.27Z"/>
      <path d="M311.84,35.14v7.94l.1.1h5.05c-.04.3.1.72-.1.96h-5.05v15.58c0,.99.63,2,1.62,2.24,1.45.35,2.91-.24,3.45-1.68.3-.82.07-1.54.22-2.41.8-4.54,6.62-5.62,10.43-5.84.25-.01,1.4.06,1.49-.06-.03-1.65.13-3.41.03-5.05-.16-2.65-1.48-3.7-4.13-3.42-.87.09-3.23.96-3.27,2.01-.02.49.96,1.34,1.03,2.19.2,2.45-3.9,3.15-4.28.3-.44-3.25,4.34-5.25,6.96-5.42,3.92-.25,7.88.95,8.14,5.43.24,4.09-.27,8.46,0,12.54.13,2.03,1.33,2.04,2.61.8h.09s.44.61.44.61c-1.29,1.44-3.31,1.93-5.15,1.3-1.84-.63-2.13-1.71-2.49-3.42-.02-.09,0-.16-.1-.22-.77,1.39-1.86,2.57-3.31,3.25-2.26,1.05-5.62.95-7.4-.96-.13-.14-.56-.81-.67-.81-1.19,2.34-4.19,2.78-6.54,2.23s-3.57-2.37-3.59-4.83v-14.37s-3.05,0-3.05,0c-.42-.75.34-.81.82-1.11,2.67-1.6,5.33-4.8,5.96-7.89h.7ZM328.93,52.83c-2.17.1-4.93.42-6.41,2.21-2.26,2.73-.51,7.61,3.45,6.08,3.27-1.26,3.17-5.33,3.08-8.24l-.12-.05Z"/>
      <path d="M361.87,35.14v7.94l.1.1h5.05c-.04.3.1.72-.1.96h-5.05v15.52c0,.06.07.45.09.55.16.78.58,1.48,1.37,1.71,1.94.57,3.7-.6,3.81-2.62h1.03c-.51,3.65-3.99,4.83-7.26,4.01-2.55-.64-3.53-2.62-3.49-5.13v-14.05s-2.99,0-2.99,0c-.02,0-.15-.07-.16-.11.02-.18-.06-.43.07-.57.06-.07,1-.51,1.22-.65,2.05-1.28,4.41-4.11,5.26-6.37.08-.21.33-1.18.37-1.24.1-.13.51-.04.68-.06Z"/>
      <path d="M353.57,56.54h1.16c-.1.47-.23.93-.38,1.38-2.81,7.94-13.55,7.07-16.91-.01-2.67-5.63-.08-12.58,5.83-14.73,3.3-1.2,8.38-.72,10.28,2.62.79,1.39.85,3.5-.74,4.34-2.38,1.24-4.14-1.57-3.01-3.71.47-.89,1.51-1.19.18-2.13-1.16-.81-3.08-.97-4.43-.72-3.84.72-3.74,5.32-3.85,8.36-.15,4.3-.9,11.04,5.43,10.57,3.24-.24,5.78-2.9,6.46-5.98Z"/>
      <path d="M276.91,32.4c4.08-.42,4.96,5.67.99,6.46-4.47.88-5.47-6-.99-6.46Z"/>
      <path d="M332.77,72.03c.68.97,1.25,2,1.9,2.99.09.14.48.8.61.8.12-1.14-.17-2.44-.03-3.57.01-.09,0-.17.1-.22h1.19v5.72h-1.35l-2.48-3.85c-.19.14-.03.35-.03.54.02,1.1-.02,2.21,0,3.31h-1.29v-5.72h1.38Z"/>
      <path d="M293.51,72.03c.61,1.03,1.24,2.08,1.9,3.08.16.24.32.54.54.71v-3.79h1.29v5.62l-.1.1h-1.22l-2.42-3.75-.18-.11v3.86h-1.22v-5.72h1.41Z"/>
      <path d="M318.43,72.03c.3.04.85.26,1.09.45.91.73.66,2.58-.54,2.83v.09s1.35,2.35,1.35,2.35h-1.38l-1.2-2.17h-.5s0,2.08,0,2.08l-.1.1h-1.19v-5.72c.78.07,1.71-.09,2.48,0ZM317.24,74.54h.93c.29,0,.62-.5.61-.8-.02-.78-.98-.76-1.55-.74v1.54Z"/>
      <path d="M309.01,72.03v3.89c0,.06.2.44.26.51.41.42,1.29.38,1.67-.06.03-.04.19-.3.19-.32v-3.92l.1-.1h1.19v4.08c0,.23-.32.81-.48,1-.91,1.06-3.32.98-3.97-.34-.06-.12-.25-.68-.25-.78v-3.95h1.29Z"/>
      <path d="M322.77,77.75l2.13-5.71h1.31s2.22,5.71,2.22,5.71h-1.41l-.38-1.12-2.12-.03-.42,1.15h-1.32ZM326.31,75.57c-.22-.59-.38-1.33-.64-1.9-.03-.06-.04-.15-.13-.16l-.71,2.06h1.48Z"/>
      <polygon points="351.52 72.03 351.52 73.06 349.14 73.06 349.14 74.28 351.39 74.28 351.39 75.31 349.14 75.31 349.14 76.72 351.58 76.72 351.58 77.75 347.95 77.75 347.85 77.65 347.85 72.13 347.95 72.03 351.52 72.03"/>
      <path d="M302.24,71.99c.81-.1,1.55.1,2.17.62l-.46.83c-.32-.07-.52-.35-.86-.42-.55-.11-1.57-.03-1.15.77.31.6,2.12.51,2.51,1.66.33.97-.27,1.99-1.24,2.26-1.06.3-2.03.01-2.82-.72l.61-.92c.41.44,1.33.9,1.91.63.38-.18.51-.63.21-.95s-1.26-.49-1.7-.74c-1.49-.87-.83-2.83.82-3.03Z"/>
      <path d="M344.31,73.57c-.25-.1-.46-.3-.73-.4-1.6-.57-2.88.65-2.46,2.27.37,1.44,2.21,1.55,3.22.7l.41.88c-.63.89-2.18.97-3.14.63-2.43-.86-2.47-4.56-.09-5.49.99-.38,2.33-.28,3.17.41l-.38,1Z"/>
      <rect x="287.27" y="72.03" width="1.29" height="5.72"/>
    </g>
  </g>
  <g id="_x31_KTK1p">
    <g>
      <path d="M86.27,32.44v23.84s-5.57.42-5.57.42l-.66-.72-2.32-21.74-2.3,22.89c-6.54.12-12.65,2.42-18.85,4.09v-28.79h29.69Z"/>
      <path d="M129.45,99.01h-6.3l-2.23-6.09c-.49-.33-7.3-.36-8.37-.23-2.4.28-2.67,4.46-3.87,6.25l-4.87.07,8.81-20.21-1.61-2.28h9.67l8.77,22.49ZM119.56,90.01l-2.7-8.55c-1.85,2.39-2.89,5.71-4.04,8.55h6.75Z"/>
      <path d="M38.6,99.01h-6.3l-2.02-5.85-9.38-.38-3.07,6.15-4.87.07,8.98-21.12c-.82-.33-2.11-.09-1.79-1.37h9.67l8.77,22.49ZM21.95,90.01h6.75c-.45-2.34-1.48-5.05-2.5-7.19-.25-.53.07-1.1-.87-.91l-3.38,8.1Z"/>
      <path d="M87.17,76.52l6.07,16.2,6.76-16.22,4.71.02-9.21,22.05-6.71.46-8.01-20.4c-.22-.9-2.55-1.31-2.6-1.89-.08-1.11,1.06-.22,1.12-.22h7.87Z"/>
      <polygon points="52.53 92.26 58.9 76.58 63.33 76.52 54.27 98.93 47.54 98.74 39.68 78.8 37.24 77.41 37.69 76.28 45.81 76.72 52.53 92.26"/>
      <polygon points="75.03 76.52 75.03 99.01 68.73 99.01 68.73 78.54 66.48 76.52 75.03 76.52"/>
    </g>
  </g>
</svg>