<?xml version="1.0" encoding="UTF-8"?>
<svg id="Layer_1" xmlns="http://www.w3.org/2000/svg" version="1.1" viewBox="0 0 141.73 141.73">
  <!-- Generator: Adobe Illustrator 30.0.0, SVG Export Plug-In . SVG Version: 2.1.1 Build 123)  -->
  <g id="TblFnD.tif">
    <g>
      <path d="M103.4,68.97l-3.23,2.03c-3.56-5.21-12.01-4.65-14.72,1.11-1.26,2.66-1.14,6.29.29,8.87,2.84,5.15,11.05,5.72,14.17.63l3.49,2.14c-5.11,8.44-18.96,6.41-22.49-2.58-4.51-11.48,7.41-21.58,18.18-16.46,1.74.82,3.77,2.42,4.31,4.28h0Z"/>
      <path d="M55.31,71.03c-2.15-4.18-8.56-4.57-12.06-1.93-3.76,2.83-4.28,8.65-1.77,12.48,3.04,4.63,10.9,4.83,13.84.03l3.49,2.11c-2.95,5.42-10.4,6.44-15.76,4.26-10.29-4.17-10.23-19.47.19-23.53,5.03-1.96,11.63-1.14,15.05,3.34.13.17.45.65.48.82.07.48-2.9,2.11-3.45,2.41h-.01Z"/>
      <path d="M66.63,60.38c.68-6.77,8.05-8.59,13.36-5.63l-1.29,3.5c-1.82-1.39-5.41-1.78-6.87.28-.21.29-.74,1.59-.74,1.86v3.43h7.24v3.71h-7.24v21.31h-4.46v-21.31h-4.27v-3.71h4.27c.08-1.11-.11-2.34,0-3.43h0Z"/>
    </g>
  </g>
</svg>