<?xml version="1.0" encoding="UTF-8"?>
<svg id="Layer_1" xmlns="http://www.w3.org/2000/svg" version="1.1" viewBox="0 0 141.73 141.73">
  <!-- Generator: Adobe Illustrator 30.0.0, SVG Export Plug-In . SVG Version: 2.1.1 Build 123)  -->
  <g id="_x34_kEgQ3">
    <g>
      <path d="M53.15,50.25c-.04.12.12.26.12.29v9.59c2.03-3.25,7-3.96,10.15-2,1.47.92,2.56,3.41,2.56,5.11v1.71l.42-1.41c2.45-7.67,13.81-8.95,17.48-1.61l1.04,3.02v-14.53l.18-.18h5.23v14.11l1.24-2.93c3.5-5.94,13.72-5.81,17.12.15l1.16,2.9v-6.94h5.18v2.59c1.77-2.68,4.75-3.4,7.81-2.93,3.53.55,4.87,3.06,5.13,6.4v13.35s-5.23,0-5.23,0l-.18-.18v-12.23c0-.18-.32-1.24-.41-1.47-1-2.47-5.01-2.17-6.22.01-.17.3-.66,1.78-.66,2.04v11.82h-5.41v-6.82c-.17-.03-.16.21-.2.33-.93,3.05-2.41,5.13-5.5,6.26-5.24,1.91-11.77.03-13.53-5.65-.09-.29,0-.82-.29-.94v6.82h-5.23l-.18-.18v-8.17h-13.64c-.04.53.03,1.04.15,1.55.58,2.53,2.62,3.35,5.09,3.16,1.47-.12,2.94-1.09,3.47-2.47h4.7c-.49,2.35-2.04,4.52-4.23,5.59-4.75,2.31-11.81.71-13.79-4.57l-.68-2.08v7.17h-5.23l-.18-.18v-12.35c0-.38-.63-2.02-.91-2.3-1.08-1.07-3.86-.95-5,0-.71.6-1.38,2.45-1.38,3.35v11.29l-.18.18h-5.23v-5.76l-.69,1.73c-2.45,5.01-10.04,5.75-14.29,2.72-2.22-1.58-3.62-4.32-3.73-7.04h-13.53c0,.32-.01.65.03.97.38,2.84,2.46,3.96,5.21,3.74,1.4-.11,3.02-1.1,3.47-2.47h4.82c-1.18,4.14-4.12,6.36-8.41,6.59-7.76.42-12.06-6.09-10.15-13.32,2.54-9.62,17.11-9.38,18.55.73.37-.44.42-1.18.65-1.76,2.74-7.03,12.22-8.05,16.93-2.58l1.13,2.34v-12.41l.18-.18h5.12ZM23.98,65.19c-.1-1.65-1.13-3.51-2.86-3.9-2.78-.62-5.11.86-5.56,3.66l.13.24h8.29ZM42.92,69.42h4.94v-4.94h-5c-.47-1.23-.63-2.26-1.94-2.89-7.61-3.63-9.23,13.06-1.03,11.68,1.77-.3,2.9-2.18,3.03-3.85ZM79.62,65.19c-.28-2.61-1.8-4.19-4.53-4-1.63.11-2.99,1.02-3.56,2.56-.17.46-.29.95-.26,1.44h8.35ZM102.98,62.17c-2.22-1.99-5.85-1.02-6.96,1.73-1.62,4.01-.07,10.99,5.58,9.23,3.79-1.18,3.94-8.66,1.38-10.95Z"/>
      <path d="M111.14,90.36h.47s-.02.63-.02.63c-.12.38-1.53.29-1.4-.4-1.1.92-3.48,1.03-3.53-.88,0-.32.07-.93.47-.77l-.12-.34c.25-.07.42-.25.67-.33.58-.19,2.48-.15,2.5-.91.02-.89-1.61-.95-2.09-.5-.39.37.04.91-1.21.68l.12-.71.23.12c.05-.08-.32-.42.29-.82.71-.47,2.71-.57,3.29.12.54.64.19,3.25.3,4.11ZM110.2,88.59c-.95.21-2.81,0-2.44,1.5.59.47,1.78.32,2.19-.28.13-.19.04-.48.35-.57l-.1-.65Z"/>
      <path d="M127.96,88.83h-4c-.04.19.17.05.23.2.14.32.07.64.41.98.67.66,2.14.44,2.32-.57l.92-.02c-.17,1.57-1.41,1.96-2.85,1.74-2.58-.41-2.6-5.46.68-5.39,1.79.04,2.32,1.5,2.29,3.07ZM124.37,87.89c.65-.09,1.65,0,2.35,0,.01,0,.29.23.29-.06,0-.12-.6-1.01-.74-1.08-1.01-.5-2.11.12-2.08,1.25.04.06.14-.11.18-.12Z"/>
      <path d="M96.91,87.42h-1.06c.12-1.05-2.1-1.1-2.1-.18,0,.62,1.4.7,1.93.88.68.23,1.27.37,1.42,1.17.47,2.48-4.7,2.66-4.42.12h.93c0,1.26,2.59,1.33,2.5.06,0-.07-.36-.48-.39-.5-.05-.03-.97-.09-1.19-.16-.2-.06-.53-.16-.82-.26-1.59-.53-1.23-2.5.47-2.76,1.39-.21,2.5.11,2.73,1.62Z"/>
      <path d="M87.38,86.06l.82-.18.06.59c.58-.75,1.51-.83,2.4-.63.11.02.71.42.77.52.09.14.3.76.3.88v3.82h-.94v-3.59c0-.76-1.1-1.07-1.75-.7-.09.05-.72.65-.72.7v3.41c-.23.27-.73.26-.94,0v-4.82Z"/>
      <path d="M115.84,87.59c-.15-1.05-1.27-1.3-2.03-.65-.08.07-.44.61-.44.65v3.47h-.94v-5.18h.82s-.12.59-.12.59c.46.05.6-.56,1.14-.68s1.56-.05,1.97.34c.12.12.54.99.54,1.11v3.65c-.14.3-.94.21-.94,0-.11-1.02.14-2.31,0-3.29Z"/>
      <path d="M98.91,89.59c.02.1.37.66.47.71.62.3,2-.17,2-.94v-3.29c.23-.27.73-.26.94,0v4.82l-.2.16h-.63s-.06-.58-.06-.58c-.85,1.2-3.47.97-3.47-.77v-3.65c.14-.3.94-.21.94,0,.14,1.03-.19,2.57,0,3.53Z"/>
      <path d="M122.16,86.63c.27.39.53,1-.14,1.03-.72.04-.79-.89-1.32-1.05-1.16-.35-2,.74-2.02,1.81,0,.12.11,1.15.14,1.2.02.03.47.46.51.48.94.62,2,.18,2.17-.91h.93c-.11,1.62-1.22,2.15-2.77,1.99-.94-.1-1.74-.94-1.91-1.85-.06-.31-.06-.83-.03-1.15.06-.63.41-1.72,1.04-1.86.83-.94,2.68-.72,3.4.32Z"/>
      <polygon points="85.97 83.89 85.97 91.06 85.1 91.05 84.91 90.77 84.94 84.26 85.15 84.18 84.91 83.89 85.97 83.89"/>
      <path d="M103.61,86.06l.82-.18.06.82c.5-.79,1.03-.96,1.94-.94l-.05.83c-.6.29-1.12.21-1.53.82-.06.09-.3.6-.3.64v2.82c-.23.27-.73.26-.94,0v-4.82Z"/>
    </g>
  </g>
</svg>