<?xml version="1.0" encoding="UTF-8"?>
<svg id="Layer_1" xmlns="http://www.w3.org/2000/svg" version="1.1" viewBox="0 0 141.73 141.73">
  <!-- Generator: Adobe Illustrator 30.0.0, SVG Export Plug-In . SVG Version: 2.1.1 Build 123)  -->
  <defs>
    <style>
      .st0 {
        opacity: .64;
      }

      .st1 {
        fill: #aaadad;
      }
    </style>
  </defs>
  <g id="G1cHhw">
    <g>
      <path d="M50.22,64.96c7.61,8.1,17.72,11.44,28.06,7.4,3.94-1.54,18.18-8.36,21.08-10.67,4.23-3.37,2.5-9.67-2.65-9.95-4.04-.22-17.9,9.36-22.95,11.06-5.92,2-12.33.13-15.7-5.17-8.07-12.71,7.49-25.98,19.4-17.31l9.55-4.82c-5.57-7.53-15.25-9.99-24.22-7.82-7.16,1.74-15.06,9.42-16.59,16.68,0,0-3.9,12.16,4.02,20.59Z"/>
      <path d="M51.72,81.84v19.89c0,2.57,5.55,3.09,5.55-.5v-19.38h3.53v20.9c0,.55-1.66,2.72-2.35,3.2-2.38,1.68-6.5,1.58-8.58-.6-.36-.37-1.68-2.82-1.68-3.1v-20.39h3.53Z"/>
      <path d="M77.43,88.9l-3.51-.02c.62-4.99-6.09-4.7-6.1-.23-.01,4.8,8.68,3.04,9.58,8.59.53,3.28.03,8.21-3.64,9.4-5,1.62-10.38-.92-9.44-6.66l3.51.02c-.91,3.92,4.87,4.96,5.84,2.02,2.99-9.08-9.82-3.85-9.39-13.88.4-9.28,14.4-8.36,13.14.76Z"/>
      <path d="M91.54,81.84v3.02c-.31.31-3.91-.66-4.54.75v21.4h-3.53v-21.4c-.63-1.41-4.23-.44-4.54-.75v-3.02h12.61Z"/>
      <path d="M44.15,81.84v20.39c0,1.7-3.25,4.33-4.9,4.67-3.09.63-3.8-.41-6.19-1.64l2.26-2.26c.8.03,1.39,1.49,1.49,1.48.96-.12,3.81-1.65,3.81-2.75v-19.89h3.53Z"/>
    </g>
  </g>
  <path class="st0" d="M86.46,47.9l-14.17,7.57c-2.75,1.39-6.11.29-7.5-2.46h0c-1.39-2.75-.29-6.11,2.46-7.5l19.76-9.99-.55,12.39Z"/>
  <path class="st1" d="M102.93,93.45c-1.03,1.2-4.7,3.22-6.36,3.2-.93,5.78,2.91,8.38,6.73,3.45l3.56-5.49c1,.69.66.99.43,1.9-.59,2.34-3.96,8.46-6.16,9.47-13.17,6.05-10.25-22.37.18-21.98,4.66.17,3.82,6.88,1.62,9.45ZM101.57,87.06c-2.81-1.53-5.69,6.83-5.04,7.55,3.09-.75,5.37-4.4,5.04-7.55Z"/>
</svg>