<?xml version="1.0" encoding="UTF-8"?>
<svg id="Layer_1" xmlns="http://www.w3.org/2000/svg" version="1.1" viewBox="0 0 141.73 141.73">
  <!-- Generator: Adobe Illustrator 30.0.0, SVG Export Plug-In . SVG Version: 2.1.1 Build 123)  -->
  <defs>
    <style>
      .st0 {
        fill: #231f20;
      }
    </style>
  </defs>
  <g id="twYCVq.tif">
    <g>
      <polygon points="891.27 185.03 895.27 243.91 883.27 243.91 881.27 198 864.69 243.97 853.79 242.92 838.82 196.99 835.33 243.91 825.33 243.91 829.34 185.04 846.22 185.13 860.79 226.95 874.29 185.03 891.27 185.03"/>
      <path d="M864.3,274.84l23.98,42.91v-42.91h9.99v58.88h-14.49c-8-12.34-13.92-25.92-21.32-38.59-.98-1.68-1.91-4.94-4.16-4.32v42.91h-9.99v-57.38l1.5-1.5h14.49Z"/>
      <path d="M760.4,317.76v-42.91h9.99v58.88h-14.49c-9.07-12.52-14.61-29.1-23.24-41.61-.61-.89.18-1.84-2.23-1.3v42.91h-8.99v-58.88c4.09.63,12.18-1.51,15.04,1.44l21.09,38.81,2.83,2.66Z"/>
      <path d="M839.08,94.47c25.6-3.7,38.59,9.98,36.25,35.21-2.03,21.82-22.46,29.94-41.78,23.69-25.74-8.33-21.98-54.92,5.53-58.9ZM840.05,103.42c-16.22,3.3-16.4,39.95,1.85,42.6,12.14,1.76,20.31-3.99,21.43-16.34,1.51-16.58-4.11-30.17-23.29-26.26Z"/>
      <path d="M642.52,243.91v-58.88h27.47c1.8,0,10.88,3.87,12.82,5.16,16.14,10.71,13.88,42.59-3.96,50.6-1.8.81-8.4,3.12-9.86,3.12h-26.47ZM653.5,234.93h15.48c6.87,0,11.98-10.42,12.53-16.43,1.74-19.24-7.8-26.66-26.36-25.33l-1.65,1.34v40.42Z"/>
      <path d="M998.66,185.03c18.58,2.9,18.88,26.06,2.6,32.41l14.88,26.46c-3.7-.53-10.65,1.2-13.56-.91-3.21-2.32-9.16-19.69-12.57-23.87l-5.84-.16v24.95h-11.99v-58.88c8.12.9,18.68-1.22,26.47,0ZM984.18,210.97c22.91,3.6,22.69-21.26,0-17.96v17.96Z"/>
      <path d="M914.75,95.21c18.58,2.61,19.06,25.87,2.52,32.43l14.97,26.44-13-.48c-3-1.82-9.72-21.07-12.46-23.48-1.84-1.62-4.27-.91-6.51-.98v23.45c-2.9,2.93-8.13.98-11.99,1.5v-58.88c8.24.83,18.5-1.12,26.47,0ZM900.26,103.2v17.96c23,3.61,23.26-21.73,0-17.96Z"/>
      <path d="M1093.07,185.03v23.95c7.94-.86,17.97,1.84,24.98-1.5v-22.45h10.99v58.88h-10.99v-24.45l-1.5-1.5h-23.48v25.95h-11.99v-58.88h11.99Z"/>
      <path d="M1070.59,274.84c20.27,2.39,23.59,24.02,5.5,32.49l13.98,26.38-12.82-.16c-1.39-.86-9.44-20.86-12.09-23.34-2.1-1.96-7.05-1.96-7.05.05v23.45h-10.99v-58.88c7.46.63,16.18-.86,23.48,0ZM1058.11,300.79c22.44,4.32,24.87-20.32,1.65-17.8l-1.65,1.34v16.47Z"/>
      <path d="M837.32,333.72l-12.04-.43-4.55-13.59-22.73.2-4.73,13.73-11.89.09,21.14-58.7c3.71.23,12.54-1.65,14.74,1.41l20.06,57.29ZM818.34,311.77l-9.49-24.93c-2.13.05-7.6,21.72-9.49,24.93h18.98Z"/>
      <path d="M941.08,185.17l21.11,58.73-12.88-.1-4.72-13.74c-6.27.32-13.83-.88-19.91-.18-6.1.7-4.45,9.58-7.4,13.57l-11.03.45,20.06-57.29c2.23-3.07,10.96-1.16,14.76-1.44ZM924.24,221.95h17.98c-1.85-7.51-4.41-15.91-7.53-22.96-.54-1.22.08-2.41-1.95-1.99l-8.5,24.95Z"/>
      <path d="M677.37,95.33l20.1,58.76-12.05-.44-4.57-13.4-22.74-.19-4.74,13.89-10.85.13,20.07-58.77,14.77.02ZM678.48,132.14c-2.01-7.07-4.37-16.42-7.49-22.95-.56-1.16-1.01-2.74-2.49-2.99-1.76,8.82-6.97,17.1-8,25.95h17.98Z"/>
      <path d="M717.44,95.21v37.42c0,1.2,2.12,7.65,2.99,8.99,4.09,6.32,17.17,6.19,21.47.48.44-.59,2.51-5.17,2.51-5.47v-41.41h10.99v43.41c0,.66-2.85,6.4-3.56,7.42-8.62,12.36-34.24,12.33-42.23-.6-.78-1.26-3.16-6.81-3.16-7.82v-42.41h10.99Z"/>
      <polygon points="740.42 185.03 740.42 194.01 716.44 194.01 716.44 208.48 717.94 209.98 737.42 209.98 737.42 217.96 716.44 217.96 716.44 234.43 717.94 235.92 741.42 235.92 741.42 243.91 705.45 243.91 705.45 185.03 740.42 185.03"/>
      <polygon points="1033.13 274.84 1033.13 283.82 1009.15 283.82 1009.15 298.3 1010.65 299.79 1030.13 299.79 1030.13 307.78 1009.15 307.78 1009.15 325.74 1034.13 325.74 1034.13 333.72 998.16 333.72 998.16 274.84 1033.13 274.84"/>
      <polygon points="1177.99 185.03 1177.99 194.01 1154.01 194.01 1154.01 208.48 1155.51 209.98 1174.99 209.98 1174.99 217.96 1154.01 217.96 1154.01 234.43 1155.51 235.92 1177.99 235.92 1177.99 243.91 1143.02 243.91 1143.02 185.03 1177.99 185.03"/>
      <polygon points="1060.1 95.21 1060.1 103.2 1036.13 103.2 1036.13 119.16 1056.11 119.16 1056.11 127.15 1036.13 127.15 1036.13 144.61 1037.63 146.11 1060.1 146.11 1060.1 154.09 1025.14 154.09 1025.14 95.21 1060.1 95.21"/>
      <path d="M1133.02,275.88l-.99,7.96c-6.67-.7-21.8-4.51-21.07,6.49s26.6,8.42,26.15,26.93c-.47,19.03-24.01,20.6-37.94,16.37l.9-8.89c6.89,2.07,24.07,4.82,25.05-5.46,1.14-11.9-22.96-10.34-25.83-24.19-4.07-19.64,19.35-24.75,33.72-19.2Z"/>
      <path d="M1220.94,194.01c-5.72-2.2-20.95-3.17-21.05,5.46-.15,12.42,27.31,7.97,26.11,29-1.06,18.43-24.42,19.09-38.02,15.43l1.01-8.98c7.03,1.5,24.4,5.26,25.01-5.5.66-11.56-16.72-10.01-22.86-19.11-12.92-19.16,14.3-32.55,30.4-24.36l-.59,8.06Z"/>
      <path d="M784.37,194.02c-5.69-2.3-20.91-3.67-20.9,5.48.02,9.9,23.94,11.17,25.84,23.01,3.68,22.92-21.16,26.04-37.91,21.39l1.01-8.98c1.02-1.06,23.78,7.79,25-5.48,1.13-12.3-17.45-9.81-23.22-19.76-11.36-19.59,14.88-31.51,30.75-23.72l-.58,8.05Z"/>
      <path d="M1066,194.92c-12.46-3.32-24.26-3.48-28.6,10.85-6.52,21.56,8.5,35.99,29.69,28.16l2.01,7.97c-18.43,7.6-42.61,2.42-44.95-20.45-2.85-27.93,16.03-43.91,42.96-34.92,2.37,1.89-.78,6.01-1.11,8.39Z"/>
      <path d="M952.11,284.74c-11.35-2.51-22.64-3.99-27.65,8.8-8.41,21.46,6.4,38.7,28.74,30.21l1.6,8.02c-24.92,9.55-47.53-2.85-44.27-31.19,2.69-23.44,22.39-31.31,43.26-23.78l-1.68,7.95Z"/>
      <polygon points="675.48 274.84 675.48 283.82 653.5 283.82 653.5 299.29 655 300.79 673.48 300.79 673.48 308.77 655 308.77 653.5 310.27 653.5 333.72 642.52 333.72 642.52 274.84 675.48 274.84"/>
      <polygon points="1013.15 95.21 1013.15 104.19 996.17 104.19 996.17 154.09 985.18 154.09 985.18 104.19 968.19 104.19 968.19 95.21 1013.15 95.21"/>
      <polygon points="811.35 95.21 811.35 104.19 794.37 104.19 794.37 154.09 783.38 154.09 783.38 104.19 766.39 104.19 766.39 95.21 811.35 95.21"/>
      <path d="M704.45,333.72h-11.99v-57.38l1.66-1.34c.91-.29,1.86-.13,2.79-.21,2.48-.21,6-.49,7.54,1.55v57.38Z"/>
      <path d="M981.18,333.72h-11.99v-57.38l1.66-1.34c.91-.29,1.86-.13,2.79-.21,2.48-.21,6-.49,7.54,1.55v57.38Z"/>
      <rect x="945.22" y="95.21" width="10.99" height="58.88"/>
      <path d="M1171.99,175.04l-15.48,5.04c-2.23-.2-3.08-2.63-3.53-4.49l15.54-7.43,3.48,6.87Z"/>
      <path d="M1051.1,78.25l3.01,6.97c-6.07.27-17.95,10.19-18.98.03l15.97-7Z"/>
    </g>
  </g>
  <g>
    <path class="st0" d="M75.81,47.44c-.14-.69-2.08-3.74-2.72-4.4-6.39-6.7-18.63-3.51-20.15,5.63-.68,4.06.72,19.63-.4,21.51-.5.85-2.18,1.18-2.89.42-.41-.53-.54-1.18-.63-1.82-.63-4.52-.44-17.89.76-22.16,3.5-12.41,20.66-14.89,27.58-4.01,2.72,4.27,2.77,12.47,2.3,17.46-.83,8.84-11.52,7.94-12.58,1.04-.39-2.51.79-11.2-.95-12.33l-3.25-.02c-.47.38-.64.86-.75,1.44-.37,1.95-.3,11.01.02,13.09.98,6.39,9.59,9.84,15.43,7.83,11.94-4.11,5.89-20.32,7.54-29.16.34-1.84,2.81-2.33,3.47-.7.76,1.87.6,15.4.38,18.24-1.68,21.54-28.93,20.1-30.68,2.71-.3-2.92-.34-9.17-.02-12.05.82-7.27,11.48-7.05,12.58.05.67,4.33-2.48,15.22,4.96,11.74-.59-4.22.8-10.59,0-14.51Z"/>
    <path class="st0" d="M19.84,98.34v-8.75c0-.09.37-.83.6-.91l1.9.55v13.57c0,.75-1.76.59-2.4.07-1.78-1.44-4.69-6.54-6.54-8.63-.29-.33-.62-.8-1.06-.9v9.11c0,1.04-2.5,1.04-2.5,0v-13.22c.59-.78,1.94-.76,2.7-.2l7.3,9.31Z"/>
    <path class="st0" d="M116.63,93.7l.59-1.45,1.58.18c.27.18.28.45.33.73.27,1.42.2,7.71,0,9.3-.71,5.88-10.16,4.39-10.68,2.44-.61-2.27,2.86-.57,3.69-.47,2.6.31,5.02-.62,4.3-3.58-2.1,2.41-6.91,1.73-8.06-1.23-2.24-5.72,3.88-10.25,8.24-5.92ZM113.33,94.13c-3.79.37-3.88,6.69.96,5.98,3.73-.54,2.79-6.35-.96-5.98Z"/>
    <path class="st0" d="M70.57,93.7c4.44-3.97,9.26-.45,8.58,5.19-.51,4.2-5.48,6.19-8.4,3.03-1.01,2.19-2.76,1.95-3.04-.53-.22-1.98-.31-10.37.09-12.07.26-1.1.96-1.72,2.07-1.16,1.31.66.49,4.2.71,5.54ZM72.6,94.49c-3.02.68-2.88,6.3.31,6.7,4.95.63,5.1-7.91-.31-6.7Z"/>
    <path class="st0" d="M103.42,88.52c.29-.93,2.21-.76,2.49.72.34,1.78.28,10.56.03,12.51-.27,2.07-2.37,2.29-2.7.16-4.03,3.36-8.91.73-8.77-4.47s5.25-7.25,8.95-3.74v-5.18ZM97.81,95.23c-2.44,2.89.89,7.81,4.17,5.43,4.08-2.97-1.27-8.86-4.17-5.43Z"/>
    <path class="st0" d="M62.7,96.02c-.42-1.97-4.19-2.37-4.63,0-.29,1.54.69,6.74-.96,7.27-.91.29-1.48-.18-1.75-1.01-.38-1.17-.38-11.12-.14-12.67.16-1.04.71-1.97,1.89-1.59,1.43.46.84,4.16.95,5.32,2.25-2.05,6.12-1.85,6.97,1.42.28,1.07.38,6.66.1,7.62-.43,1.43-2.43.75-2.43.61,0-1.8.32-5.47,0-6.96Z"/>
    <path class="st0" d="M34.72,101.79c-5.15,5.17-14.09-2.28-8.59-8.06,5.35-5.62,13.88,2.75,8.59,8.06ZM29.39,94.49c-3.73.84-2.69,8.09,2.26,6.55,3.44-1.07,2.57-7.63-2.26-6.55Z"/>
    <path class="st0" d="M123.78,98.7c.38,2.35,2.23,2.94,4.39,2.43.74-.18,2.61-2.08,2.78-.1.26,3.06-7.87,3.68-9.4-1-2.89-8.84,10.68-11.57,10.03-1.92l-.48.59h-7.32ZM129.14,96.91c-.3-3.9-4.92-3.69-5.36,0h5.36Z"/>
    <path class="st0" d="M49.76,89.5l.44,2.77,2.27.05c1.81,1.9-.49,2.38-2.27,2.09l.34,6.63c4.51.11,2.47,3.07-1.15,2.22-3.2-.75-1.52-6.47-2.03-8.6-.1-.4-1.25-.59-1.42-1.17-.17-.81,1.2-1.04,1.34-1.3.31-.55-.15-2,.52-2.7h1.97Z"/>
    <path class="st0" d="M44.44,92.32c.3.19.4,1.48.08,1.85-.57.86-2.79.25-3.43,2.74-.41,1.58.64,7.27-2.08,6.4-1.28-.41-1.28-9.26-.77-10.32.73-1.49,2.35-.54,2.86.71.6-.93,2.31-2.02,3.34-1.37Z"/>
    <path class="st0" d="M81.28,92.8c.34-1.11,3.22-.7,2.5,1.25.63-.12.59-1.04,1.22-1.45.83-.55,2.63-.67,2.73.57.13,1.63-1.43,1.38-2.36,1.95-2.92,1.8-.35,8.25-2.85,8.24-.39,0-1.25-.72-1.25-.9,0-1.91-.38-8.39,0-9.64Z"/>
    <path class="st0" d="M89.85,92.8c.76-.75,1.96-1.03,2.33.15.3.96.37,8.5.1,9.42-.4,1.36-2.43,1.08-2.43.43v-10Z"/>
    <path class="st0" d="M92.3,88.39c.96,1.51-1.54,3.53-2.64,1.74s2.08-2.63,2.64-1.74Z"/>
  </g>
</svg>