<?xml version="1.0" encoding="UTF-8"?>
<svg id="Layer_1" xmlns="http://www.w3.org/2000/svg" version="1.1" viewBox="0 0 141.73 141.73">
  <!-- Generator: Adobe Illustrator 30.0.0, SVG Export Plug-In . SVG Version: 2.1.1 Build 123)  -->
  <g id="_x38_ZqaBt.tif">
    <g>
      <polygon points="14.52 36.56 77.77 36.56 77.77 42.08 32.32 42.08 32.32 99.49 14.52 99.49 14.52 36.56"/>
      <path d="M14.52,102.61c1.88.12,5.07-.77,5.07,2.04,0,1.84-1.41,1.75-1.47,1.92-.18.52.54.29.84.59.33.33.75,3.95.6,4.09-2.19.49-.35-3.56-1.9-3.98-.71-.19-1.46-.09-2.19-.11-.06,1.23.09,2.5,0,3.73-.05.68-.6.25-.96.35v-8.65ZM15.88,103.37c-.67.22-.4,2.23-.29,2.86,3.74,1.31,4.28-3.56.29-2.86Z"/>
      <path d="M74.76,98.05c-.21-.03-1.08-.34-1.2-.48-.26-.49-.33-1.01-.37-1.55-.68-8.23.54-17.39,0-25.72l.29-1.27,8.59-.26,8.44,23.51,8.54-23.54h6.37v29.3h-3.85v-25.94l-9.78,25.95c-1.02-.19-3.28.4-3.91-.4l-8.44-24.12c-1.01-.22-.08.95-.27,1.16-.09.1-.44.02-.44.04v23.3c-1.23-.13-2.78.18-3.97,0Z"/>
      <path d="M66.52,75.65c-.37-.21-.68-1.77-1.01-2.23-2.67-3.72-12.33-1.49-10.28,4.03.34.93,1.14,1.63,2.01,2.08,4.89,2.5,14.8,1.42,15.49,9.03.7,7.69-6.58,10.63-13.13,10.23-5.63-.34-11.21-2.52-10.69-9.14l5.52-.23c-.43,5.77,7.98,7.64,11.31,3.95,1.55-1.72,1.83-5.1-.12-6.6-4.31-3.32-13.95-1.68-16.04-7.76-4.05-11.79,19.43-14.86,22.14-5.3.16.55.57,1.99-.13,2.22-.57.19-4.58.03-5.08-.26Z"/>
      <path d="M122.38,68.75c8.07.81,9.85,10.83,2.29,13.81,1.78.83,3.45,1.42,4.52,3.17,3.31,5.38-.81,12.33-7.05,12.33h-12.63v-29.3c4.12.3,8.81-.41,12.87,0ZM113.36,81h7.33c.64,0,2.87-.95,3.37-1.44,1.24-1.24,1.54-4.47.57-5.86-.36-.52-2.41-1.59-2.98-1.59h-8.3v8.89ZM113.36,94.69h8.3c.12,0,1.74-.55,1.97-.67,3.72-1.85,3.23-7.66-.58-9.12-.28-.11-1.71-.53-1.87-.53h-7.82v10.33Z"/>
      <path d="M77.77,49.77v1.2h-29.34v47.44l-.24.24c-.63.4-1.26-.33-1.22-.95l.13-47.45c.07-.11.65-.48.72-.48h29.94Z"/>
      <path d="M31.71,111.26c-2.19-.44-2.03-4.87-1.78-6.58.41-2.85,4.51-3.01,5.16-.88.46,1.51.16,5.2-.37,6.74l1.44-.24v.96c-1.31-.18-3.22.24-4.45,0ZM32.5,103.14c-2.05.17-1.78,3.58-1.63,5.13.26,2.78,2.96,2.8,3.32,1.14.17-.79.18-3.91.06-4.76s-.91-1.58-1.75-1.5Z"/>
      <path d="M92.2,111.26l-1.17-.03-.63-1.89-3.51-.13-.58,1.82-1.08.24,2.67-8.62,1.55.21,2.76,8.41ZM88.83,103.57c-.63-.07-.38.01-.48.35-.44,1.46-.82,2.97-1.2,4.45h2.88s-1.2-4.8-1.2-4.8Z"/>
      <path d="M105.66,104.77h-1.19c.17-2.45-3.56-1.78-2.53.48.69,1.53,3.87,1.18,3.74,3.96-.14,3.08-5.69,2.84-5.06-.36l.94.02c-.25,2.29,3.27,2.16,3.14.12-.12-1.8-4.05-1.92-4.01-4.3.05-3.14,4.97-3.21,4.97.08Z"/>
      <path d="M54.44,104.77h-1.19c.22-2.56-3.66-1.54-2.63.32.93,1.67,3.95,1.58,3.84,4.12-.13,3-5.55,2.93-5.31-.35,1.85-.29.64,1.67,2.53,1.69.97.01,1.86-.48,1.79-1.56-.11-1.74-3.94-1.88-4.08-4.12-.2-3.16,5.03-3.52,5.04-.11Z"/>
      <path d="M28.71,104.77h-1.19c.17-2.45-3.56-1.78-2.53.48.65,1.42,3.85,1.37,3.74,3.96-.13,3.04-5.7,2.86-5.07-.36h.95s.31,1.39.31,1.39c1.08.68,2.92.24,2.83-1.25-.08-1.25-1.82-1.59-2.63-2.19-4.41-3.31,2.95-7.1,3.59-2.03Z"/>
      <path d="M116.9,102.92c.25.25.74,1.67.55,1.85l-.92-.04c-.2-1.83-3.07-2.06-2.95-.08s4.9,1.78,3.76,5.42c-.64,2.03-5.63,1.66-4.94-1.21l.94.02c-.15,2.41,3.54,2.21,3.14-.12-.28-1.65-4.77-1.73-3.8-5.01.41-1.39,3.22-1.82,4.21-.82Z"/>
      <path d="M37.85,102.61v6.37c0,.27.65,1.29.97,1.44,1.46.66,2.64-.5,2.64-1.92v-5.88h.96v5.88c0,.34-.58,1.97-.85,2.27-.82.87-3.51.74-4.17-.38-.09-.15-.51-1.34-.51-1.41v-6.37h.96Z"/>
      <path d="M63.03,102.92c.25.25.74,1.67.55,1.85l-.93-.03c-.02-2.1-3.06-2.05-2.94-.09s4.91,1.77,3.76,5.42c-.64,2.03-5.63,1.66-4.94-1.21l.93.03c.02,2.44,3.54,2.14,3.16-.14-.3-1.77-4.76-1.66-3.74-4.95.47-1.51,3.13-1.9,4.15-.88Z"/>
      <path d="M66.22,107.42v3.84h-.96v-8.65h3.49c.48,0,1.17,1.15,1.27,1.62.53,2.66-1.53,3.39-3.79,3.19ZM66.22,106.46c3.91.75,3.9-3.8,0-3.12v3.12Z"/>
      <polygon points="48.19 102.61 48.19 103.33 44.93 103.56 44.93 106.23 47.95 106.46 47.95 107.18 44.82 107.18 44.82 110.3 48.43 110.3 48.43 111.26 43.86 111.26 43.86 102.61 48.19 102.61"/>
      <path d="M75.6,102.61v.72h-3.37l.1,2.9c.29.41,2.05.19,2.67.22.55.03.35.13.35.6l-3.13.12v3.13c.27.27,4.69-.67,3.25.96h-4.21v-8.65h4.33Z"/>
      <path d="M111.43,102.61v.72h-3.37v3.12s3.13.12,3.13.12c0,.48.19.57-.35.6-.92.05-1.86-.04-2.77,0v3.12h3.37v.96h-4.33v-8.65h4.33Z"/>
      <path d="M81.31,102.91c.15.17.61,1.8.54,1.86h-1.19c.15-2.39-2.65-2.07-2.9.12-.16,1.35-.44,5.51,1.32,5.67,2.29.21.95-2.04,2.77-1.7.48,2.61-3.42,3.28-4.57,1.56-.77-1.16-.81-6.44.23-7.46.78-.76,3.09-.83,3.8-.05Z"/>
      <path d="M58.05,64.18l-.93-.03-.66-1.62-2.76.11-.49,1.5-.93.03,2.55-7.42c.28-.07.56-.07.82.09.46.28,2.09,6.31,2.4,7.33ZM55.4,57.94c-.63-.07-.38.01-.48.35-.35,1.15-.66,2.33-.96,3.49h2.4s-.96-3.84-.96-3.84Z"/>
      <path d="M93.88,102.61v7.69l2.97.04c.45.16.44.49.4.92h-4.33v-8.65h.96Z"/>
      <path d="M133.25,105.56c.3.32.31.96.3,1.38-1.27.18-.58-1.36-2.04-1.2-2.29.25-.7,7.93,1.35,3.65l.93-.04c-.3,1.71-1.67,2.43-3.31,1.76-1.24-.51-1.31-4.9-.04-5.71.74-.48,2.19-.49,2.81.17Z"/>
      <path d="M76.32,63.58c.01.1.33.33.24.6h-.81s-.27-.48-.27-.48c-3.12,2.41-3.78-3.41.12-2.64.32-1.01-.51-1.98-1.46-1.34-.34.23.06,1.16-.82.85-.41-.14-.3-.34-.17-.64.71-1.68,3.17-.87,3.17-.2,0,1.19-.13,2.71,0,3.84ZM75.6,61.54c-.78.01-2.02.34-1.93,1.31.97,1.96,2.26.33,1.93-1.31Z"/>
      <path d="M66.7,59.14v3.72c0,1.11,1.92.94,1.92.24v-3.96h.96v5.04c-.84-.4-1.85.29-2.47.2-.27-.04-1.13-.64-1.13-.8v-4.44h.72Z"/>
      <path d="M89.79,61.78h-2.89c-.02.73-.15,1.55.65,1.89,1.24.38,1.02-1.51,2.24-.8-.2,1.91-3.28,1.94-3.6.23-.2-1.08-.31-3.68,1.08-3.95,2.15-.42,2.61.71,2.52,2.64ZM89.07,61.3c.09-2.35-2.43-2.3-2.16,0h2.16Z"/>
      <path d="M61.65,60.34c-.61.54-1.16-.61-1.35-.68-.81-.3-1.38.05-1.19.92.96.63,2.67,1.08,2.54,2.5-.12,1.34-1.88,1.69-2.88.98-1.18-.83-.69-1.97.26-1.16.21.18.15.75.83.82.44.04,1.13-.37,1.05-.82-.67-1.27-2.75-1.01-2.65-2.68.14-2.46,4.33-.72,3.39.12Z"/>
      <path d="M65.5,60.34c-.69.59-1.6-1.55-2.53-.49-.71.99,1.72,1.56,2.19,2.15,1.74,2.15-3.29,3.75-3.26.74l.93.04c-.14,1.18,1.65,1.29,1.73.32.11-1.29-2.55-.97-2.45-2.88.14-2.53,4.19-.57,3.39.12Z"/>
      <path d="M77.29,59.14c.65-.31.76.49.84.49.47-.02.79-.7,1.91-.49.26.05.85.42.85.6v4.44h-.72v-4.2c0-.24-.58-.38-.84-.38-1.82,0-1.24,3.41-1.32,4.59h-.72v-5.05Z"/>
      <rect x="21.01" y="102.61" width=".96" height="8.65"/>
      <rect x="83.3" y="102.61" width=".96" height="8.65"/>
      <rect x="97.97" y="102.61" width=".96" height="8.65"/>
      <path d="M85.22,60.58c-.62.61-1.21-1.81-2.29-.72-.72.72-.65,4.66,1.09,3.74.63-.34.2-1.57,1.2-.97.24,1.92-3.06,2.65-3.37,0-.24-2,.1-4.34,2.73-3.45.42.14.82,1.22.64,1.4Z"/>
      <path d="M125.14,105.98c.63-1.69,2.89-.65,2.89-.12v5.4h-.72v-4.68c0-.87-1.52-.94-2.16-.6-.56,1.51-.08,3.67-.24,5.29h-.96v-6.01l.94.04.27.68Z"/>
      <path d="M70.31,59.14c.63-.09.62,0,.84.49l1.56-.73v.84s-1.33.36-1.33.36c-.6,1.28-.29,2.72-.36,4.09h-.72v-5.05Z"/>
      <rect x="121.78" y="105.26" width=".72" height="6.01"/>
    </g>
  </g>
</svg>