<?xml version="1.0" encoding="UTF-8"?>
<svg id="Layer_1" xmlns="http://www.w3.org/2000/svg" version="1.1" viewBox="0 0 141.73 141.73">
  <!-- Generator: Adobe Illustrator 30.0.0, SVG Export Plug-In . SVG Version: 2.1.1 Build 123)  -->
  <defs>
    <style>
      .st0 {
        fill: #2e7c74;
      }
    </style>
  </defs>
  <g id="PfaVJ3">
    <g>
      <path class="st0" d="M68.84,44.12h-29.9v12.07h16.1c-7.3,10.26-28.76,20.85-20.61,35.84,3.79,6.97,13.56,9.45,20.22,4.88l39.47-39.3c1.22-1.33,3.15-2,4.24-.12l.13,1.58-24.48,24.99v15.24h28.75v-12.07h-14.37c5.13-6.37,12.32-11.64,17.54-17.81,13.89-16.4-5.81-34.18-20.72-20.15l-38.02,37.85c-1.67,0-2.63-1.18-2.26-2.78l23.91-24.42v-15.81Z"/>
      <path class="st0" d="M68.84,44.12v15.81l-23.91,24.42c-.37,1.6.6,2.78,2.26,2.78l38.02-37.85c14.91-14.03,34.61,3.75,20.72,20.15-5.23,6.17-12.42,11.44-17.54,17.81h14.37v12.07h-28.75v-15.24l24.48-24.99-.13-1.58c-1.09-1.88-3.02-1.21-4.24.12l-39.47,39.3c-6.67,4.57-16.43,2.09-20.22-4.88-8.16-14.99,13.31-25.58,20.61-35.84h-16.1v-12.07h29.9Z"/>
    </g>
  </g>
</svg>