<?xml version="1.0" encoding="UTF-8"?>
<svg id="Layer_1" xmlns="http://www.w3.org/2000/svg" version="1.1" viewBox="0 0 141.73 141.73">
  <!-- Generator: Adobe Illustrator 30.0.0, SVG Export Plug-In . SVG Version: 2.1.1 Build 123)  -->
  <g id="qrxuKB">
    <g>
      <path d="M54.88,48.02c-1.42-2.23,4.91-8.73,6.58-10.2,24.2-21.32,63.45-6.13,66.05,26.1,2.75,34.09-35.58,55.61-63.22,35.47-1.49-1.09-10.91-8.89-6.92-10.18,2.76-.53,3.6,2.68,5.18,4.14,26.47,24.5,68.08,1.32,60.72-33.52-5.89-27.9-41.4-38.11-61.26-17.59-1.13,1.17-5.42,8.45-7.13,5.77Z"/>
      <path d="M72.52,53.7c.73.63,4.32,15.82,5.58,18.56.25.55.34,1.3,1.13,1.37l6.17-19.93h6s6.17,19.92,6.17,19.92c.76-.06.88-.81,1.13-1.36,1.17-2.56,4.78-18.02,5.6-18.55l6.58-.07c-1.7,3.84-8.61,29.09-10.54,30.25-.92.55-4.6.56-5.29-.27l-6.38-18.88c-.77.06-.88.81-1.13,1.36-1.55,3.39-4.56,15.59-6.04,17.27-1.12,1.28-4.02.94-5.61.54l-9.97-30.27,6.61.05Z"/>
      <path d="M63.69,56.42l-3.16,4.94c-.97.25-3.08-1.6-4.58-1.92-2.5-.54-9.08-.72-6.99,3.64,1.51,3.15,13.89,2.1,15.6,9.4,3.14,13.37-17.03,14.91-23.04,6.49l3.57-4.22c3.14,3.28,11.33,6.29,13.48.74.3-3.35-9.1-4.46-11.75-5.81-1.85-.94-3.85-2.53-4.2-4.68-2.13-13.29,12.64-13.83,21.06-8.56Z"/>
      <polygon points="39.82 53.64 39.82 59.75 30.94 59.75 30.94 83.61 24.28 83.61 24.28 59.75 15.4 59.75 15.4 53.64 39.82 53.64"/>
    </g>
  </g>
</svg>