<?xml version="1.0" encoding="UTF-8"?>
<svg id="Layer_1" xmlns="http://www.w3.org/2000/svg" version="1.1" viewBox="0 0 141.73 141.73">
  <!-- Generator: Adobe Illustrator 30.0.0, SVG Export Plug-In . SVG Version: 2.1.1 Build 123)  -->
  <defs>
    <style>
      .st0 {
        fill: #64ef60;
        isolation: isolate;
      }
    </style>
  </defs>
  <g id="beXsEE">
    <g>
      <path d="M5.15,50.75l4.4.05,5.99,16.46,6.23-16.51h4.75c-1.51,2.54-8.37,23.16-9.63,23.31-.77.1-2.35.18-2.8-.49l-8.93-21.94v-.88Z"/>
      <path d="M58.7,75.81c.44.12,2.27,2.4,4.17,2.93,5.91,1.65,11-1.35,11.11-7.65-1.4.57-2.09,1.84-3.56,2.5-5.76,2.6-12.81-.18-15.77-5.55-6.74-12.22,9.25-23.83,19.33-14.64v-2.65h4.16v22.85c0,.46-1.12,3.3-1.43,3.89-4.41,8.21-19.52,7.3-22.6-1.68h4.6ZM64.72,54.08c-9.67,1.02-9.39,15.58-.08,16.42,12.33,1.12,12-17.68.08-16.42Z"/>
      <path d="M50.84,73.6c-.26.83-3.62.3-4.45.44l-.15-3.54c-4.65,6.58-15.12,4.65-18.9-1.86-1.78-3.07-1.91-7.05-.84-10.38,2.65-8.32,14.15-11.16,19.89-4.27v-3.24h4.45v22.85ZM37.42,54.08c-11.94,1.26-7.78,20.35,3.82,15.89,8.79-3.38,5.54-16.88-3.82-15.89Z"/>
      <path d="M90.83,50.25c16.22-1.94,19.89,20.31,4.82,23.96-16.94,4.1-22.19-21.88-4.82-23.96ZM91.72,54.08c-10.62,1.12-9.42,17.79,2.26,16.39,10.16-1.21,8.62-17.54-2.26-16.39Z"/>
      <polygon points="112.26 51.64 135.7 60.04 129.1 62.19 112.26 56.36 112.26 51.64"/>
      <polygon class="st0" points="112.26 73.2 135.87 64.86 135.78 60.12 112.26 68.48 112.26 73.2"/>
    </g>
  </g>
</svg>