<?xml version="1.0" encoding="UTF-8"?>
<svg id="Layer_1" xmlns="http://www.w3.org/2000/svg" version="1.1" viewBox="0 0 141.73 141.73">
  <!-- Generator: Adobe Illustrator 30.0.0, SVG Export Plug-In . SVG Version: 2.1.1 Build 123)  -->
  <g id="F5l4w2.tif">
    <g>
      <polygon points="274.6 28.27 261.55 28.27 261.55 72.03 274.6 72.03 274.6 77.75 255.86 77.75 255.76 77.65 255.76 22.58 255.86 22.48 274.51 22.48 274.6 22.58 274.6 28.27"/>
      <polygon points="382.9 77.75 364.06 77.75 364.06 72.03 377.08 72.03 377.18 71.94 377.18 28.36 377.08 28.27 364.15 28.27 364.06 28.17 364.06 22.58 364.15 22.48 382.8 22.48 382.9 22.58 382.9 77.75"/>
      <path d="M302.71,62.01h3.22v.96h-10.71c-.2-.24-.05-.66-.1-.96h3.09v-13.4c0-2.52-.4-4.88-3.51-4.66-3.87.27-5.12,4.62-5.05,7.87v10.19h3.22v.96h-20.84v-.96h3.34v-17.87h-3.18c-.2-.24-.05-.66-.1-.96h7.78v18.83h5.21v-17.87h-2.99c-.2-.24-.05-.66-.1-.96h7.65v2.76c.24-.06.38-.4.55-.58,4.21-4.6,12.19-3.5,12.51,3.38v13.27Z"/>
      <path d="M311.84,35.14v7.94l.1.1h5.05c-.04.3.1.72-.1.96h-5.05v15.58c0,.99.63,2,1.62,2.24,1.45.35,2.91-.24,3.45-1.68.3-.82.07-1.54.22-2.41.8-4.54,6.62-5.62,10.43-5.84.25-.01,1.4.06,1.49-.06-.03-1.65.13-3.41.03-5.05-.16-2.65-1.48-3.7-4.13-3.42-.87.09-3.23.96-3.27,2.01-.02.49.96,1.34,1.03,2.19.2,2.45-3.9,3.15-4.28.3-.44-3.25,4.34-5.25,6.96-5.42,3.92-.25,7.88.95,8.14,5.43.24,4.09-.27,8.46,0,12.54.13,2.03,1.33,2.04,2.61.8h.09s.44.61.44.61c-1.29,1.44-3.31,1.93-5.15,1.3-1.84-.63-2.13-1.71-2.49-3.42-.02-.09,0-.16-.1-.22-.77,1.39-1.86,2.57-3.31,3.25-2.26,1.05-5.62.95-7.4-.96-.13-.14-.56-.81-.67-.81-1.19,2.34-4.19,2.78-6.54,2.23s-3.57-2.37-3.59-4.83v-14.37s-3.05,0-3.05,0c-.42-.75.34-.81.82-1.11,2.67-1.6,5.33-4.8,5.96-7.89h.7ZM328.93,52.83c-2.17.1-4.93.42-6.41,2.21-2.26,2.73-.51,7.61,3.45,6.08,3.27-1.26,3.17-5.33,3.08-8.24l-.12-.05Z"/>
      <path d="M361.87,35.14v7.94l.1.1h5.05c-.04.3.1.72-.1.96h-5.05v15.52c0,.06.07.45.09.55.16.78.58,1.48,1.37,1.71,1.94.57,3.7-.6,3.81-2.62h1.03c-.51,3.65-3.99,4.83-7.26,4.01-2.55-.64-3.53-2.62-3.49-5.13v-14.05s-2.99,0-2.99,0c-.02,0-.15-.07-.16-.11.02-.18-.06-.43.07-.57.06-.07,1-.51,1.22-.65,2.05-1.28,4.41-4.11,5.26-6.37.08-.21.33-1.18.37-1.24.1-.13.51-.04.68-.06Z"/>
      <path d="M353.57,56.54h1.16c-.1.47-.23.93-.38,1.38-2.81,7.94-13.55,7.07-16.91-.01-2.67-5.63-.08-12.58,5.83-14.73,3.3-1.2,8.38-.72,10.28,2.62.79,1.39.85,3.5-.74,4.34-2.38,1.24-4.14-1.57-3.01-3.71.47-.89,1.51-1.19.18-2.13-1.16-.81-3.08-.97-4.43-.72-3.84.72-3.74,5.32-3.85,8.36-.15,4.3-.9,11.04,5.43,10.57,3.24-.24,5.78-2.9,6.46-5.98Z"/>
      <path d="M276.91,32.4c4.08-.42,4.96,5.67.99,6.46-4.47.88-5.47-6-.99-6.46Z"/>
      <path d="M332.77,72.03c.68.97,1.25,2,1.9,2.99.09.14.48.8.61.8.12-1.14-.17-2.44-.03-3.57.01-.09,0-.17.1-.22h1.19v5.72h-1.35l-2.48-3.85c-.19.14-.03.35-.03.54.02,1.1-.02,2.21,0,3.31h-1.29v-5.72h1.38Z"/>
      <path d="M293.51,72.03c.61,1.03,1.24,2.08,1.9,3.08.16.24.32.54.54.71v-3.79h1.29v5.62l-.1.1h-1.22l-2.42-3.75-.18-.11v3.86h-1.22v-5.72h1.41Z"/>
      <path d="M318.43,72.03c.3.04.85.26,1.09.45.91.73.66,2.58-.54,2.83v.09s1.35,2.35,1.35,2.35h-1.38l-1.2-2.17h-.5s0,2.08,0,2.08l-.1.1h-1.19v-5.72c.78.07,1.71-.09,2.48,0ZM317.24,74.54h.93c.29,0,.62-.5.61-.8-.02-.78-.98-.76-1.55-.74v1.54Z"/>
      <path d="M309.01,72.03v3.89c0,.06.2.44.26.51.41.42,1.29.38,1.67-.06.03-.04.19-.3.19-.32v-3.92l.1-.1h1.19v4.08c0,.23-.32.81-.48,1-.91,1.06-3.32.98-3.97-.34-.06-.12-.25-.68-.25-.78v-3.95h1.29Z"/>
      <path d="M322.77,77.75l2.13-5.71h1.31s2.22,5.71,2.22,5.71h-1.41l-.38-1.12-2.12-.03-.42,1.15h-1.32ZM326.31,75.57c-.22-.59-.38-1.33-.64-1.9-.03-.06-.04-.15-.13-.16l-.71,2.06h1.48Z"/>
      <polygon points="351.52 72.03 351.52 73.06 349.14 73.06 349.14 74.28 351.39 74.28 351.39 75.31 349.14 75.31 349.14 76.72 351.58 76.72 351.58 77.75 347.95 77.75 347.85 77.65 347.85 72.13 347.95 72.03 351.52 72.03"/>
      <path d="M302.24,71.99c.81-.1,1.55.1,2.17.62l-.46.83c-.32-.07-.52-.35-.86-.42-.55-.11-1.57-.03-1.15.77.31.6,2.12.51,2.51,1.66.33.97-.27,1.99-1.24,2.26-1.06.3-2.03.01-2.82-.72l.61-.92c.41.44,1.33.9,1.91.63.38-.18.51-.63.21-.95s-1.26-.49-1.7-.74c-1.49-.87-.83-2.83.82-3.03Z"/>
      <path d="M344.31,73.57c-.25-.1-.46-.3-.73-.4-1.6-.57-2.88.65-2.46,2.27.37,1.44,2.21,1.55,3.22.7l.41.88c-.63.89-2.18.97-3.14.63-2.43-.86-2.47-4.56-.09-5.49.99-.38,2.33-.28,3.17.41l-.38,1Z"/>
      <rect x="287.27" y="72.03" width="1.29" height="5.72"/>
    </g>
  </g>
  <g id="JpCrzW">
    <g>
      <path d="M74.99,63.21v14.24l.7.41c1.2-.11,4.79-4.99,6.22-5.79,1.34-.75,3.3-.33,4.77-1.07-1.26,1.27-2.38,2.76-3.59,4.05-1.7,1.81-5.06,4.46-6.31,6.29-.26.39-.9,1.76-.9,2.1v9.45h28.19l-2.53,3.32-.91.29h-58.2c-1.68-.01-2.81-2.38-3.73-3.61h26.09v-12.74c0-1.91-6.63-6.92-7.8-8.84,1.25.23,2.82.16,3.98.67,1.22.54,5.28,5.07,6.2,4.42-.04-.27.32-.63.32-.74v-12.14c2.41-.79,5.01-.8,7.5-.3Z"/>
      <path d="M112.77,60.21c-4.18,1.03-6.63,2.9-11.16,1.72-4.12-1.08-5.3-2.51-10.28-2.01-2.52.25-4.73,1.97-6.97,2.32-5.11.81-8.77-2.76-14.03-2.34-2.68.21-5.04,1.87-7.62,2.28-5.38.85-8.63-2.71-13.97-2.28-3.62.29-6.18,2.61-10.2,2.42-2.89-.14-5.43-1.98-8.26-2.6l.8-3.12c2.22.49,4.64,2.18,6.87,2.41,4.97.52,8.41-3.09,14.02-2.32,2.28.31,4.53,1.83,6.81,2.19,5.24.82,8.51-2.59,13.67-2.28s7.4,3.63,13.26,1.9c3.77-1.11,4.73-2.23,9.22-1.9,4,.29,6.51,2.83,10.75,2.38,2.01-.22,4.17-1.3,6.03-2.05l1.05,3.27Z"/>
      <path d="M110.34,51.24l.93,2.97c-1.77.38-3.4,1.34-5.24,1.52-4.76.44-7.1-2.14-11.4-2.42-5.63-.36-8.7,3.1-14.33,2.33-2.68-.37-5.17-2.19-8.16-2.33-3.95-.19-6.47,2.1-9.89,2.42-5.83.55-8.98-3.46-15.22-2.02-2.28.53-4.21,1.81-6.68,2.02-3.43.29-5.52-.76-8.57-1.98l.91-3.13c2.31.98,4.44,1.96,7.05,1.81,2.99-.17,5.81-2.15,8.67-2.42,6.03-.57,8.99,3.55,15.46,1.96,2.05-.5,3.95-1.76,6.13-1.96,5.91-.56,9.55,3.6,15.46,1.97,2.06-.57,3.48-1.76,5.83-1.97,4.91-.43,5.99.73,10.13,1.89,3.56.99,5.47.05,8.89-.65Z"/>
      <path d="M108.87,48.81c-2.54.57-4.56,1.09-7.14.4-2.9-.78-4.54-2.16-7.99-2.21-5.38-.09-8.38,3.54-13.97,2.28-2.61-.59-5.03-2.2-7.93-2.28-3.85-.11-7.46,2.71-11.1,2.71-3.33,0-6.95-2.61-10.49-2.71-5.27-.15-10.79,5.2-16.02,1.04l1.38-2.54c4.36,1.66,7.58-.71,11.49-1.63,6.43-1.52,9.68,3.06,15.61,2.12,2.45-.39,4.86-2.02,7.33-2.26,5.95-.59,9.15,3.61,15.44,1.95,3.95-1.04,4.99-2.38,9.75-1.96,4.08.36,7.53,3.61,11.93,2.15l1.71,2.95Z"/>
      <path d="M105.57,43.12c-3.8.46-6.64-2.13-10.33-2.41-4.82-.37-5.77.74-9.82,1.9-6.05,1.73-9.83-2.67-16.2-1.81-2.73.37-5.18,2.19-8.16,2.33-4.77.23-7.61-3.12-13.43-2.33-3.26.44-6.78,3.41-10.13,1.87,0-.2,2.03-2.96,2.19-3.06.44-.28,1.93-.31,2.62-.53,3.65-1.19,5.51-2.44,9.67-1.87,2.83.39,5.28,2.33,8.47,2.34,4.51,0,7.41-2.94,12.59-2.41,3.19.32,5.8,2.42,9.3,2.41,3.25,0,5.37-1.96,8.17-2.34,3.77-.51,8.87.48,12.18,2.36.98.56,2.13,2.63,2.89,3.56Z"/>
      <path d="M97.47,34.13c.08.52-.36.24-.66.21-6.31-.62-5.87.07-11.39,1.67-5.97,1.73-8.8-2.16-13.88-2.19-3.58-.02-7.02,2.62-10.49,2.72-3.76.11-7.34-2.65-11.13-2.69-1.72-.02-3.58.73-5.21,1.16,1.04-1.01,4.98-4.26,6.18-4.41,2.08-.25,6.87,2.61,9.86,2.61,3.61,0,7.31-2.82,11.08-2.7,3.53.11,7.14,2.77,10.79,2.71,2.98-.05,6-2.46,9.03-2.68l5.83,3.57Z"/>
      <path d="M98.07,98.89c-1.23,1.18-2.88,2.89-4.63,3.01h-44.4c-1.41-.18-3.32-1.99-4.34-3.01h53.37Z"/>
      <path d="M65.39,64.41l-.04,3.56c-5.12,2.8-9.47-1.14-14.19-1.47-5.06-.35-8.38,2.69-12.6,2.41-3.1-.21-5.91-2.79-9.15-2.4l.3-3.6c2.77-.08,5.36,2.12,7.94,2.4,4.81.53,7.3-2.12,11.38-2.41,5.52-.39,10.6,4.64,16.35,1.51Z"/>
      <path d="M113.06,63.21v3.29c-2.47.17-4.65,1.79-7.08,2.08-4.87.58-7.27-2.09-11.65-2.38-5.55-.36-8.65,3.03-14.07,2.38-.48-.06-3.44-.86-3.5-1.05l.32-3.12c1.21.07,2.29.73,3.48.87,5.5.65,8.6-2.86,14.37-2.38,4.07.34,6.22,2.79,10.79,2.42,2.71-.22,4.73-1.86,7.33-2.11Z"/>
      <path d="M62.69,81.5c-4.46,1.3-8.42-2.3-12.75-2.33-4.11-.03-7.79,3.03-11.96,2.6-2.17-.22-4.36-1.69-6.47-2.22l-.9-3.44c2.86.25,5.32,2.41,8.24,2.42,3.95,0,7.7-2.98,11.65-2.69,2.27.17,4.52,1.37,6.65,2.05,2.41.76,5.04.22,5.53,3.61Z"/>
      <path d="M112.16,76.1l-.97,3.83c-1.6.44-3.25,1.34-4.91,1.54-5.13.61-8.39-2.66-13.77-2.38-4.62.24-7.99,3.78-12.73,2.41.66-.65,2.32-2.84,3.01-3.14,1.12-.49,7.4-2.39,8.58-2.52,6.09-.65,9.51,3.1,15.12,2.23,1.87-.29,3.9-1.33,5.68-1.96Z"/>
      <path d="M88.78,104.89c-.33.52-1.44.9-2.02,1.13-9.89,3.92-20.85,3.88-30.74,0l-2.32-1.13h35.08Z"/>
      <path d="M87.58,28.43c-1.27,1.23-3.52,1.63-5.25,1.62-3.73,0-6.82-2.4-10.49-2.54-5.37-.21-11.25,5.23-16.65.92,10.45-4.21,21.91-4.16,32.38,0Z"/>
      <path d="M56.39,74.3c-2.66-.97-4.73-1.74-7.66-1.51s-5.73,2.18-8.69,2.4c-4,.3-6.23-1.91-9.98-2.45l-.66-3.53c3.3.16,6.18,2.6,9.48,2.66,4.01.07,10.12-4.4,13.62-1.93.69.49,2.69,2.58,3.29,3.31.28.34.73.48.6,1.05Z"/>
      <path d="M113.06,69.51c.02.81.1,2.95-.6,3.44-.24.17-5.03,1.74-5.63,1.87-5.45,1.17-6.98-1.62-11.6-2.03-2.93-.26-5.53.21-8.26,1.21,1.34-1.29,3.52-4.39,5.32-4.72,4.41-.81,8.02,2.56,11.96,2.59,3.08.03,5.85-1.85,8.81-2.37Z"/>
      <polygon points="79.48 71.31 77.09 73.7 77.09 70.71 79.48 71.31"/>
    </g>
  </g>
</svg>