<?xml version="1.0" encoding="UTF-8"?>
<svg id="Layer_1" xmlns="http://www.w3.org/2000/svg" version="1.1" viewBox="0 0 141.73 141.73">
  <!-- Generator: Adobe Illustrator 30.0.0, SVG Export Plug-In . SVG Version: 2.1.1 Build 123)  -->
  <g id="xcOP12.tif">
    <path d="M77.19,27.73l2.93.41c19.51,3.21,34.8,19.57,36.54,39.33,2.41,27.41-20.1,50.14-47.53,47.95-10.92-.87-21.41-6.05-28.71-14.15,1.5-.64,2.97-1.25,4.56-1.63,10.23-2.43,19.74-.11,29.86,1.22,6.17.81,12.09,1.32,17.58-2.14,3.98-2.5,6.43-6.03,8.34-10.25.81-1.8,1.55-3.69,1.92-5.63l-1.85-.46-.14.09c-2.91,6.24-8.29,10.83-15.27,11.65-4.8.56-10.11-.08-14.93-.33-4.51-.24-9.04-.61-13.54-.06l36.5-48.78h-45.88l-3.62,13.73.02.14,2.19.44c1.68-3.34,4.08-6.56,7.75-7.79s8.04-1.09,11.9-1.33l8.58.03-36.64,48.01c-4.52-5.89-7.45-12.97-8.52-20.35l-.35-3.22c.09-2.16-.12-4.41,0-6.56.08-1.37.34-3.03.59-4.4,3.42-19.09,19.49-34.06,38.84-35.88l.09-.05h8.79Z"/>
  </g>
</svg>