<?xml version="1.0" encoding="UTF-8"?>
<svg id="Layer_1" xmlns="http://www.w3.org/2000/svg" version="1.1" viewBox="0 0 142.46 67.26">
  <!-- Generator: Adobe Illustrator 30.0.0, SVG Export Plug-In . SVG Version: 2.1.1 Build 123)  -->
  <defs>
    <style>
      .st0, .st1 {
        fill: #231f20;
      }

      .st2 {
        fill: #90278e;
      }

      .st1 {
        font-family: SourceSansPro-Light, 'Source Sans Pro';
        font-size: 17.92px;
        font-weight: 300;
      }

      .st3 {
        fill: #c69fca;
      }

      .st4 {
        fill: #a6d8e9;
      }
    </style>
  </defs>
  <g>
    <path class="st0" d="M8.28,36.42v-17.84h-4.03v-5.16h4.03v-5.93h6.92v5.93h8.73v5.16h-8.73v15.58c0,1.98,1.04,2.85,3.46,2.85h5.27v6.22h-8.51c-4.83,0-7.14-2.42-7.14-6.81Z"/>
    <path class="st0" d="M26.23,13.41h7.03v4.72c1.92-3.35,5-5.22,8.95-5.22h.71v6.42c-.71-.11-1.43-.16-2.14-.16-3.13,0-6.04,1.26-7.52,3.68v20.37h-7.03V13.41Z"/>
    <path class="st0" d="M43.25,28.35c0-9.88,5.93-15.7,14.66-15.7s14.71,5.82,14.71,15.7-5.88,15.59-14.71,15.59-14.66-5.82-14.66-15.59ZM65.6,28.29c0-6.86-3.02-10.49-7.69-10.49s-7.63,3.62-7.63,10.49,3.02,10.49,7.63,10.49,7.69-3.57,7.69-10.49Z"/>
    <path class="st0" d="M75.15,13.41h7.03v29.81h-7.03V13.41Z"/>
    <path class="st0" d="M85.36,13.41h6.92l-.11,14.17,12.35-14.17h7.2l-10.27,11.64,11.52,18.17h-8.02l-8.11-12.9-4.68,6.04.11,6.86h-6.92V13.41Z"/>
    <path class="st0" d="M112.21,35.65c0-5.88,6.15-7.85,12.46-9.77,4.67-1.43,6.92-2.53,6.92-4.72s-1.87-3.46-5.27-3.46c-3.84,0-6.37,2.2-7.03,5.87h-6.48c.88-6.42,6.15-10.82,13.67-10.82s12.02,3.57,12.02,10.21v20.26h-6.92v-3.35c-2.25,2.47-5.6,3.84-9.39,3.84-6.15,0-9.99-3.18-9.99-8.07ZM124.01,39c2.85,0,5.82-1.15,7.58-3.13v-8.24c-1.26,1.04-3.24,1.7-5.49,2.47-4.01,1.32-7.03,2.36-7.03,5.33,0,2.31,1.92,3.57,4.94,3.57Z"/>
  </g>
  <text class="st1" transform="translate(6.15 61.02) scale(1.16 1)"><tspan x="0" y="0">INSURANCE</tspan></text>
  <path class="st3" d="M85.36,4.96h7.03v5.98h-7.03v-5.98Z"/>
  <path class="st4" d="M104.7,4.96h7.03v5.98h-7.03v-5.98Z"/>
  <rect class="st2" x="75.15" y="4.96" width="7.03" height="5.98"/>
</svg>