<?xml version="1.0" encoding="UTF-8"?>
<svg id="Layer_1" xmlns="http://www.w3.org/2000/svg" version="1.1" viewBox="0 0 246.01 118.46">
  <!-- Generator: Adobe Illustrator 30.0.0, SVG Export Plug-In . SVG Version: 2.1.1 Build 123)  -->
  <defs>
    <style>
      .st0 {
        fill: #231f20;
      }

      .st1 {
        isolation: isolate;
      }

      .st2 {
        fill: #c7a0cb;
      }

      .st3 {
        fill: #a7d8e9;
      }

      .st4 {
        fill: #92278f;
      }
    </style>
  </defs>
  <g>
    <path class="st0" d="M7.82,61.25V29.17H.58v-9.28h7.24v-10.66h12.44v10.66h15.7v9.28h-15.7v28.02c0,3.55,1.88,5.13,6.22,5.13h9.48v11.18h-15.3c-8.69,0-12.83-4.34-12.83-12.24h-.01,0Z"/>
    <path class="st0" d="M40.1,19.89h12.64v8.49c3.45-6.02,8.98-9.38,16.09-9.38h1.28v11.55c-1.28-.2-2.57-.3-3.85-.3-5.63,0-10.86,2.27-13.52,6.61v36.63h-12.64V19.88h0Z"/>
    <path class="st0" d="M70.71,46.74c0-17.77,10.66-28.23,26.36-28.23s26.46,10.46,26.46,28.23-10.56,28.04-26.46,28.04-26.36-10.46-26.36-28.04h0ZM110.88,46.64c0-12.34-5.43-18.86-13.82-18.86s-13.72,6.52-13.72,18.86,5.43,18.86,13.72,18.86,13.82-6.42,13.82-18.86Z"/>
    <path class="st0" d="M128.06,19.89h12.64v53.61h-12.64V19.89Z"/>
    <path class="st0" d="M146.42,19.89h12.44l-.2,25.47,22.21-25.47h12.95l-18.46,20.93,20.71,32.68h-14.41l-14.59-23.2-8.41,10.86.2,12.34h-12.44V19.89h0Z"/>
    <path class="st0" d="M194.69,59.87c0-10.56,11.06-14.12,22.41-17.57,8.39-2.57,12.44-4.54,12.44-8.49s-3.36-6.22-9.48-6.22c-6.91,0-11.45,3.95-12.64,10.56h-11.65c1.58-11.55,11.06-19.45,24.58-19.45s21.62,6.42,21.62,18.36v36.43h-12.44v-6.02c-4.05,4.44-10.07,6.91-16.88,6.91-11.06,0-17.97-5.73-17.97-14.51h0ZM215.92,65.89c5.13,0,10.46-2.07,13.62-5.63v-14.81c-2.27,1.88-5.82,3.06-9.87,4.44-7.21,2.37-12.64,4.25-12.64,9.58,0,4.15,3.45,6.42,8.88,6.42h0Z"/>
  </g>
  <g class="st1">
    <g class="st1">
      <g class="st1">
        <path class="st0" d="M4.64,86.13h1.99v28.48h-1.99v-28.48Z"/>
        <path class="st0" d="M19.18,86.13h2.07l11.97,20.09,3.24,5.66h.17c-.13-2.77-.26-5.53-.26-8.3v-17.46h1.86v28.48h-2.07l-11.97-20.09-3.24-5.66h-.17c.13,2.72.26,5.31.26,8.08v17.67h-1.86v-28.48Z"/>
        <path class="st0" d="M49.88,109.47c2.07,2.33,5.06,3.85,8.38,3.85,4.32,0,7.09-2.33,7.09-5.7,0-3.54-2.33-4.71-5.14-5.96l-4.32-1.95c-2.46-1.08-5.75-2.85-5.75-7.09s3.54-7,8.25-7c3.46,0,6.22,1.56,7.95,3.41l-1.17,1.34c-1.64-1.77-3.93-2.94-6.78-2.94-3.76,0-6.27,1.99-6.27,5.1,0,3.28,2.85,4.54,4.93,5.49l4.32,1.9c3.15,1.43,5.96,3.2,5.96,7.56s-3.59,7.65-9.12,7.65c-4.15,0-7.35-1.77-9.59-4.28l1.25-1.38Z"/>
        <path class="st0" d="M77.39,86.13h1.99v17.33c0,7.56,3.59,9.85,7.61,9.85s7.73-2.29,7.73-9.85v-17.33h1.9v17.54c0,8.9-4.75,11.45-9.64,11.45s-9.59-2.55-9.59-11.45v-17.54Z"/>
        <path class="st0" d="M124.82,114.61l-7.69-13.09h-6.05v13.09h-1.99v-28.48h8.12c5.66,0,9.38,2.07,9.38,7.52,0,4.54-2.85,7.13-7.3,7.74l7.82,13.22h-2.29ZM116.69,99.87c5.06,0,7.82-2.03,7.82-6.22s-2.77-5.83-7.82-5.83h-5.62v12.06h5.62Z"/>
        <path class="st0" d="M149.77,104.84h-11.28l-3.33,9.77h-2.03l10.07-28.48h1.99l10.03,28.48h-2.12l-3.33-9.77ZM149.21,103.16l-1.81-5.31c-1.12-3.37-2.16-6.35-3.15-9.85h-.17c-.99,3.5-1.99,6.48-3.16,9.85l-1.81,5.31h10.11Z"/>
        <path class="st0" d="M163.92,86.13h2.07l11.97,20.09,3.24,5.66h.17c-.13-2.77-.26-5.53-.26-8.3v-17.46h1.86v28.48h-2.07l-11.97-20.09-3.24-5.66h-.17c.13,2.72.26,5.31.26,8.08v17.67h-1.86v-28.48Z"/>
        <path class="st0" d="M205.91,85.61c3.33,0,5.88,1.64,7.39,3.41l-1.17,1.3c-1.56-1.73-3.63-2.9-6.22-2.9-6.22,0-10.11,4.97-10.11,12.88s3.85,13.01,9.94,13.01c2.94,0,5.14-1.17,7.22-3.5l1.17,1.25c-2.16,2.51-4.75,4.06-8.47,4.06-7,0-11.93-5.75-11.93-14.82s4.93-14.69,12.19-14.69Z"/>
        <path class="st0" d="M224.12,86.13h15.56v1.73h-13.57v10.76h11.41v1.73h-11.41v12.53h14v1.73h-15.99v-28.48Z"/>
      </g>
    </g>
  </g>
  <path class="st2" d="M146.42,4.68h12.64v10.76h-12.64V4.68Z"/>
  <path class="st3" d="M181.19,4.68h12.64v10.76h-12.64V4.68Z"/>
  <rect class="st4" x="128.06" y="4.68" width="12.64" height="10.76"/>
</svg>