<?xml version="1.0" encoding="UTF-8"?>
<svg id="Layer_1" xmlns="http://www.w3.org/2000/svg" version="1.1" viewBox="0 0 246.01 118.46">
  <!-- Generator: Adobe Illustrator 30.0.0, SVG Export Plug-In . SVG Version: 2.1.1 Build 123)  -->
  <defs>
    <style>
      .st0 {
        fill: #231f20;
      }

      .st1 {
        fill: #c7a0cb;
      }

      .st2 {
        fill: #a7d8e9;
      }

      .st3 {
        fill: #92278f;
      }
    </style>
  </defs>
  <g>
    <path class="st0" d="M7.82,61.25V29.17H.58v-9.28h7.24v-10.66h12.44v10.66h15.7v9.28h-15.7v28.02c0,3.55,1.88,5.13,6.22,5.13h9.48v11.18h-15.3c-8.69,0-12.83-4.34-12.83-12.24h-.01,0Z"/>
    <path class="st0" d="M40.1,19.89h12.64v8.49c3.45-6.02,8.98-9.38,16.09-9.38h1.28v11.55c-1.28-.2-2.57-.3-3.85-.3-5.63,0-10.86,2.27-13.52,6.61v36.63h-12.64V19.88h0Z"/>
    <path class="st0" d="M70.71,46.74c0-17.77,10.66-28.23,26.36-28.23s26.46,10.46,26.46,28.23-10.56,28.04-26.46,28.04-26.36-10.46-26.36-28.04h0ZM110.88,46.64c0-12.34-5.43-18.86-13.82-18.86s-13.72,6.52-13.72,18.86,5.43,18.86,13.72,18.86,13.82-6.42,13.82-18.86Z"/>
    <path class="st0" d="M128.06,19.89h12.64v53.61h-12.64V19.89Z"/>
    <path class="st0" d="M146.42,19.89h12.44l-.2,25.47,22.21-25.47h12.95l-18.46,20.93,20.71,32.68h-14.41l-14.59-23.2-8.41,10.86.2,12.34h-12.44V19.89h0Z"/>
    <path class="st0" d="M194.69,59.87c0-10.56,11.06-14.12,22.41-17.57,8.39-2.57,12.44-4.54,12.44-8.49s-3.36-6.22-9.48-6.22c-6.91,0-11.45,3.95-12.64,10.56h-11.65c1.58-11.55,11.06-19.45,24.58-19.45s21.62,6.42,21.62,18.36v36.43h-12.44v-6.02c-4.05,4.44-10.07,6.91-16.88,6.91-11.06,0-17.97-5.73-17.97-14.51h0ZM215.92,65.89c5.13,0,10.46-2.07,13.62-5.63v-14.81c-2.27,1.88-5.82,3.06-9.87,4.44-7.21,2.37-12.64,4.25-12.64,9.58,0,4.15,3.45,6.42,8.88,6.42h0Z"/>
  </g>
  <path class="st1" d="M146.42,4.68h12.64v10.76h-12.64V4.68Z"/>
  <path class="st2" d="M181.19,4.68h12.64v10.76h-12.64V4.68Z"/>
  <rect class="st3" x="128.06" y="4.68" width="12.64" height="10.76"/>
  <g>
    <path class="st0" d="M22.24,104.1h-12.8l-3.78,9.55h-2.31l11.43-27.84h2.26l11.38,27.84h-2.4l-3.78-9.55ZM21.6,102.46l-2.06-5.2c-1.28-3.3-2.45-6.21-3.58-9.63h-.2c-1.13,3.42-2.26,6.34-3.58,9.63l-2.06,5.2h11.48Z"/>
    <path class="st0" d="M32.15,108.62c2.35,2.28,5.74,3.76,9.52,3.76,4.91,0,8.05-2.28,8.05-5.58,0-3.46-2.65-4.61-5.84-5.83l-4.91-1.9c-2.8-1.06-6.52-2.79-6.52-6.93s4.02-6.84,9.37-6.84c3.92,0,7.06,1.52,9.03,3.34l-1.32,1.31c-1.86-1.73-4.46-2.87-7.7-2.87-4.27,0-7.11,1.94-7.11,4.99,0,3.21,3.24,4.44,5.59,5.37l4.91,1.86c3.58,1.39,6.77,3.13,6.77,7.39s-4.07,7.48-10.35,7.48c-4.71,0-8.34-1.73-10.89-4.18l1.42-1.35Z"/>
    <path class="st0" d="M56.83,108.62c2.35,2.28,5.74,3.76,9.52,3.76,4.91,0,8.05-2.28,8.05-5.58,0-3.46-2.65-4.61-5.84-5.83l-4.91-1.9c-2.8-1.06-6.52-2.79-6.52-6.93s4.02-6.84,9.37-6.84c3.92,0,7.06,1.52,9.03,3.34l-1.32,1.31c-1.86-1.73-4.46-2.87-7.7-2.87-4.27,0-7.11,1.94-7.11,4.99,0,3.21,3.24,4.44,5.59,5.37l4.91,1.86c3.58,1.39,6.77,3.13,6.77,7.39s-4.07,7.48-10.35,7.48c-4.71,0-8.34-1.73-10.89-4.18l1.42-1.35Z"/>
    <path class="st0" d="M82.98,85.81h2.26v16.94c0,7.39,4.07,9.63,8.63,9.63s8.78-2.24,8.78-9.63v-16.94h2.16v17.15c0,8.7-5.4,11.2-10.94,11.2s-10.89-2.49-10.89-11.2v-17.15Z"/>
    <path class="st0" d="M131.74,113.65l-8.73-12.8h-6.87v12.8h-2.26v-27.84h9.22c6.43,0,10.65,2.03,10.65,7.35,0,4.44-3.24,6.97-8.29,7.56l8.88,12.93h-2.6ZM122.52,99.24c5.74,0,8.88-1.99,8.88-6.08s-3.14-5.7-8.88-5.7h-6.38v11.79h6.38Z"/>
    <path class="st0" d="M155,104.1h-12.8l-3.78,9.55h-2.31l11.43-27.84h2.26l11.38,27.84h-2.4l-3.78-9.55ZM154.36,102.46l-2.06-5.2c-1.28-3.3-2.45-6.21-3.58-9.63h-.2c-1.13,3.42-2.26,6.34-3.58,9.63l-2.06,5.2h11.48Z"/>
    <path class="st0" d="M165.98,85.81h2.35l13.59,19.65,3.68,5.54h.2c-.15-2.7-.29-5.41-.29-8.11v-17.07h2.11v27.84h-2.35l-13.59-19.65-3.68-5.53h-.2c.15,2.66.29,5.2.29,7.9v17.28h-2.11v-27.84Z"/>
    <path class="st0" d="M208.57,85.3c3.78,0,6.67,1.61,8.39,3.34l-1.32,1.27c-1.77-1.69-4.12-2.83-7.06-2.83-7.06,0-11.48,4.86-11.48,12.59s4.37,12.72,11.28,12.72c3.34,0,5.84-1.14,8.19-3.42l1.33,1.22c-2.45,2.45-5.4,3.97-9.62,3.97-7.95,0-13.54-5.62-13.54-14.49s5.59-14.37,13.83-14.37Z"/>
    <path class="st0" d="M224.17,85.81h17.66v1.69h-15.4v10.52h12.95v1.69h-12.95v12.25h15.89v1.69h-18.15v-27.84Z"/>
  </g>
</svg>