<?xml version="1.0" encoding="UTF-8"?>
<svg id="Layer_1" xmlns="http://www.w3.org/2000/svg" version="1.1" viewBox="0 0 246.01 118.46">
  <!-- Generator: Adobe Illustrator 30.0.0, SVG Export Plug-In . SVG Version: 2.1.1 Build 123)  -->
  <defs>
    <style>
      .st0, .st1 {
        fill: #231f20;
      }

      .st1 {
        font-family: SourceSansPro-Light, 'Source Sans Pro';
        font-size: 43.22px;
        font-weight: 300;
      }

      .st1, .st2 {
        isolation: isolate;
      }

      .st3 {
        fill: #c7a0cb;
      }

      .st4 {
        fill: #a7d8e9;
      }

      .st5 {
        fill: #92278f;
      }
    </style>
  </defs>
  <g>
    <path class="st0" d="M7.82,61.25V29.17H.58v-9.28h7.24v-10.66h12.44v10.66h15.7v9.28h-15.7v28.02c0,3.55,1.88,5.13,6.22,5.13h9.48v11.18h-15.3c-8.69,0-12.83-4.34-12.83-12.24h-.01Z"/>
    <path class="st0" d="M40.1,19.89h12.64v8.49c3.45-6.02,8.98-9.38,16.09-9.38h1.28v11.55c-1.28-.2-2.57-.3-3.85-.3-5.63,0-10.86,2.27-13.52,6.61v36.63h-12.64V19.88h0Z"/>
    <path class="st0" d="M70.71,46.74c0-17.77,10.66-28.23,26.36-28.23s26.46,10.46,26.46,28.23-10.56,28.04-26.46,28.04-26.36-10.46-26.36-28.04h0ZM110.88,46.64c0-12.34-5.43-18.86-13.82-18.86s-13.72,6.52-13.72,18.86,5.43,18.86,13.72,18.86,13.82-6.42,13.82-18.86Z"/>
    <path class="st0" d="M128.06,19.89h12.64v53.61h-12.64V19.89Z"/>
    <path class="st0" d="M146.42,19.89h12.44l-.2,25.47,22.21-25.47h12.95l-18.46,20.93,20.71,32.68h-14.41l-14.59-23.2-8.41,10.86.2,12.34h-12.44V19.89h0Z"/>
    <path class="st0" d="M194.69,59.87c0-10.56,11.06-14.12,22.41-17.57,8.39-2.57,12.44-4.54,12.44-8.49s-3.36-6.22-9.48-6.22c-6.91,0-11.45,3.95-12.64,10.56h-11.65c1.58-11.55,11.06-19.45,24.58-19.45s21.62,6.42,21.62,18.36v36.43h-12.44v-6.02c-4.05,4.44-10.07,6.91-16.88,6.91-11.06,0-17.97-5.73-17.97-14.51h0ZM215.92,65.89c5.13,0,10.46-2.07,13.62-5.63v-14.81c-2.27,1.88-5.82,3.06-9.87,4.44-7.21,2.37-12.64,4.25-12.64,9.58,0,4.15,3.45,6.42,8.88,6.42h0Z"/>
  </g>
  <g class="st2">
    <g class="st2">
      <text class="st1" transform="translate(4 114.61) scale(1.16 1)"><tspan x="0" y="0">INSURANCE</tspan></text>
    </g>
  </g>
  <path class="st3" d="M146.42,4.68h12.64v10.76h-12.64V4.68Z"/>
  <path class="st4" d="M181.19,4.68h12.64v10.76h-12.64V4.68Z"/>
  <rect class="st5" x="128.06" y="4.68" width="12.64" height="10.76"/>
</svg>