<?xml version="1.0" encoding="UTF-8"?>
<svg id="Layer_1" xmlns="http://www.w3.org/2000/svg" version="1.1" viewBox="0 0 246.01 118.46">
  <!-- Generator: Adobe Illustrator 30.0.0, SVG Export Plug-In . SVG Version: 2.1.1 Build 123)  -->
  <defs>
    <style>
      .st0 {
        fill: #231f20;
      }

      .st1 {
        isolation: isolate;
      }

      .st2 {
        fill: #c7a0cb;
      }

      .st3 {
        fill: #a7d8e9;
      }

      .st4 {
        fill: #92278f;
      }
    </style>
  </defs>
  <g>
    <path class="st0" d="M7.82,61.25V29.17H.58v-9.28h7.24v-10.66h12.44v10.66h15.7v9.28h-15.7v28.02c0,3.55,1.88,5.13,6.22,5.13h9.48v11.18h-15.3c-8.69,0-12.83-4.34-12.83-12.24h-.01,0Z"/>
    <path class="st0" d="M40.1,19.89h12.64v8.49c3.45-6.02,8.98-9.38,16.09-9.38h1.28v11.55c-1.28-.2-2.57-.3-3.85-.3-5.63,0-10.86,2.27-13.52,6.61v36.63h-12.64V19.88h0Z"/>
    <path class="st0" d="M70.71,46.74c0-17.77,10.66-28.23,26.36-28.23s26.46,10.46,26.46,28.23-10.56,28.04-26.46,28.04-26.36-10.46-26.36-28.04h0ZM110.88,46.64c0-12.34-5.43-18.86-13.82-18.86s-13.72,6.52-13.72,18.86,5.43,18.86,13.72,18.86,13.82-6.42,13.82-18.86Z"/>
    <path class="st0" d="M128.06,19.89h12.64v53.61h-12.64V19.89Z"/>
    <path class="st0" d="M146.42,19.89h12.44l-.2,25.47,22.21-25.47h12.95l-18.46,20.93,20.71,32.68h-14.41l-14.59-23.2-8.41,10.86.2,12.34h-12.44V19.89h0Z"/>
    <path class="st0" d="M194.69,59.87c0-10.56,11.06-14.12,22.41-17.57,8.39-2.57,12.44-4.54,12.44-8.49s-3.36-6.22-9.48-6.22c-6.91,0-11.45,3.95-12.64,10.56h-11.65c1.58-11.55,11.06-19.45,24.58-19.45s21.62,6.42,21.62,18.36v36.43h-12.44v-6.02c-4.05,4.44-10.07,6.91-16.88,6.91-11.06,0-17.97-5.73-17.97-14.51h0ZM215.92,65.89c5.13,0,10.46-2.07,13.62-5.63v-14.81c-2.27,1.88-5.82,3.06-9.87,4.44-7.21,2.37-12.64,4.25-12.64,9.58,0,4.15,3.45,6.42,8.88,6.42h0Z"/>
  </g>
  <g class="st1">
    <g class="st1">
      <g class="st1">
        <g class="st1">
          <path class="st0" d="M7.43,85.78h2.34v27.8h-2.34s0-27.8,0-27.8Z"/>
          <path class="st0" d="M19.25,85.78h2.43l14.06,19.61,3.81,5.52h.2c-.16-2.7-.3-5.39-.3-8.1v-17.04h2.18v27.8h-2.43l-14.06-19.61-3.81-5.52h-.2c.16,2.66.3,5.19.3,7.89v17.25h-2.18s0-27.8,0-27.8Z"/>
          <path class="st0" d="M50.05,108.55c2.43,2.28,5.94,3.76,9.84,3.76,5.07,0,8.32-2.28,8.32-5.57,0-3.46-2.75-4.6-6.04-5.82l-5.07-1.9c-2.89-1.05-6.75-2.78-6.75-6.91s4.16-6.83,9.7-6.83c4.06,0,7.31,1.52,9.34,3.33l-1.37,1.3c-1.93-1.73-4.61-2.87-7.96-2.87-4.41,0-7.36,1.94-7.36,4.98,0,3.2,3.35,4.43,5.78,5.35l5.07,1.86c3.71,1.39,7,3.12,7,7.38s-4.22,7.47-10.71,7.47c-4.87,0-8.63-1.73-11.26-4.18l1.47-1.35h0Z"/>
          <path class="st0" d="M77.1,85.78h2.34v16.91c0,7.38,4.22,9.62,8.93,9.62s9.08-2.24,9.08-9.62v-16.91h2.23v17.13c0,8.68-5.58,11.18-11.31,11.18s-11.26-2.49-11.26-11.18v-17.13Z"/>
          <path class="st0" d="M127.53,113.56l-9.04-12.78h-7.11v12.78h-2.34v-27.8h9.54c6.65,0,11.01,2.03,11.01,7.34,0,4.43-3.35,6.96-8.58,7.55l9.18,12.91h-2.69,0ZM117.99,99.18c5.94,0,9.18-1.99,9.18-6.08s-3.25-5.7-9.18-5.7h-6.6v11.77h6.6Z"/>
          <path class="st0" d="M151.59,104.03h-13.24l-3.9,9.53h-2.39l11.82-27.8h2.34l11.77,27.8h-2.48l-3.9-9.53h0ZM150.93,102.4l-2.13-5.19c-1.32-3.29-2.54-6.2-3.7-9.62h-.2c-1.17,3.42-2.34,6.33-3.7,9.62l-2.13,5.19h11.88,0Z"/>
          <path class="st0" d="M162.95,85.78h2.43l14.06,19.61,3.81,5.52h.2c-.16-2.7-.3-5.39-.3-8.1v-17.04h2.18v27.8h-2.43l-14.06-19.61-3.81-5.52h-.2c.16,2.66.3,5.19.3,7.89v17.25h-2.18v-27.8Z"/>
          <path class="st0" d="M207,85.27c3.9,0,6.9,1.61,8.67,3.33l-1.37,1.27c-1.83-1.68-4.26-2.82-7.31-2.82-7.31,0-11.88,4.85-11.88,12.57s4.52,12.7,11.67,12.7c3.45,0,6.04-1.14,8.48-3.42l1.37,1.23c-2.54,2.44-5.58,3.96-9.95,3.96-8.22,0-14.01-5.61-14.01-14.47s5.78-14.34,14.31-14.34h0Z"/>
          <path class="st0" d="M223.13,85.78h18.26v1.68h-15.94v10.51h13.4v1.68h-13.4v12.23h16.44v1.68h-18.78v-27.8h0Z"/>
        </g>
      </g>
    </g>
  </g>
  <path class="st2" d="M146.42,4.68h12.64v10.76h-12.64V4.68Z"/>
  <path class="st3" d="M181.19,4.68h12.64v10.76h-12.64V4.68Z"/>
  <rect class="st4" x="128.06" y="4.68" width="12.64" height="10.76"/>
</svg>